<svg width="207" height="294" viewBox="0 0 207 294" fill="none" xmlns="http://www.w3.org/2000/svg">
<path d="M138.848 114.183L138.657 114.057L138.531 113.992L138.338 113.865L138.147 113.8L137.957 113.671L137.698 113.609L137.511 113.479L137.32 113.353L137.127 113.288L136.874 113.158L136.684 113.096L136.429 112.967L136.174 112.84L135.918 112.775L135.663 112.649L135.408 112.584C144.836 109.768 157.702 105.162 177.127 103.883C191.33 102.926 201.521 103.757 206.87 105.162C206.87 105.162 193.878 114.313 179.101 117.573C164.326 120.772 152.288 118.725 143.496 118.79C142.924 117.894 142.288 116.999 141.267 115.974C151.52 116.039 168.593 113.414 174.769 111.367C174.769 111.367 159.866 108.169 138.848 114.183Z" fill="#0043FA"/>
<path d="M138.911 103.118V103.18V103.245L138.849 103.31V103.437L138.782 103.563L138.72 103.758V103.949L138.594 104.14L138.53 104.397L138.468 104.588L138.339 104.909L138.21 105.162L138.084 105.419L137.893 105.74L137.764 106.061L137.574 106.379L137.383 106.7L137.128 107.018L136.876 107.404L136.618 107.722L136.366 108.043L136.043 108.426L135.726 108.747L135.345 109.13L134.961 109.451L134.58 109.769L134.201 110.09L133.691 110.473L133.242 110.729L132.735 111.05L132.225 111.368L131.65 111.625C144.838 105.869 170.756 102.541 184.771 96.6564C203.557 88.8513 207 79.0021 207 79.0021C190.692 78.5545 177.445 82.5837 167.319 85.7175C155.41 89.3638 137.319 96.1439 130.949 99.0215C133.368 99.0863 135.981 99.7284 138.146 101.263C147.002 97.8728 151.14 96.4002 159.166 94.0969C165.536 92.3062 170.184 91.9881 174.134 91.6022C174.134 91.6022 168.592 95.3133 159.419 98.2557C150.248 101.198 146.301 101.711 138.911 103.118Z" fill="#0043FA"/>
<path d="M139.931 88.6609V88.7257L139.869 88.8523L139.802 88.979L139.74 89.0438L139.614 89.1704L139.55 89.3L139.488 89.4267L139.421 89.5563L139.292 89.6829L139.23 89.8125L139.039 90.1335L138.849 90.4516L138.594 90.7079L138.403 91.026L138.209 91.2822L138.148 91.4766L138.022 91.6033L137.957 91.7299L137.828 91.8595L137.767 91.9862L137.638 92.1157L137.573 92.2424L137.512 92.369L137.447 92.4338L137.385 92.5634L137.256 92.6253L137.189 92.7549C158.019 89.2352 180.949 73.4365 188.017 63.5844C195.152 53.8001 193.116 39.1501 193.116 39.1501C186.237 40.555 171.333 53.479 167.445 57.3786C163.623 61.2193 151.905 72.6678 143.817 79.065L141.333 86.3576C148.21 80.7939 156.427 74.5881 161.521 70.6856C165.535 67.6784 171.333 63.5196 177.257 61.4756C177.257 61.4756 171.84 68.5119 167.509 71.9668C162.477 75.996 157.318 79.4509 153.113 81.7512C149.418 83.7982 147.447 85.0146 139.931 88.6609Z" fill="#0043FA"/>
<path d="M134.899 63.8395V64.1605V64.5434V64.9293V65.2474V65.6303V66.0161V66.4638V66.8467L134.711 69.2147C139.738 62.7527 145.791 54.9476 151.521 47.7198C155.536 42.7952 158.846 39.8528 162.542 37.42C159.418 46.5681 153.817 53.8608 149.867 57.4423C145.92 61.0886 140.186 67.2296 134.582 71.0055L134.072 72.7962C133.562 74.5222 132.922 76.2511 132.031 77.9122C130.694 80.2184 128.975 82.4539 127.001 84.6953C128.594 83.8618 130.438 82.9664 132.35 82.1977L134.072 81.4319C149.418 73.3087 164.706 56.2906 170.823 44.5211C177.125 32.6869 174.518 18.997 172.858 11.6425C165.852 17.5921 155.788 29.2968 151.456 35.6292C146.046 43.4343 139.166 54.5647 134.899 63.5862V63.8395Z" fill="#0043FA"/>
<path d="M112.99 71.2599L112.351 72.6029L111.65 73.8842L110.952 75.2272L110.119 76.6321L109.677 77.2742L109.234 77.9752L108.723 78.6821L108.213 79.3831L107.703 80.087L107.131 80.7909L106.492 81.4949L105.852 82.1988L105.219 82.9675L104.518 83.6715L103.817 84.4372L103.052 85.206L102.225 85.9718L101.398 86.7405L100.503 87.5092L99.5503 88.3398L98.5942 89.1085L97.5766 89.9391L96.5561 90.7697L95.474 91.668L94.3273 92.4986L93.1162 93.394L91.8434 94.2245L90.5677 95.1229C87.3859 97.2965 83.8814 101.838 86.556 108.171C89.2305 114.568 94.1983 123.522 91.207 127.041C88.2129 130.558 77.5763 132.349 68.9164 128.897C68.9164 128.897 67.0659 134.399 63.9427 137.915C63.9427 137.915 65.4735 140.923 70.4413 139.388C70.4413 139.388 68.5938 143.93 71.1422 148.79C71.1422 148.79 76.94 147.768 79.4239 142.392C79.4239 142.392 81.7172 146.616 86.3653 148.086C86.3653 148.086 90.251 146.103 89.3566 138.428C89.3566 138.428 92.1601 145.273 100.888 146.424C100.888 146.424 105.852 140.092 99.3597 131.583C99.3597 131.583 104.008 135.742 112.48 133.757C112.48 133.757 113.814 129.406 106.175 123.395C106.175 123.395 114.835 123.009 118.149 115.719C118.149 115.719 114.454 111.178 105.474 112.2C105.474 112.2 113.814 110.347 115.665 100.366C115.665 100.366 109.677 96.5278 100.187 102.669C100.187 102.669 101.844 99.4702 105.852 96.2715C109.806 93.2025 114.644 84.3106 112.99 71.2599Z" fill="#0043FA"/>
<path d="M78.2114 172.011L78.4694 171.693L78.6571 171.372L78.8507 171.051L79.1058 170.73L79.2935 170.412L79.49 170.094L79.6776 169.837L79.8653 169.516L80.0618 169.198L80.1879 168.877L80.3756 168.556L80.5046 168.238L80.6982 167.982L80.8243 167.661L80.9533 167.34L81.0824 167.022C79.6161 179.177 79.1058 187.365 72.5426 195.232C72.5426 195.232 68.5954 189.989 71.1438 177.195C72.2875 176.871 73.4342 176.361 74.6453 175.528C74.6453 175.528 73.182 180.712 74.0735 185.954C74.0735 185.954 76.4313 184.228 78.2114 172.011Z" fill="#0043FA"/>
<path d="M89.4868 170.731L89.6158 170.67L89.6774 170.54L89.7419 170.413L89.8035 170.349L89.9296 170.219L89.9971 170.092L90.1261 169.963L90.1877 169.836L90.3138 169.709L90.3783 169.518L90.6334 169.262L90.824 168.941L91.0147 168.62L91.2698 168.302L91.4604 167.98L91.651 167.662L91.8446 167.341L92.0323 167.088L92.2258 166.764L92.3549 166.576L92.4164 166.446L92.481 166.319L92.5425 166.19C93.1144 173.226 94.9649 191.779 88.7859 197.599C88.7859 197.599 84.519 194.465 83.0527 167.406C83.9442 168.941 85.5366 170.54 86.2375 171.435C86.2375 171.435 85.2199 180.006 88.2756 186.085C88.2756 186.085 91.3959 183.717 89.4868 170.731Z" fill="#0043FA"/>
<path d="M104.261 184.931L103.751 184.357L103.308 183.653L102.862 182.887L102.481 182.054L102.032 181.22L101.716 180.328L101.334 179.368L101.015 178.408L100.695 177.383L100.378 176.361L100.123 175.336L99.8036 174.249L99.3579 172.137L99.1027 171.118L98.9121 170.093L98.7215 169.068L98.5925 168.111L98.4018 167.151L98.2757 166.19L98.1496 165.295L98.0206 164.464L97.8916 163.696L97.83 162.992L97.7655 162.288L97.7039 161.713L97.6394 161.454V161.201L97.5778 160.942V160.753V160.562L97.5103 160.432V160.241V160.179V160.049V159.985V159.923C96.7449 159.472 96.047 158.898 95.3461 158.323C95.0294 158.067 94.7068 157.873 94.4546 157.555C94.4546 158.256 94.4546 158.963 94.3255 159.666C95.1555 170.923 96.047 182.566 99.5514 188.389C102.988 194.08 109.296 197.022 109.296 197.022C115.217 186.404 108.085 172.205 102.032 162.288C101.27 162.032 100.566 161.713 99.8036 161.328C101.906 168.938 105.854 177.96 104.261 184.931Z" fill="#0043FA"/>
<path d="M118.976 152.371V152.501V152.631V152.819V153.075V153.27L118.915 153.458V153.653V153.717V153.844L118.85 153.906V154.036V154.1V154.162L118.789 154.23V154.357V154.418V154.483L118.721 154.545V154.613V154.675V154.74L118.659 154.804V154.869V154.931V154.996V155.058L118.592 155.125C118.53 155.252 118.466 155.57 118.34 155.891C123.308 160.689 127 165.422 134.325 175.657C141.651 185.954 153.373 186.34 153.373 186.34C152.226 178.022 149.93 171.437 143.689 164.4C137.51 157.299 129.487 150.837 123.689 146.552C122.161 147.255 120.184 147.703 117.701 147.385C117.448 147.385 117.322 147.32 117.129 147.32C117.894 148.342 118.404 149.364 118.659 150.327C123.055 152.884 135.982 159.473 141.205 170.026C141.205 170.026 133.053 167.469 118.976 152.371Z" fill="#0043FA"/>
<path d="M128.212 142.074L127.701 141.114C127.572 140.858 127.385 140.602 127.191 140.346C131.968 142.201 149.042 148.66 154.578 151.541C160.121 154.418 168.083 160.942 172.415 174.249C172.415 174.249 160.886 175.271 151.394 167.339C141.904 159.472 130.822 148.407 126.044 144.887C126.555 144.504 126.936 144.057 127.191 143.674C127.191 143.674 140.059 155.125 153.69 160.05C153.69 160.05 150.757 154.804 145.347 150.902C138.848 146.233 133.942 144.696 128.212 142.074Z" fill="#0043FA"/>
<path d="M137.958 134.205L137.896 134.078L137.829 133.887L137.767 133.695L137.638 133.566L137.573 133.374L137.512 133.183L137.447 133.053L137.386 132.862C142.987 134.078 157.128 135.739 163.436 137.66C169.674 139.58 181.076 144.249 187.829 157.17C187.829 157.17 177.891 160.242 159.166 151.414C140.503 142.587 134.644 140.732 131.078 139.772C133.943 139.58 135.981 138.62 137.002 137.981C144.453 141.306 154.392 145.273 164.325 145.53C164.325 145.53 159.418 142.075 154.263 139.901C148.72 137.533 142.606 135.421 137.958 134.205Z" fill="#0043FA"/>
<path d="M137.511 124.865L137.191 125.057L136.874 125.187L136.49 125.313L136.173 125.508L135.857 125.569L135.534 125.699L135.217 125.826L134.898 125.89L134.581 126.017L134.2 126.082L133.88 126.147L133.499 126.209L133.118 126.273L132.924 126.338H132.733H132.478L132.288 126.4H132.097L131.839 126.465C133.118 127.298 134.39 128.385 135.534 129.793C142.094 131.71 153.309 133.757 171.84 135.103C190.374 136.508 200.248 133.053 200.248 133.053C193.814 129.089 183.497 125.057 176.552 123.714C169.611 122.371 151.332 122.562 143.308 121.411C143.179 121.54 142.288 122.309 140.631 123.266C147.382 123.908 161.778 124.547 169.165 128.256C169.165 128.256 155.534 130.111 137.511 124.865Z" fill="#0043FA"/>
<path d="M81.1439 147.255L80.9533 146.998L80.8243 146.937L80.6982 146.807L80.5721 146.68L80.5046 146.615L80.3756 146.486L80.314 146.424L80.1879 146.294L80.1234 146.168L79.9943 146.103L79.9328 145.976L79.8037 145.912L79.7392 145.785L79.616 145.72L79.5515 145.593C78.531 146.872 75.3462 150.901 73.7538 154.93C72.6101 158.323 71.2699 162.991 70.6951 165.613C69.9971 168.364 68.1467 173.866 67.003 175.786C67.003 175.786 72.0353 176.49 75.7949 172.01C79.4899 167.725 80.8243 163.377 81.3316 158.897C81.7803 155.381 81.6542 150.518 81.1439 147.255Z" fill="#0043FA"/>
<path d="M89.1688 147.895L89.1073 148.021L88.9782 148.151L88.9137 148.216L88.8492 148.342L88.7231 148.472L88.6586 148.534L88.597 148.599L88.4679 148.728L88.4034 148.79L88.3389 148.855L88.2744 148.92L88.1483 149.046L88.0867 149.111L88.0222 149.173H87.9577L87.8932 149.241L87.8286 149.303L87.7641 149.367L87.7025 149.432H87.641L87.5764 149.494H87.5149L87.4503 149.559L87.3858 149.621H87.3213V149.685H87.2568H87.1923V149.747L86.5559 150.071L85.7934 149.877C85.2186 149.621 84.6438 149.367 84.072 149.173C83.3711 151.158 83.0514 152.183 82.8638 153.971C82.6086 156.274 82.1629 159.92 83.0514 162.928C84.1365 166.574 86.2362 168.75 87.4503 170.22C87.4503 170.22 90.8228 166.512 91.7173 163.502C92.7349 160.368 93.1161 156.657 91.8434 152.884C91.207 150.84 90.1249 148.984 89.1688 147.895Z" fill="#0043FA"/>
<path d="M100.633 148.215L100.316 148.15H99.9933L99.6795 148.086L99.3569 148.024L98.7851 147.894L98.2132 147.767L97.6384 147.576L97.1311 147.446L96.6208 147.255L96.1105 147.064L95.6003 146.807L95.1545 146.616L94.7058 146.36L94.263 146.168L93.8818 145.912L93.436 145.656L93.0519 145.399L92.7351 145.143C92.2894 146.295 91.5885 147.959 92.0988 150.197C92.6061 152.501 94.1985 155.125 96.4947 156.916C99.8672 159.667 104.457 162.223 109.486 161.393C109.486 161.393 110.697 157.617 100.633 148.215Z" fill="#0043FA"/>
<path d="M104.456 141.882L104.391 142.2L104.327 142.521L104.262 142.777V143.098L104.198 143.354L104.136 143.608L104.01 143.929L103.946 144.185L103.881 144.441L103.817 144.632L103.688 144.889L103.626 145.142L103.562 145.336L103.435 145.528L103.371 145.719L103.245 145.911L103.177 146.105L103.116 146.297L102.99 146.423L102.928 146.55L102.864 146.741L102.799 146.871L102.67 146.936L102.606 147.062L102.544 147.192L102.479 147.254V147.319L102.418 147.383L102.353 147.448V147.51H102.289V147.575C103.435 148.983 107.767 156.337 116.685 155.124C116.685 155.124 119.04 150.07 113.116 146.105C109.104 143.354 107.195 142.842 104.456 141.882Z" fill="#0043FA"/>
<path d="M103.626 135.548L104.071 135.678L104.582 135.805L105.092 135.87L105.602 135.934L106.112 135.996L106.62 136.061H107.195L107.766 136.126H108.338L108.975 136.061H109.549L110.186 135.996L110.506 135.934H110.89L111.206 135.87L111.523 135.805L111.843 135.74L112.224 135.678L112.544 135.613L112.86 135.487L113.881 135.295L114.262 134.27C118.787 138.046 124.262 138.682 126.11 142.075C126.11 142.075 123.817 146.296 117.893 145.53C111.972 144.823 107.511 142.075 104.327 138.046C104.197 137.469 103.945 136.382 103.626 135.548Z" fill="#0043FA"/>
<path d="M113.944 130.305L113.882 130.175L113.815 130.048L113.627 129.792L113.501 129.536L113.372 129.215L113.179 128.959L113.053 128.64L112.862 128.319L112.668 128.001L112.542 127.68L112.352 127.297L112.223 127.106L112.097 126.976L112.035 126.785L111.909 126.593L111.78 126.402L111.651 126.272L111.525 126.081L111.399 125.889L111.205 125.698L111.076 125.507L110.888 125.315L110.759 125.186C114.645 124.482 118.211 124.352 122.798 125.315C128.276 126.337 133.88 127.615 136.683 135.933C136.683 135.933 133.117 139.002 126.748 137.659C121.396 136.572 116.619 134.204 113.944 130.305Z" fill="#0043FA"/>
<path d="M116.238 121.22L116.49 120.963L116.749 120.772L117.001 120.516L117.259 120.259L117.511 120.003L117.766 119.685L117.957 119.429L118.212 119.173L118.403 118.855L118.658 118.533L118.851 118.212L119.039 117.894L119.232 117.511L119.423 117.19L119.611 116.805L119.804 116.422L120.25 115.4C125.027 113.479 129.933 112.457 134.772 114.248C139.614 116.104 140.884 118.212 142.095 120.003C142.095 120.003 136.746 124.545 130.631 124.739C124.452 124.866 118.722 123.075 116.238 121.22Z" fill="#0043FA"/>
<path d="M114.835 111.434L114.518 111.307L114.324 111.242H114.198L114.011 111.178L113.882 111.116L113.688 111.051L113.5 110.986H113.307L113.181 110.921L112.99 110.86H112.799L112.606 110.795L112.418 110.73H112.222L112.034 110.665C114.198 108.81 116.175 105.997 117.195 101.711C119.486 102.221 124.58 102.221 126.873 101.39C129.166 100.495 133.624 100.43 137.128 102.798C137.128 102.798 135.982 108.874 128.02 110.986C120.632 112.968 117.829 112.459 114.835 111.434Z" fill="#0043FA"/>
<path d="M117.638 99.4712L116.617 98.7673C116.488 98.7025 114.708 97.6157 111.711 97.4242C114.263 95.442 120.313 90.326 124.579 87.958C129.295 85.3337 137.064 81.7522 141.014 81.2397C141.014 81.2397 137.319 91.027 132.987 94.9914C128.53 99.0884 125.406 100.623 117.638 99.4712Z" fill="#0043FA"/>
<path d="M109.677 94.9292L110.058 94.4815L110.378 93.969L110.697 93.4565L111.014 92.947L111.331 92.3697L111.651 91.7954L111.97 91.2181L112.222 90.579L112.48 89.9398L112.797 89.3007L113.052 88.6616L113.304 87.9576L113.501 87.2537L113.753 86.5498L113.944 85.781L114.199 85.0771C115.026 81.7518 117.129 73.6905 118.34 71.5168C119.548 69.4051 123.944 62.1124 132.478 59.8092C132.478 59.8092 134.71 69.3403 130.44 77.0187C126.683 83.5426 119.102 90.4494 109.677 94.9292Z" fill="#0043FA"/>
<path d="M62.2886 139.58L62.0364 139.771L61.8458 139.963L61.6522 140.154L61.4646 140.284L61.2681 140.475L61.0804 140.602L60.8868 140.796L60.6962 140.923L60.444 141.052L60.1859 141.244L60.1244 141.306L59.9983 141.371L59.8722 141.435L59.7431 141.562L59.5496 141.627L59.4235 141.689L59.2944 141.753L59.1713 141.883L58.9777 141.945L58.8516 142.01L58.661 142.139L58.4674 142.201C58.4674 142.201 55.7929 147.447 59.0422 153.717C62.3531 160.05 65.1596 166.512 66.4939 170.093C66.4939 170.093 68.277 169.837 70.2506 159.923C71.5908 153.27 73.3093 151.541 75.0278 149.302C73.0542 150.259 71.5263 150.519 71.3972 150.519L70.1245 150.84L69.4881 149.558C68.277 147.32 67.9602 145.143 67.9602 143.353C67.9602 142.714 68.0218 142.139 68.0863 141.627C65.0306 141.753 63.3092 140.154 62.7344 139.388C62.6728 139.259 62.6728 139.259 62.5467 139.197L62.2886 139.58Z" fill="#0043FA"/>
<path d="M115.218 157.106L115.855 157.745L116.491 158.387L117.195 159.091L117.893 159.857L118.658 160.623L119.359 161.456L120.183 162.352L120.951 163.247L121.776 164.207L122.544 165.164L123.368 166.189L124.201 167.214L124.96 168.301L125.729 169.45L126.553 170.604L127.254 171.756L128.019 172.972L128.72 174.186L129.424 175.402L130.06 176.681L130.632 177.959L131.204 179.305L131.714 180.583L132.16 181.991L132.609 183.331L132.922 184.677L133.242 186.085L133.497 187.49L133.623 188.901L133.691 190.37V191.775L133.623 193.248C133.623 193.248 121.204 189.345 116.11 180.2C111.013 171.117 107.893 165.294 105.728 163.247C107.066 163.438 108.465 163.438 109.805 163.247L110.951 163.056C114.136 168.814 120.312 178.28 125.916 181.543C125.916 181.543 127.383 173.865 110.887 158.387C110.632 157.745 110.315 157.044 109.805 156.275C111.333 156.85 113.054 157.106 115.028 157.044" fill="#0043FA"/>
<path d="M19.296 33.5209V33.3913L19.3606 33.2646L19.4251 33.1998L19.4896 33.0732L19.6157 33.0084L19.7418 32.8788L19.8708 32.817L20.0644 32.6874L20.2521 32.6226L20.4456 32.4959L20.7007 32.4311L20.953 32.3663L21.2081 32.2397L21.5277 32.1749L21.8445 32.113L22.167 32.0482L22.4808 31.9864L22.8005 31.9216L23.1817 31.8568L23.563 31.792L23.9471 31.7301L24.3929 31.6653L24.7741 31.6005H25.2228L25.6656 31.5357L26.1114 31.4739H26.5601H27.0674L27.5161 31.4091H28.0264H28.4692H28.9795C34.3285 31.4091 38.6629 32.3663 38.6629 33.5209C38.6629 34.6077 34.3285 35.5649 28.9795 35.5649C23.6304 35.5649 19.296 34.6077 19.296 33.5209Z" fill="#0043FA"/>
<path d="M30.8893 37.9978V38.1244V38.254V38.3188V38.4455L30.8277 38.5073V38.6369L30.7632 38.7017V38.8284L30.7016 38.8932V38.958L30.6371 39.0198L30.5726 39.1494L30.508 39.2142L30.4435 39.276L30.379 39.3408L30.3174 39.4056L30.2529 39.4704L30.1913 39.5323L30.1268 39.5971L30.0623 39.6619L29.9978 39.7237H29.9333L29.8072 39.7885L29.7426 39.8533H29.6811L29.552 39.9152H29.4875H29.3614L29.2969 39.98H29.1708H29.1092H28.9802C27.9596 39.98 27.0681 39.1494 27.0681 37.9978C27.0681 37.0376 27.9596 36.1422 28.9802 36.1422C30.0623 36.1422 30.8893 37.0376 30.8893 37.9978Z" fill="#0043FA"/>
<path d="M24.5198 29.8105L24.6488 29.7457H24.7749H24.9655H25.0916L25.4142 29.681H25.7309H26.0476H26.3673L27.0066 29.6191C26.4318 25.4603 25.03 18.6154 24.203 15.8645C23.3731 13.1135 22.291 11.1961 20.508 10.6836C20.508 10.6836 21.9068 14.4566 22.6752 18.3591C23.4376 22.2617 23.9479 26.0994 24.5198 29.8105Z" fill="#0043FA"/>
<path d="M16.2409 61.6013H16.3054H16.3699H16.4315H16.496H16.6221H16.7511L16.8802 61.6632H17.0063H17.194H17.3905H17.5781L17.7688 61.728H17.9623H18.15L18.4051 61.7928H18.5987L18.8538 61.8576H19.0444L19.2966 61.9194L19.5547 61.9842L19.7424 62.049L19.9975 62.1138H20.1911L20.4462 62.2405L20.6368 62.3053L20.889 62.3701L21.0826 62.4319L21.2732 62.5615L21.4638 62.6263L21.6574 62.753L21.8451 62.8178C24.1383 64.3523 26.3055 67.6157 27.1325 71.5801C27.1325 71.5801 23.2498 70.9409 21.3993 69.0235C19.4902 67.168 17.194 64.2875 16.2409 61.6013Z" fill="#0043FA"/>
<path d="M20.7624 77.5302V77.5921L20.824 77.6569V77.7217L20.8885 77.7835V77.8483L20.953 77.9131L21.0175 77.975V78.1046L21.082 78.2312L21.2081 78.4256L21.3342 78.6819L21.4633 79L21.6568 79.321L21.7829 79.6391L21.9706 80.0249L22.1671 80.343L22.3548 80.7289L22.4809 81.1736L22.6744 81.5594L22.8651 81.9423L23.1202 82.39L23.5014 83.2854L23.8211 84.1189L24.0088 84.5666L24.2023 84.9495L24.3929 85.3324L24.519 85.7801L24.6481 86.1659L24.7742 86.484L24.9032 86.8699L25.0293 87.1879L25.0938 87.509L25.2229 87.7652C25.8592 90.6428 25.2229 92.4984 23.9472 94.2243C22.6744 95.9532 20.5073 97.8706 18.472 101.455C18.472 101.455 16.1787 98.3831 15.8591 96.7838C15.601 95.1226 16.0497 91.2819 16.557 89.6826C17.0673 88.0833 19.0439 82.8377 20.7624 77.5302Z" fill="#0043FA"/>
<path d="M22.0998 134.141L22.2288 134.398L22.3549 134.716L22.5456 135.037L22.6746 135.358L22.8652 135.676L23.0558 135.997L23.311 136.315L23.5016 136.636L23.9473 137.275L24.3931 137.914L24.9034 138.557L25.3491 139.196L25.7949 139.835L26.05 140.091L26.2406 140.409L26.4342 140.73L26.6219 141.051L26.8125 141.307L27.006 141.626L27.1321 141.882L27.2582 142.2L27.3873 142.456L27.5163 142.712L27.5779 142.969L27.6424 143.225V143.481L27.704 143.673C27.5779 150.196 24.7128 154.164 24.0734 156.337C24.0734 156.337 18.915 152.182 18.0235 147.448C17.5162 145.016 18.0235 137.723 22.0998 134.141Z" fill="#0043FA"/>
<path d="M21.5903 168.174V168.236H21.5288V168.301L21.4642 168.363L21.3997 168.427L21.3352 168.492L21.2736 168.557L21.2091 168.687L21.1475 168.748L21.0185 168.875L20.954 169.005L20.8249 169.131L20.6373 169.388L20.4437 169.709L20.1886 170.027L19.9364 170.348L19.6812 170.731L19.4261 171.116L19.1064 171.499L18.8513 171.947L18.5346 172.398L18.2794 172.842L17.9627 173.29L17.7047 173.738L17.4525 174.25L17.1944 174.698L16.9422 175.146L16.687 175.658L16.4964 176.106L16.3058 176.554L16.1123 177.066L15.9862 177.514L15.7955 177.958L15.731 178.344L15.6665 178.792L15.602 178.983V179.175V179.369V179.558C15.7955 184.485 19.0449 187.684 19.4906 190.753C19.4906 190.753 22.7399 187.11 23.9482 184.68C25.2854 181.861 26.3675 179.558 25.9863 176.424C25.6021 173.29 24.7751 171.308 21.5903 168.174Z" fill="#0043FA"/>
<path d="M71.5904 44.7139V44.6521L71.5288 44.5873V44.5225L71.4614 44.4606L71.3998 44.3958L71.3323 44.3311H71.2062L71.0801 44.2663L70.9511 44.2044L70.8221 44.1396H70.696L70.5083 44.0748L70.3792 44.01L70.1857 43.9482H69.998L69.7399 43.8834H69.5523L69.2971 43.8186L69.1036 43.7538H68.8484L68.5962 43.6919H68.344H68.086L67.7663 43.6271H67.5112H67.1944L66.9393 43.5623H66.6226H66.3029H65.9833H65.6636H65.3469C61.907 43.5623 59.1034 44.0748 59.1034 44.7139C59.1034 45.3531 61.907 45.8037 65.3469 45.8037C68.7868 45.8037 71.5904 45.3531 71.5904 44.7139Z" fill="#0043FA"/>
<path d="M29.0448 25.46L29.1064 25.2037L29.1709 24.8827L29.2325 24.5646L29.297 24.2435L29.4231 23.9254L29.5522 23.6044L29.6812 23.2215L29.8073 22.8357L29.9334 22.4528L30.0624 22.0699L30.3792 21.3012L30.6988 20.4706L31.0155 19.6371L31.3352 18.8713L31.6548 18.0378L31.7839 17.6549L31.9716 17.272L32.1006 16.8861L32.1622 16.5032L32.2912 16.1851L32.4173 15.7993L32.4818 15.4812L32.5434 15.1602L32.6079 14.8421L32.6725 14.521V14.2648V14.0086C32.6725 11.9616 31.0155 10.3004 28.9803 10.3004C26.9422 10.3004 25.2852 11.9616 25.2852 14.0086C25.2852 16.6299 28.5346 22.6442 28.9158 25.46H29.0448Z" fill="#0043FA"/>
<path d="M39.3606 31.4727L39.6802 30.7039L39.997 30L40.255 29.3609L40.5688 28.6569L40.8269 28.0178L41.0791 27.3139L41.3372 26.6747L41.5894 26.1004L41.8474 25.4583L42.0351 24.884L42.2903 24.3067L42.4809 23.7324L42.736 23.158L42.9296 22.6455L43.1172 22.133L43.3108 21.6206L43.4398 21.1081L43.6275 20.6633L43.7536 20.2156L43.8827 19.765L44.0117 19.3821L44.1378 18.9992L44.2639 18.6163L44.3284 18.2305L44.4574 17.9124L44.522 17.5914L44.5835 17.2733V17.017L44.6481 16.7608V16.5045V16.3131V16.1216C44.6481 14.9671 43.2463 14.1365 42.0351 13.7536C40.6363 13.3707 39.5512 13.2411 38.6626 13.8803C37.0057 15.2233 35.4778 25.5879 34.8385 29.9381C36.4954 30.2562 37.5131 30.5125 39.3606 31.4727Z" fill="#0043FA"/>
<path d="M33.5009 29.8105L33.3133 29.7457H33.1842H32.9907H32.8646L32.5449 29.681H32.2282H31.9085H31.5918L31.2722 29.6191H31.0141C31.5244 25.4603 32.9291 18.6154 33.7561 15.8645C34.6476 13.1135 35.6652 11.1961 37.4511 10.6836C37.4511 10.6836 36.1139 14.4566 35.3485 18.3591C34.5831 22.2617 34.0112 26.0994 33.5009 29.8105Z" fill="#0043FA"/>
<path d="M36.4969 38.9572H36.5585V39.019H36.623V39.0838H36.6846L36.7491 39.2134L36.8782 39.34L37.0072 39.4048L37.1333 39.5315L37.321 39.7259L37.45 39.8525L37.6436 40.044L37.8312 40.2384L38.0893 40.365L38.277 40.5565L38.5321 40.7479L38.7873 40.9394L39.0424 41.1956L39.2975 41.387L39.6143 41.5814L39.8694 41.7729L40.192 41.9643L40.4442 42.1558L40.7638 42.3472L41.0806 42.5387L41.4002 42.7301L41.7169 42.8597L42.0366 43.0512L42.3562 43.1807L42.7375 43.3074L43.0542 43.437L43.3768 43.5607L43.6906 43.6255C43.6906 43.6255 42.2272 39.7877 36.4969 38.9572" fill="#0043FA"/>
<path d="M33.5641 37.1647H33.7548H33.9483L34.2005 37.1028H34.4586H34.7108H34.9689L35.2181 37.1647H35.5407H35.8574L36.1771 37.2295H36.4967L36.8105 37.2943L37.1331 37.3561H37.5144L37.8311 37.4209L38.2152 37.4857L38.532 37.6124L38.9132 37.6772L39.2974 37.742L39.6141 37.8686L39.9953 37.9982L40.3795 38.063L40.6991 38.1896L41.0804 38.3192L41.4616 38.4459L41.7842 38.6373L42.098 38.764L42.4822 38.9554L42.7989 39.1498L43.1185 39.2765L43.3766 39.5327L43.6904 39.7242C46.8136 41.8978 47.8312 43.7534 48.9133 45.7385C48.9133 45.7385 43.3092 46.1862 38.4029 43.3057C36.051 41.8978 34.0099 38.6992 33.5641 37.1647Z" fill="#0043FA"/>
<path d="M56.893 51.0345C61.7347 51.6736 67.5647 51.3526 67.5647 51.3526V51.6736H67.4034V51.9946L67.2421 52.3157V52.6338L67.0867 52.7928V52.9519V53.1139L66.9283 53.2729V53.432V53.5939H66.767V53.753L66.6087 53.915V54.0711L66.4474 54.2331L66.289 54.3921V54.5512H66.1307L65.9723 54.7132V54.8722H65.811L65.6497 55.0313V55.1933H65.4943L65.3359 55.3523L65.1746 55.5143C64.855 51.5469 56.893 51.5145 56.893 51.5145V51.0345ZM39.5379 45.9184C39.5379 45.9184 40.1743 48.2511 43.0424 49.5942C43.0424 49.5942 41.4793 49.6914 40.0159 51.0345C40.0159 51.0345 40.969 52.89 43.5174 53.915C43.5174 53.915 38.84 58.71 33.8047 58.3919C33.8047 58.3919 36.1302 61.399 41.2916 60.3093C46.45 59.1577 47.9779 56.2801 48.931 55.1933C48.931 55.1933 48.2946 57.9442 48.6172 59.031C48.6172 59.031 50.8137 58.869 52.5967 56.6306C52.5967 56.6306 51.2566 58.869 51.0043 60.7894C51.0043 60.7894 52.4355 60.8218 54.9868 59.3491C54.9868 59.3491 54.412 60.7246 54.3475 62.3887C54.3475 62.3887 60.3359 60.4359 63.2626 57.7498V57.9118V58.0708V58.2299V58.3919V58.5509V58.71V58.869V59.031V59.1901V59.3491V59.5111V59.8292L63.1042 59.9912V60.1502V60.3093V60.4683V60.6303C63.1042 60.6303 72.2774 59.7997 72.9753 46.2365C72.9753 46.2365 66.9577 48.475 60.7171 48.1539C54.6026 47.8358 43.1685 47.6444 39.5379 45.9184Z" fill="#0043FA"/>
<path d="M74.5172 47.1453L74.4557 47.7196L74.3911 48.2321L74.3296 48.8064L74.265 49.3189L74.136 49.8962L74.0744 50.4057L73.9454 50.9182L73.8193 51.4307L73.6932 51.9432L73.5642 52.4557L73.3706 52.9004L73.2445 53.3481L73.0539 53.7987L72.9248 54.2435L72.7372 54.6293L72.5436 55.0122C72.5436 55.0122 76.1742 52.3261 77.0657 49.958C77.9601 47.5929 78.1478 46.0584 74.5172 47.1453Z" fill="#0043FA"/>
<path d="M81.7345 55.1921H81.8958H82.0541H82.2125V55.3512H82.3709H82.5292V55.5132H82.6905L82.8518 55.6722V55.8313H83.0102V55.9903H83.1656V56.1523V56.3114V56.4704V56.6324L83.3269 56.7915C83.3269 57.625 82.5644 58.3908 81.7345 58.3908C80.9075 58.3908 80.3034 57.625 80.3034 56.7915C80.3034 55.9609 80.9075 55.1921 81.7345 55.1921ZM82.2125 49.7551L81.8958 49.9141H81.7345H81.5732L81.2594 50.0732H81.0981H80.9397C79.5996 54.1701 75.0482 55.5132 72.8165 56.4704C70.4616 57.625 68.2006 60.3111 68.2006 60.3111C71.8956 61.1417 73.6112 62.0665 73.6112 62.0665C80.6875 57.1449 86.5117 62.2285 86.5117 62.2285C90.3328 59.9901 91.1276 54.7445 89.2214 51.9935L88.8988 51.6725L88.7404 51.3544L88.5821 51.1953L88.2654 51.0334L88.1041 50.8743L87.7844 50.7153L87.629 50.5533L87.3064 50.3942L86.9897 50.2352L86.8313 50.0732H86.5117L86.195 49.9141H85.8753L85.714 49.7551H85.3973H85.0806H84.758H84.4442H84.1216H83.8049H83.6465H83.3269H83.0102H82.8518H82.5292H82.2125Z" fill="#0043FA"/>
<path d="M67.5124 61.218H67.4508V61.2828H67.3863V61.3446L67.3247 61.4094L67.2573 61.539L67.1282 61.6009L67.0667 61.7305L66.9406 61.9219L66.8145 62.0486L66.7499 62.1782L66.5564 62.3696L66.4303 62.5611L66.3042 62.6906L66.1106 62.8821L65.9845 63.0735L65.7939 63.3298L65.6649 63.5212L65.2836 63.9041L64.8995 64.287L64.5828 64.7376L64.3921 64.9291L64.2015 65.1205L64.0109 65.312L63.8173 65.5034L63.6297 65.633L63.4361 65.8245L63.2455 65.9511L63.0549 66.1426C63.0549 66.1426 72.5447 66.0159 74.9641 74.3335C74.9641 74.3335 78.2105 69.2145 75.8586 65.9511C73.3102 62.4344 70.8878 61.9219 67.5124 61.218Z" fill="#0043FA"/>
<path d="M57.0678 63.2012H57.0033V63.263H56.9388H56.8772H56.8127V63.3278H56.7511H56.6866H56.5576L56.4931 63.3926L56.3669 63.4574H56.1763L56.0473 63.5193L55.9183 63.5841H55.7306L55.6045 63.6489L55.4109 63.7137L55.0942 63.7755L54.71 63.9051L54.3933 63.9699L54.1998 64.0318L54.0737 64.0966L53.883 64.1614H53.754L53.5663 64.2262L53.4373 64.288H53.3083L53.1822 64.3528H53.0561L52.9915 64.4176C52.9915 64.4176 52.9299 62.6269 53.0561 61.7933C52.1 61.9848 50.9534 62.3058 49.9328 62.4325C49.9328 62.4325 46.9387 69.2155 44.5222 71.9665C44.5222 71.9665 44.3932 73.5658 45.7304 75.8013C45.7304 75.8013 47.4489 71.8369 50.5692 68.5116C52.2906 66.7179 53.4373 65.7607 57.0678 63.2012Z" fill="#0043FA"/>
<path d="M65.1582 61.7943H65.0291L64.9001 61.8562H64.774L64.5834 61.921L64.3898 61.9858L64.2021 62.0476L64.0086 62.1124L63.7535 62.1772L63.5013 62.3039L63.2461 62.3687L62.991 62.4335L62.7359 62.5601L62.4162 62.6249L62.164 62.7516L61.8443 62.8812L61.5276 63.0078L60.8883 63.2641L60.2519 63.5203L59.6772 63.7765L59.0408 64.0328L58.7241 64.2242L58.4689 64.3509L58.1493 64.4805L57.8941 64.6719L57.6419 64.8015L57.3868 64.9282L57.1317 65.1196L56.9381 65.2463C53.9469 67.4229 51.9087 69.8527 52.1609 74.1382C52.1609 74.1382 54.5862 70.7481 57.2607 69.2136C59.3604 68.062 63.1816 64.7367 65.1582 61.7943Z" fill="#0043FA"/>
<path d="M65.0922 30.7047H65.0306H64.9016L64.8371 30.7665H64.711H64.6494H64.5203L64.3913 30.8313H64.2652H64.2007L64.0716 30.8961H63.9426L63.881 30.9609H63.7549L63.6288 31.0228L63.4998 31.0876L63.4382 31.1524L63.3092 31.2172L63.2447 31.279L63.1186 31.3438L63.057 31.4086L62.9279 31.4734L62.8605 31.5353L62.7989 31.6001L62.7344 31.7297L62.6728 31.7915L62.6083 31.9211L62.5467 31.9859V32.0478V32.1126L62.4792 32.1774V32.2392V32.304V32.3659L62.4177 32.4306V32.4954V32.5602V32.6221C62.4177 34.0948 64.711 37.6144 65.3473 39.1489C65.9837 37.6144 68.2125 34.0948 68.2125 32.6221C68.2125 31.1524 66.494 30.7047 65.535 30.7047H65.0922Z" fill="#0043FA"/>
<path d="M67.0654 42.1554L67.127 41.8991V41.7077L67.1944 41.4514L67.256 41.1952V40.939L67.3235 40.6827L67.3851 40.3646L67.4496 40.1084L67.5112 39.7873L67.5757 39.4692L67.7047 38.8301L67.8337 38.188L67.9598 37.487L68.1475 36.845L68.215 36.5269L68.344 36.2058L68.4056 35.9525L68.4701 35.6315L68.5933 35.3753L68.6578 35.119L68.7868 34.8628L68.9159 34.6065L68.9775 34.3532L69.1036 34.1588L69.2297 33.9674L69.2971 33.7759L69.4261 33.6463L69.5522 33.5197C70.7605 32.4329 72.5435 32.3033 73.435 32.3681C74.3294 32.4329 75.218 33.3283 74.9013 34.5447C74.5171 35.7581 70.5698 41.7077 70.0596 42.4116C69.1681 42.282 69.2971 42.282 67.0654 42.1554Z" fill="#0043FA"/>
<path d="M63.5658 42.1554V41.8991L63.5013 41.7077L63.4367 41.4514L63.3722 41.1952V40.939L63.3077 40.6827L63.2461 40.3646L63.1816 40.1084L63.12 39.7873L63.0555 39.4692L62.9265 38.8301L62.7974 38.188L62.6097 37.487L62.4807 36.845L62.3546 36.5269L62.2872 36.2058L62.2256 35.9525L62.0995 35.6315L62.0379 35.3753L61.9089 35.119L61.8443 34.8628L61.7153 34.6065L61.5892 34.3532L61.5276 34.1588L61.3986 33.9674L61.2695 33.7759L61.205 33.6463L61.0789 33.5197C59.8707 32.4329 58.1493 32.3033 57.1962 32.3681C56.3663 32.4329 55.4102 33.3283 55.7944 34.5447C56.114 35.7581 60.0613 41.7077 60.6332 42.4116C61.5276 42.282 61.3341 42.282 63.5658 42.1554Z" fill="#0043FA"/>
<path d="M61.08 23.5402H64.0742V20.1501H66.6226V23.5402H69.6784V25.7168H66.6226V29.6812H64.0742V25.7168H61.08V23.5402Z" fill="#0043FA"/>
<path d="M24.202 3.39026H27.3223V0.000192642H29.7446V3.39026H32.8649V5.56685H29.7446V9.53125H27.3223V5.56685H24.202V3.39026Z" fill="#0043FA"/>
<path d="M98.213 45.4813V45.2898V45.0336L98.1514 44.7773V44.5211V44.2648V44.1382V44.0086L98.0869 43.9467V43.8172V43.6905V43.5609C97.8288 41.8998 97.7672 40.4271 97.9578 39.2755C100.187 40.1061 101.714 40.6833 104.709 45.6079C104.709 45.6079 99.8669 42.6037 98.213 45.4813Z" fill="#0043FA"/>
<path d="M94.0089 53.3496L93.9473 53.223V53.0315V52.9019V52.7753L93.8828 52.5809V52.3894L93.8183 52.198V51.9417L93.7538 51.7503V51.4941L93.6922 51.3026L93.6248 51.0464L93.5632 50.7901L93.4987 50.5339L93.4371 50.2158L93.3725 49.9595L93.2435 49.4471L93.1145 48.8698L92.9884 48.2954L92.8007 47.7211L92.6717 47.1468L92.481 46.5695L92.2904 45.9922L92.2259 45.7389L92.0998 45.4827C90.8886 42.1544 91.5895 37.2947 93.0529 34.4141C94.5192 31.5366 95.3462 28.8504 95.0295 25.9081C95.0295 25.9081 97.9591 26.8682 99.5515 27.8903C99.8067 31.3451 97.8301 34.7352 96.9386 36.6555C95.789 38.9558 95.9855 41.8982 96.2993 43.7538C96.6834 46.8905 96.0471 50.2158 94.0089 53.3496Z" fill="#0043FA"/>
<path d="M93.6906 27.1868V27.125V27.0602V26.9954V26.9306V26.8687V26.8039V26.7392V26.6744V26.6125V26.5477V26.4829V26.4181V26.2915V26.1619V26.0352V25.9704V25.9056L93.6261 25.8438V25.779V25.7142V25.6523V25.5875V25.5257L93.5616 25.4609V25.3961V25.3313C93.5616 25.3313 88.978 20.9192 85.2184 20.1505C82.8635 19.638 81.3327 20.7278 80.6963 21.3021C80.6963 21.3021 81.9691 21.1725 84.0072 22.8366C86.0483 24.4359 88.5322 26.4829 90.4413 26.9954C92.3534 27.4431 92.7346 27.3135 93.6906 27.1868Z" fill="#0043FA"/>
<path d="M80.2509 21.6847L79.9341 22.0057L79.6145 22.3267L79.3594 22.6448L79.0426 22.9659L78.7846 23.284L78.5324 23.605L78.4033 23.7317L78.2743 23.9261L78.1482 24.0527L78.0866 24.2441L77.9605 24.4356L77.8315 24.5652L77.767 24.7566L77.7024 24.8833L77.5763 25.0129L77.5118 25.2043L77.4502 25.331L77.3857 25.5254L77.3212 25.652V25.8435L77.2567 25.9701L77.1922 26.1645V26.2911V26.4178V26.6122V26.7388C77.1922 28.3381 79.1042 32.4321 80.0632 33.9666C81.0163 35.5012 82.5442 37.5511 82.3535 39.981C82.2274 41.2593 81.3975 42.5405 80.377 43.5625C80.377 43.5625 85.9225 42.2194 86.5559 38.8294C87.1923 35.7574 85.858 33.5838 84.9635 31.8578C84.1366 30.2585 81.5881 26.5474 80.9518 25.0129C80.377 23.605 80.0632 22.4534 80.2509 21.6847Z" fill="#0043FA"/>
<path d="M47.958 60.3219L47.7058 61.0258L47.4477 61.7945L47.26 62.4955L46.9374 63.2024L46.6852 63.9034L46.4301 64.6073L46.1134 65.3112L45.7937 65.9504L45.4741 66.5924L45.1573 67.2934L44.8406 67.9355L44.4594 68.5099L44.1368 69.149L43.8201 69.7263L43.4388 70.3006L43.1192 70.8131C41.4007 73.4344 40.3186 77.7847 40.5678 79.2573C40.5678 79.2573 38.0223 73.6907 39.298 69.7911C40.3186 66.7191 42.9931 62.2393 47.958 60.3219Z" fill="#0043FA"/>
<path d="M41.7176 61.6013H41.656H41.5885H41.527H41.4624H41.4009H41.2748L41.1457 61.6632H40.9522H40.8261H40.6355H40.4419L40.2542 61.728H40.0636H39.8085L39.6149 61.7928H39.3598L39.1721 61.8576H38.914L38.7234 61.9194L38.4712 61.9842L38.2161 62.049L38.0225 62.1138H37.7674L37.5122 62.2405L37.3216 62.3053L37.1339 62.3701L36.8788 62.4319L36.6852 62.5615L36.4976 62.6263L36.3011 62.753L36.1134 62.8178C33.8846 64.3523 31.6529 67.6157 30.8904 71.5801C30.8904 71.5801 34.7087 70.9409 36.6237 69.0235C38.4712 67.168 40.8261 64.2875 41.7176 61.6013Z" fill="#0043FA"/>
<path d="M61.3979 68.5107H61.4624H61.5885H61.6531H61.7146H61.8437L61.9082 68.5725H62.0372H62.0988L62.2249 68.6373H62.3539H62.48L62.6091 68.7021H62.7352L62.8613 68.7669L63.1194 68.8288H63.3716L63.6296 68.8936L63.8818 68.9584L64.1399 69.0232L64.266 69.085H64.3921L64.5182 69.1498H64.6472L64.7118 69.2146H64.8379H64.8994L65.0285 69.2794C65.0285 69.2794 61.7792 70.2366 60.1222 71.5179C58.7879 72.6695 57.5768 74.4602 57.0665 77.4026C56.2395 81.5614 53.8172 86.0383 53.0547 87.3813L52.7996 87.3166C53.2453 84.439 51.4623 78.5542 51.0165 77.7207C51.0165 77.7207 53.565 76.0595 54.7732 74.3954C55.6031 73.179 57.131 71.135 61.3979 68.5107Z" fill="#0043FA"/>
<path d="M44.5843 77.4011L44.4582 77.5925L44.3936 77.784L44.2646 78.0402L44.1385 78.2964L44.0124 78.4879L43.8834 78.7441L43.7543 79.0652L43.6282 79.3214L43.5021 79.5747L43.376 79.8958L43.118 80.473L42.8658 81.0474L42.7367 81.3684L42.6077 81.6865L42.4816 82.0723L42.42 82.3904L42.291 82.7115L42.2264 83.0296L42.1619 83.4154L42.0974 83.7335L42.0358 84.1193L41.9713 84.5022V84.8233V85.2062V85.5891V85.9719V86.293L42.0358 86.6759L42.1619 87.0617L42.2264 87.4446C43.4376 91.4738 46.0506 93.2027 47.7045 96.5928C47.7045 96.5928 48.9773 90.4518 48.6606 85.7187C48.4054 80.9207 46.6869 79.13 44.5843 77.4011Z" fill="#0043FA"/>
<path d="M29.0449 88.5957V88.4691V88.4043L29.1065 88.148L29.2326 87.8918L29.2971 87.5707L29.4878 87.3174L29.6168 86.9964L29.8074 86.6783L29.998 86.3573L30.1916 85.9714L30.3793 85.6533L30.6373 85.2704L30.8895 84.8846L31.1447 84.5017L31.3353 84.1188L31.8456 83.3501L32.3558 82.5814L32.608 82.1985L32.8661 81.7508L33.0538 81.3679L33.3119 80.985L33.5025 80.5992L33.6931 80.2163L33.8837 79.8304L34.0098 79.5123L34.1359 79.1294L34.2649 78.8084L34.3295 78.4255L34.394 78.1045V77.7864V77.5301C34.0743 74.4582 30.0625 72.2845 29.0449 71.8368H28.9804C27.9599 72.2845 23.8836 74.4582 23.6284 77.5301C23.3733 80.5992 28.7869 86.2925 28.9159 88.5957H29.0449Z" fill="#0043FA"/>
<path d="M37.2585 77.5302L37.197 77.5921V77.6569V77.7217L37.1324 77.7835L37.0709 77.8483V77.9131L37.0063 77.975L36.9418 78.1046L36.8773 78.2312L36.8128 78.4256L36.6867 78.6819L36.4961 79L36.367 79.321L36.1764 79.6391L36.0503 80.0249L35.8568 80.343L35.6661 80.7289L35.4785 81.1736L35.2849 81.5594L35.0943 81.9423L34.9037 82.39L34.5195 83.2854L34.1383 84.1189L33.9476 84.5666L33.8215 84.9495L33.628 85.3324L33.5019 85.7801L33.3113 86.1659L33.1822 86.484L33.0532 86.8699L32.9916 87.1879L32.8655 87.509L32.801 87.7652C32.1646 90.6428 32.7365 92.4984 34.0122 94.2243C35.3494 95.9532 37.5137 97.8706 39.4873 101.455C39.4873 101.455 41.8451 98.3831 42.0973 96.7838C42.3554 95.1226 41.9712 91.2819 41.3994 89.6826C40.9536 88.0833 38.977 82.8377 37.2585 77.5302Z" fill="#0043FA"/>
<path d="M29.0448 105.996L29.3586 105.675L29.6812 105.357L29.9979 105.036L30.253 104.718L30.5727 104.397L30.8249 104.076L31.1446 103.758L31.3997 103.372L31.5903 103.054L31.8454 102.733L31.91 102.541L32.0361 102.415L32.1622 102.22L32.2296 102.094L32.2912 101.902L32.4173 101.773L32.4818 101.646L32.5434 101.454L32.6079 101.328L32.6724 101.198L32.737 101.072L32.8015 100.942C33.2472 99.5989 33.3763 97.6785 32.2296 96.2088C30.8894 94.4799 29.1709 92.4977 29.0448 90.9013H28.9158C28.8513 92.4977 27.1328 94.4799 25.731 96.2088C24.5843 97.6785 24.7104 99.5989 25.2207 100.942C25.731 102.22 27.2589 104.462 28.9803 105.996H29.0448Z" fill="#0043FA"/>
<path d="M35.3484 101.007L35.4129 101.069L35.4774 101.133L35.539 101.198L35.6035 101.263L35.6651 101.39L35.7912 101.519L35.9202 101.711L36.1138 101.902L36.3015 102.158L36.4979 102.35L36.6856 102.606L36.9408 102.862L37.1314 103.18L37.3836 103.437L37.6417 103.758L37.8323 104.014L38.3425 104.653L38.7883 105.227L39.0434 105.548L39.2986 105.867L39.4863 106.188L39.6827 106.444L39.932 106.762L40.1256 107.018L40.3162 107.274L40.4423 107.531L40.6358 107.787L40.7649 108.043L40.891 108.235L41.0171 108.426L41.0787 108.556V108.618L41.1461 108.682V108.747C41.7825 110.346 42.7385 113.224 41.3983 115.271C40.061 117.318 36.8762 120.581 34.1372 121.989C34.1372 121.989 37.1314 117.318 36.8117 113.48C36.624 110.986 34.7765 108.809 34.3953 107.339C34.0111 105.867 34.2662 103.31 35.3484 101.007Z" fill="#0043FA"/>
<path d="M43.9485 98.0644L43.884 98.1263L43.8195 98.2559L43.755 98.3207L43.6904 98.4473L43.6289 98.5739L43.5028 98.7035L43.4382 98.8302L43.3767 98.9598L43.3092 99.1512L43.2476 99.2779L43.1186 99.4723L43.0541 99.5989L42.9925 99.7904L42.928 99.92L42.7374 100.303L42.6083 100.686L42.4822 101.072L42.3561 101.454L42.2271 101.837L42.098 102.22L42.0365 102.476V102.668L41.9719 102.862V103.054L41.9104 103.31V103.501C41.7843 105.675 42.1626 107.466 43.3767 110.729C44.84 114.758 47.1333 119.3 48.28 121.347C48.28 121.347 50.3181 118.343 51.4648 115.719C51.4648 115.719 48.2154 111.242 46.8137 108.108C45.2213 104.397 44.5849 100.942 43.9485 98.0644Z" fill="#0043FA"/>
<path d="M45.475 96.2724V96.3343V96.3991L45.5396 96.5905V96.7849L45.6041 97.0412L45.6657 97.2974L45.7302 97.6803L45.7918 98.0632L45.8563 98.5109L45.9853 98.9586L46.1143 99.4711L46.2404 100.045L46.3665 100.623L46.5601 101.197L46.7507 101.839L46.9384 102.54L47.132 103.182L47.3842 103.883L47.6422 104.652L47.8944 105.356L48.217 106.125L48.5308 106.89L48.8505 107.659L49.2346 108.425L49.6159 109.194L49.9971 109.959L50.4429 110.728L50.8915 111.559L51.4018 112.327L51.9091 113.031L52.4194 113.8L52.9913 114.566C57.1321 119.811 60.5075 121.667 62.7363 121.667C66.1117 121.667 69.4871 118.789 70.6338 115.591C71.7159 112.392 71.3992 107.338 69.232 105.612C69.232 105.612 67.1938 111.88 62.8624 112.136C58.0207 112.392 51.7156 106.89 45.475 96.2724Z" fill="#0043FA"/>
<path d="M50.5065 91.9239L50.4449 92.1154L50.3804 92.3068V92.4983L50.3188 92.6897L50.2513 92.8812V93.0756L50.1898 93.5232L50.1223 93.968L50.0607 94.4186V94.8663V95.3759V95.8235V96.336V96.8485L50.1223 97.361L50.1898 97.8735L50.2513 98.383L50.3804 98.8955L50.5065 99.408C51.0168 101.455 52.225 104.141 54.6473 105.676C56.6855 106.957 61.5888 107.275 63.4363 102.607C63.4363 102.607 54.5212 103.311 50.5065 91.9239Z" fill="#0043FA"/>
<path d="M28.9789 123.011L29.234 122.884L29.4217 122.754L29.6798 122.693L29.8704 122.563L30.1285 122.436L30.3162 122.31L30.4423 122.245L30.5713 122.115L30.7003 122.054L30.7619 121.989L30.888 121.859L31.0141 121.797L31.1432 121.668L31.2722 121.603L31.3983 121.476L31.5244 121.35L31.5919 121.22L31.7209 121.093L31.847 120.964L31.9731 120.772L32.0992 120.646L32.2282 120.454L32.3543 120.325L32.4804 120.133L32.6065 119.942L32.803 119.685C33.8851 117.957 34.9673 114.758 34.3954 112.458C33.6271 109.642 32.0347 108.49 31.1432 106.7C30.4423 107.403 29.9995 107.916 29.0434 108.49H28.9789C28.0874 107.916 27.5771 107.403 26.8147 106.7C25.8616 108.49 24.3953 109.642 23.6299 112.458C23.0551 114.758 24.0727 117.957 25.2223 119.685C26.6211 121.989 27.7032 122.372 28.9789 123.011Z" fill="#0043FA"/>
<path d="M28.9789 140.602L29.0435 140.346L29.1696 140.093L29.2957 139.771L29.4218 139.45L29.6182 139.132L29.8059 138.811L29.9995 138.493L30.2546 138.172L30.5068 137.789L30.762 137.403L31.0142 137.085L31.2722 136.702L31.7825 135.934L32.3544 135.165L32.8646 134.399L33.1168 134.013L33.3749 133.63L33.6271 133.248L33.8206 132.927L34.0113 132.544L34.199 132.158L34.3954 131.84L34.5215 131.457L34.6476 131.136L34.7767 130.815L34.8383 130.497V130.176V130.049V129.919V129.793V129.663C34.0113 125.251 31.2106 126.146 29.0435 124.353H28.9789C26.8147 126.146 23.9466 125.251 23.1812 129.663C22.6093 132.479 28.3396 137.851 28.9789 140.602Z" fill="#0043FA"/>
<path d="M35.8579 134.141L35.7934 134.398L35.6027 134.716L35.4766 135.037L35.286 135.358L35.0925 135.676L34.9048 135.997L34.7083 136.315L34.5206 136.636L34.0749 137.275L33.5646 137.914L33.1159 138.557L32.6086 139.196L32.1628 139.835L31.9722 140.091L31.72 140.409L31.5235 140.73L31.3358 141.051L31.1452 141.307L31.0162 141.626L30.8255 141.882L30.6994 142.2L30.5704 142.456L30.5088 142.712L30.4414 142.969L30.3798 143.225L30.3153 143.481V143.673C30.4414 150.196 33.2449 154.164 33.8842 156.337C33.8842 156.337 39.1043 152.182 39.9958 147.448C40.506 145.016 39.9342 137.723 35.8579 134.141Z" fill="#0043FA"/>
<path d="M41.7177 138.747L41.6561 138.555L41.5886 138.364L41.527 138.172L41.4009 137.981L41.3364 137.725L41.2074 137.533L41.1458 137.277L41.0168 137.021L40.8907 136.764L40.7646 136.446L40.6355 136.19L40.5065 135.934L40.2543 135.357L39.9346 134.782L39.615 134.143L39.2983 133.566L39.1047 133.31L38.9141 133.053L38.7235 132.797L38.5329 132.544L38.3422 132.287L38.1516 132.031L37.961 131.775L37.7675 131.584L37.5798 131.392L37.3833 131.198L37.1956 131.006L36.9405 130.815C36.9405 130.815 34.1369 122.5 43.181 117.381C43.181 117.381 46.9377 122.309 47.9582 127.042C48.9788 131.71 44.0109 134.526 41.7177 138.747Z" fill="#0043FA"/>
<path d="M53.0555 117.638L53.3077 118.021L53.6273 118.342L53.947 118.725L54.2637 119.11L54.5834 119.428L54.9001 119.811L55.2197 120.197L55.5394 120.518L55.9206 120.836L56.2403 121.219L56.3664 121.349L56.557 121.475L56.7505 121.667L56.8766 121.797L57.0673 121.923L57.1963 122.053L57.3869 122.179L57.513 122.244L57.7036 122.371L57.8327 122.5L58.0204 122.562L58.1494 122.627C58.1494 122.627 58.7242 126.338 58.4045 128.833C57.9588 132.479 55.5394 136.252 54.5834 139.068C54.5834 139.068 50.5686 133.822 50.1874 130.75C49.6801 127.681 49.7446 125.187 49.6155 123.714C49.6155 123.714 51.8443 120.132 53.0555 117.638Z" fill="#0043FA"/>
<path d="M63.5 135.548L63.6291 135.357L63.7552 135.165L63.8813 134.909L64.0719 134.718L64.2009 134.397L64.3915 134.14L64.5822 133.822L64.7112 133.504L64.9018 133.118L65.0924 132.797L65.2831 132.415L65.5353 131.967L65.7317 131.584L65.9194 131.136L66.113 130.75L66.3036 130.306L66.6848 129.407L67.0661 128.45L67.3857 127.49L67.5763 127.042L67.7054 126.595L67.8344 126.082L67.9605 125.634L68.0837 125.187L68.1482 124.674L68.2127 124.227L68.2772 123.779V123.331V122.883C68.2772 122.883 63.8168 125.313 60.1246 123.523C60.1246 123.523 59.6144 129.537 60.3152 131.519C60.8871 133.183 61.717 134.14 63.5 135.548Z" fill="#0043FA"/>
<path d="M62.4805 136.829L62.4189 136.767L62.3544 136.702L62.2254 136.573L62.1638 136.511L62.0377 136.446L61.9732 136.381L61.8442 136.254L61.7796 136.19L61.6535 136.06L61.5274 135.998L61.4629 135.869L61.3339 135.742L61.0788 135.548L60.8266 135.294L60.633 135.103L60.3808 134.847L60.1872 134.655L60.0611 134.526L59.935 134.461L59.8705 134.334L59.7415 134.204L59.6125 134.143L59.5509 134.013L59.4864 133.948L59.3632 133.822L59.2957 133.76L59.2342 133.63C59.2342 133.63 56.3045 139.132 55.7942 140.731C55.7942 140.731 57.2605 141.052 58.8529 139.901C60.5069 138.746 60.8881 138.428 62.4805 136.829Z" fill="#0043FA"/>
<path d="M48.7252 133.566L48.7868 133.628V133.693L48.8513 133.823V133.884L48.9129 134.014L48.9774 134.079V134.205L49.039 134.335L49.1681 134.591L49.3616 134.848L49.4877 135.166L49.6783 135.422L49.8719 135.74L50.1241 136.126L50.3176 136.447L50.5698 136.827L50.8279 137.148L51.0156 137.534L51.5259 138.235L52.0361 139.003L52.2913 139.324L52.5464 139.707L52.8015 140.025L52.9922 140.346L53.2444 140.667L53.435 140.989L53.6901 141.242L53.8837 141.498L54.0743 141.754L54.2004 141.946L54.2649 142.011L54.3939 142.137L54.4555 142.202L54.523 142.267L54.5846 142.332V142.393L54.6491 142.458L54.7107 142.523C54.7107 142.523 54.3265 144.953 52.608 148.408C50.7605 151.924 48.3411 154.357 47.0038 155.571C47.0038 155.571 44.0741 150.39 43.1797 148.152C42.1621 145.53 42.2266 142.906 42.7369 141.946C43.69 139.707 47.1328 136.447 48.7252 133.566Z" fill="#0043FA"/>
<path d="M29.0449 173.291L29.1065 173.1L29.171 172.908L29.2326 172.717L29.2971 172.522L29.4232 172.396L29.4877 172.204L29.6168 172.01L29.7429 171.818L29.869 171.627L29.998 171.435L30.1915 171.179L30.3176 170.988L30.6373 170.605L30.9511 170.157L31.2737 169.71L31.6549 169.262L31.9716 168.749L32.2913 168.237L32.4819 167.981L32.608 167.724L32.8016 167.468L32.9277 167.215L33.0538 166.959L33.1828 166.638L33.3118 166.381L33.4379 166.063C34.0743 164.208 34.0743 161.966 33.3118 160.432C32.4819 158.706 29.3587 154.356 28.9804 153.139C28.5991 154.356 25.5405 158.706 24.6489 160.432C23.8835 161.966 23.8835 164.208 24.5844 166.063C25.7311 169.262 28.4701 171.435 28.9159 173.291H29.0449Z" fill="#0043FA"/>
<path d="M41.4624 151.095L41.4008 151.348L41.2747 151.539L41.1457 151.796L41.0166 151.99L40.8905 152.246L40.697 152.502L40.568 152.694L40.3803 152.947L40.1896 153.206L39.9961 153.524L39.6823 154.037L39.2981 154.611L38.914 155.124L38.5327 155.698L38.216 156.275L37.8934 156.85L37.7057 157.171L37.5796 157.427L37.4506 157.745L37.2571 158.004L37.1955 158.258L37.0694 158.579L36.9403 158.835L36.8787 159.153L36.8113 159.409L36.7497 159.665C36.3685 161.839 36.7497 163.63 37.2571 165.164C37.8934 166.637 39.8084 169.579 41.0782 171.818C41.0782 171.818 45.4742 167.662 46.4302 164.72C47.134 162.478 46.9375 159.344 45.8554 157.297C44.7733 155.318 42.4829 153.206 41.4624 151.095Z" fill="#0043FA"/>
<path d="M53.9461 150.52L53.8171 150.773L53.691 151.032L53.5649 151.221L53.4358 151.477L53.3068 151.733L53.1807 151.927L52.864 152.372L52.5443 152.885L52.1631 153.332L51.8434 153.78L51.4622 154.231L51.1426 154.675L50.8288 155.123L50.5062 155.571L50.3801 155.762L50.2511 156.018L50.122 156.213L49.9959 156.469L49.8698 156.658L49.7437 156.849L49.6792 157.105L49.6147 157.3L49.4856 157.491L49.4241 157.744C48.7261 160.242 48.5296 161.903 49.7437 164.913C50.8288 167.532 52.1631 169.069 52.6089 170.668C52.6089 170.668 56.1778 166.062 56.7497 164.142C57.3861 162.159 57.5767 159.026 56.8142 157.043C56.1133 154.996 54.8376 152.372 53.9461 150.52Z" fill="#0043FA"/>
<path d="M28.9787 208.793L29.0432 208.537L29.1077 208.281L29.1693 208.025L29.2954 207.707L29.4215 207.386L29.5506 207.067L29.6796 206.682L29.8702 206.234L30.0608 205.851L30.2544 205.403L30.4421 204.956L30.6356 204.443L30.8878 203.934L31.0814 203.421L31.3365 202.909L31.5242 202.334L31.7823 201.822L32.0345 201.245L32.228 200.605L32.4186 200.028L32.6738 199.392L32.8644 198.75L33.055 198.111L33.2456 197.472L33.4392 196.83L33.5624 196.193L33.6914 195.486L33.8204 194.85L33.9465 194.143L34.011 193.44L34.0726 192.8V192.096C34.2662 188.388 30.8878 182.504 29.0432 180.327H28.9171C27.0696 182.504 23.8203 188.388 23.8848 192.096C24.1399 199.454 28.7881 206.49 28.9787 208.793Z" fill="#0043FA"/>
<path d="M36.4309 168.174V168.236H36.4954V168.301L36.5599 168.363L36.6215 168.427L36.686 168.492L36.7476 168.557L36.8121 168.687L36.8767 168.748L37.0057 168.875L37.0702 169.005L37.1318 169.131L37.384 169.388L37.5805 169.709L37.8327 170.027L38.0878 170.348L38.34 170.731L38.5981 171.116L38.9148 171.499L39.1729 171.947L39.4251 172.398L39.7447 172.842L39.9969 173.29L40.3166 173.738L40.5688 174.25L40.8269 174.698L41.0791 175.146L41.2726 175.658L41.5248 176.106L41.7184 176.554L41.909 177.066L42.0351 177.514L42.1612 177.958L42.2902 178.344L42.3577 178.792V178.983V179.175V179.369V179.558C42.2286 184.485 38.9764 187.684 38.4691 190.753C38.4691 190.753 35.2843 187.11 34.0731 184.68C32.6743 181.861 31.5921 179.558 32.0349 176.424C32.3546 173.29 33.1845 171.308 36.4309 168.174Z" fill="#0043FA"/>
<path d="M47.7058 167.406L47.5768 167.533L47.5152 167.724L47.3861 167.919L47.26 168.11L47.1339 168.302L47.0049 168.558L46.8759 168.814L46.6852 169.068L46.5591 169.324L46.4301 169.58L46.3011 169.901L46.1134 170.157L45.9844 170.475L45.8553 170.796L45.5415 171.436L45.4125 171.818L45.2835 172.137L45.1574 172.461L45.0928 172.779L44.9667 173.162L44.9022 173.483L44.7732 173.804L44.7116 174.122L44.6471 174.508V174.826L44.5855 175.147V175.465V175.721L44.6471 176.042V176.36L44.7732 176.616C45.4741 179.494 48.5298 183.526 49.5504 185.317C49.5504 185.317 51.9727 180.328 52.5446 178.021C53.0548 175.721 52.6091 172.01 47.7058 167.406Z" fill="#0043FA"/>
<path d="M33.1832 220.689L33.2447 220.18L33.3122 219.667L33.3738 219.155L33.4383 218.645L33.5644 218.133L33.626 217.682L33.755 217.237L33.884 216.79L34.0747 216.339L34.2008 215.891L34.3298 215.508L34.5204 215.064L34.711 214.678L34.8371 214.292L35.2184 213.526L35.541 212.822L35.9222 212.118L36.2389 211.479L36.5586 210.84L36.6847 210.519L36.8108 210.198L36.9398 209.88L37.0688 209.562L37.1949 209.306L37.2595 208.985L37.321 208.728L37.3856 208.475C38.0219 205.147 37.8313 202.01 35.2184 198.172C33.1832 205.276 30.8899 210.454 29.1714 214.039C29.1068 214.165 29.0453 214.23 28.9778 214.36C28.9778 214.23 28.9162 214.165 28.8488 214.039C27.0687 210.454 24.7754 205.276 22.7373 198.172C20.1888 202.01 19.9337 205.147 20.573 208.475C21.1478 211.417 24.3942 214.934 24.7754 220.689C25.1566 226.512 18.6609 228.686 18.6609 228.686C20.8897 229.457 23.3736 229.837 27.3238 226.064C28.0247 225.361 28.5995 224.66 28.9778 223.823C29.4236 224.66 29.9984 225.361 30.6377 226.064C34.6465 229.837 37.1334 229.457 39.2976 228.686C39.2976 228.686 32.8664 226.512 33.1832 220.689Z" fill="#0043FA"/>
<path d="M11.4007 280.758L20.8261 294L27.9582 281.27L25.4127 276.661C23.5622 280.054 21.527 283.638 20.4448 285.682C19.6179 284.404 17.26 281.076 14.1398 276.661L11.4007 280.758Z" fill="#0043FA"/>
<path d="M45.2197 182.245L45.1581 182.436L45.032 182.693L44.9675 182.887L44.9029 183.143L44.7739 183.399L44.7094 183.656L44.5833 183.909L44.4572 184.165L44.2636 184.678L44.0114 185.19L43.8179 185.764L43.5657 186.277L43.3105 186.851L43.1815 187.108L43.117 187.364L42.9909 187.555L42.8648 187.811L42.8003 188.068L42.6712 188.259L42.6067 188.515L42.5451 188.707L42.4806 188.901L42.419 189.028L42.3545 189.216L42.29 189.346L42.2255 189.54V189.602C41.7827 191.905 42.419 194.718 46.5599 197.661C46.5599 197.661 49.2989 195.743 50.3165 193.249C51.337 190.945 50.6977 189.284 49.7446 188.13C48.6596 186.851 46.2402 184.103 45.2197 182.245Z" fill="#0043FA"/>
<path d="M36.4307 190.816L36.4952 190.946V191.138V191.264V191.52V191.715L36.5597 191.971V192.289L36.6213 192.545L36.6858 192.863V193.187L36.7474 193.57L36.8119 193.95L36.8764 194.336L36.9409 194.719L37.07 195.102L37.1316 195.488L37.3222 196.318L37.5128 197.149L37.7063 198.047L37.8324 198.43L37.9585 198.813L38.0876 199.261L38.2137 199.647L38.4043 200.029L38.5333 200.412L38.6624 200.798L38.8501 201.116L39.0436 201.434L39.1726 201.758C41.7826 206.297 45.5393 209.755 48.9763 209.755C52.035 209.755 52.7359 207.896 54.2022 207.131C54.2022 207.131 53.4368 203.163 49.9323 202.141C45.6654 200.798 39.1052 195.679 36.4307 190.816Z" fill="#0043FA"/>
<path d="M47.577 199.135L47.7676 199.005L47.8937 198.943L48.1518 198.749L48.2779 198.622L48.404 198.56L48.5301 198.431L48.6591 198.366L48.7881 198.236L48.9142 198.11L48.9787 198.048L49.0403 197.983L49.1048 197.918L49.2339 197.853L49.2984 197.791L49.36 197.724L49.4245 197.662L49.4861 197.6L49.5506 197.473L49.6796 197.406L49.7442 197.344L49.8087 197.214C49.8087 197.214 53.1196 198.431 55.8557 200.286C58.5302 202.142 61.2047 205.276 62.671 206.875C62.671 206.875 58.5947 207.897 55.9847 206.745C55.9847 206.745 55.0287 202.846 52.1606 201.117C51.5272 200.734 49.4861 200.092 47.577 199.135Z" fill="#0043FA"/>
<path d="M51.0165 195.807L51.0781 195.745L51.1426 195.615L51.2072 195.55L51.2717 195.424L51.3362 195.294L51.4007 195.168L51.4623 195.038L51.5884 194.911L51.6529 194.785L51.7145 194.655L51.7819 194.464L51.8435 194.337L51.9726 194.207L52.0371 194.016L52.0987 193.824L52.1632 193.695L52.2248 193.503L52.2922 193.312L52.3538 193.121L52.4213 192.926L52.4828 192.738L52.5444 192.546V192.29L52.6089 192.096V191.907L52.6705 191.651V191.395V191.203L52.735 190.947V190.691L52.6705 190.434V190.178C52.6705 190.178 58.4067 193.824 60.1222 195.168C61.7792 196.575 65.4097 200.287 66.1751 201.5C66.1751 201.5 61.8437 200.54 58.5328 199.453C54.8993 198.237 52.3538 196.575 51.0165 195.807Z" fill="#0043FA"/>
<path d="M60.696 202.011L61.0156 202.14L61.3353 202.202L61.652 202.332L62.0362 202.458L62.4174 202.523L62.7987 202.653L63.1828 202.714L63.6286 202.844L64.0098 202.971L64.4526 203.036L65.3471 203.227L66.3031 203.483L67.1946 203.675L68.1477 203.869L69.0421 204.058L69.9337 204.252L70.3794 204.314L70.8222 204.443L71.2064 204.508L71.5906 204.635L71.9718 204.697L72.353 204.764L72.6727 204.891L72.9894 204.956L73.3091 205.018L73.6258 205.144C76.4939 206.043 78.5965 207.451 81.3972 210.52C81.3972 210.52 77.1302 211.671 74.9015 212.44C74.9015 212.44 71.268 209.942 67.2562 208.473C64.6491 207.451 63.438 204.697 60.696 202.011Z" fill="#0043FA"/>
<path d="M67.1285 222.547L67.0024 222.418L66.8762 222.288L66.7501 222.1L66.6211 221.973L66.5566 221.905L66.4921 221.779L66.4305 221.714L66.366 221.649V221.522L66.3044 221.461L66.2399 221.331L66.1754 221.266V221.137L66.1108 221.075V220.948V220.818L66.0463 220.757V220.627V220.5V220.374V220.244V220.115V219.988L66.1108 219.861V219.732L66.1754 219.54L66.2399 219.414V219.219C66.7501 218.003 69.2311 216.595 70.759 215.891C73.3074 214.677 80.1873 212.822 82.4161 212.118C82.4161 212.118 83.4982 213.464 84.1375 214.872C84.3281 215.446 84.0085 215.959 83.0524 216.085C81.1433 216.471 76.4922 215.576 75.4101 216.342C74.2019 217.107 74.5831 218.194 74.5831 219.219C74.5831 219.219 72.4804 217.941 71.1432 218.262C69.2956 218.645 68.2135 219.54 67.1285 222.547Z" fill="#0043FA"/>
<path d="M73.3086 212.952H73.2471H73.1825L73.121 213.014H72.9919L72.9245 213.079H72.7984L72.6723 213.141L72.5432 213.206H72.4142L72.2265 213.27L72.1004 213.335L71.9039 213.397L71.7808 213.465L71.5901 213.527L71.3995 213.592L71.206 213.718L70.9508 213.783L70.7602 213.848L70.5696 213.977L70.3145 214.039L70.1238 214.166L69.8687 214.293L69.6781 214.36L69.4259 214.487L69.1678 214.614L68.9156 214.74L68.7221 214.87L68.4699 214.996L68.2147 215.126L67.9596 215.317L67.7045 215.447L67.4493 215.577C67.4493 215.577 66.3027 215.126 65.7308 214.039C65.159 213.014 62.7982 209.495 60.6956 209.05C60.6956 209.05 62.4815 208.92 63.5666 208.537C63.5666 208.537 65.7924 209.112 67.3848 209.819C68.9772 210.393 70.9508 211.418 73.3086 212.952Z" fill="#0043FA"/>
<path d="M55.5382 208.537H55.6027L55.6672 208.599H55.7288L55.7933 208.667H55.8549L55.9194 208.729H55.9839H56.0484L56.1129 208.794H56.1775H56.239L56.3036 208.855H56.4297H56.4913L56.5587 208.92H56.6877H56.7493L56.8754 208.985H56.9399H57.066H57.1306L57.2596 209.05H57.3857H57.5118H57.6408L57.7699 209.112H57.896H58.0837H58.2127C58.2127 209.112 64.3271 213.335 65.028 217.491C65.6028 221.137 63.7553 222.866 62.7993 223.314C61.9078 223.824 57.7024 225.488 54.8989 219.862C54.8989 219.862 59.5499 221.394 60.8872 219.155C62.1629 216.852 60.1218 213.527 58.7875 212.631C57.1306 211.353 54.0748 210.455 52.2918 210.841C52.2918 210.841 53.7551 209.433 55.5382 208.537Z" fill="#0043FA"/>
<path d="M95.2173 256.833L94.9035 255.681L94.6454 254.533L94.3258 253.316L94.1351 252.739L93.9445 252.165L93.8155 251.587L93.6249 250.948L93.4372 250.374L93.1821 249.797L92.9885 249.222L92.7334 248.648L92.4782 248.068L92.2231 247.493C89.5486 241.673 82.8007 226.128 68.7858 223.442C67.4485 223.124 70.2492 219.86 71.5278 220.052C72.7976 220.181 75.2844 221.843 76.4311 222.547V218.644C76.4927 218.07 77.0029 217.813 77.5132 217.813C78.0851 217.875 81.4605 217.813 82.5455 219.092C85.7303 222.8 91.141 232.782 94.1351 240.204C97.2554 247.623 99.3581 249.923 102.543 248.775C105.728 247.623 107.64 243.912 113.306 245.064C115.282 245.449 117.446 246.789 119.103 248.71C118.657 249.605 118.083 250.757 115.408 250.757C112.798 250.757 107.766 251.847 104.962 253.764C102.159 255.746 99.232 256.45 95.2173 256.833Z" fill="#0043FA"/>
<path d="M39.2975 208.73L39.1714 209.177L39.1069 209.625L38.9779 210.073L38.8518 210.518L38.7257 210.968L38.5996 211.416L38.4031 211.799L38.2154 212.247L38.0893 212.694L37.8312 213.142L37.6436 213.59L37.45 213.975L37.1949 214.423L37.0072 214.871L36.4969 215.766C36.4969 215.766 40.7638 235.532 56.2391 237.005C56.2391 237.005 55.9195 232.908 51.3358 229.839C46.7493 226.705 39.9339 221.842 40.4442 214.485C40.4442 214.485 41.5879 214.741 43.8196 217.492C45.9839 220.243 50.8285 228.24 58.2802 228.304C58.2802 228.304 57.1981 224.529 53.8843 222.417C50.5704 220.243 46.4325 217.492 44.5205 214.167C42.6084 210.903 40.5703 209.369 39.2975 208.73Z" fill="#0043FA"/>
<path d="M29.045 227.92L29.1066 228.176L29.2327 228.494L29.3588 228.815L29.5523 229.133L29.7429 229.519L29.9981 229.902L30.1916 230.35L30.5084 230.798L30.7635 231.245L31.0157 231.693L31.3353 232.144L31.655 232.653L31.9717 233.166L32.3559 233.675L33.0538 234.635L33.7547 235.66L34.4586 236.618L34.8398 237.13L35.2181 237.578L35.5407 238.028L35.9219 238.473L36.2386 238.921L36.5612 239.304L36.8779 239.689L37.1947 240.072L37.5143 240.39L37.831 240.65L38.0891 240.971L38.3413 241.162C40.8281 243.527 47.0687 249.798 50.4441 252.932C50.4441 252.932 40.9543 250.564 35.6023 245.701C35.6023 245.701 31.8456 247.875 29.1066 247.875H28.916C26.174 247.875 22.3557 245.701 22.3557 245.701C17.0683 250.564 7.5784 252.932 7.5784 252.932C10.8922 249.798 17.1299 243.527 19.6812 241.162C22.2296 238.859 28.089 230.544 28.9805 227.92H29.045Z" fill="#0043FA"/>
<path d="M29.0451 249.861H29.2328H29.4234L29.617 249.799H29.8076H29.9982H30.1917L30.573 249.734L30.9513 249.67L31.2739 249.543L31.6551 249.475L31.9718 249.349L32.356 249.287L32.6727 249.16L32.9279 249.031L33.2475 248.966L33.3765 248.901L33.5026 248.836L33.6287 248.774L33.7548 248.71L33.8839 248.648H34.01L34.1361 248.58L34.2651 248.518C33.1185 250.821 31.0158 254.594 29.0451 256.064H28.9806C26.9424 254.594 24.8398 250.821 23.6931 248.518C24.8398 249.031 26.8134 249.861 28.9161 249.861H29.0451Z" fill="#0043FA"/>
<path d="M37.1325 294L74.2034 241.8L77.9601 244.551L78.2123 232.331L67.0039 236.619L70.5083 239.179C68.7195 241.8 41.0153 280.758 37.5137 285.682L20.7628 255.107L18.6601 258.241L3.75665 280.946L0 278.455V290.48L11.3345 286.003L7.5133 283.382C9.61597 280.31 17.6425 268.028 20.3786 263.934L37.1325 294Z" fill="#0043FA"/>
<path d="M43.9483 273.463L42.9923 272.056L42.482 271.355L42.0363 270.651L41.5876 270.011L41.1447 269.308L40.699 268.665L40.3178 268.026L39.8691 267.387L39.4878 266.813L39.2972 266.557L39.1066 266.239L38.9776 265.979L38.7869 265.726L38.5993 265.467L38.4702 265.214L38.2767 264.957L38.1506 264.766L38.0215 264.51L37.8309 264.318L37.7048 264.127L37.5787 263.935C36.6843 265.661 34.7751 269.113 32.6725 272.889L29.998 268.156L37.2591 255.108L39.2972 258.242L46.7489 269.499L43.9483 273.463Z" fill="#0043FA"/>
<path d="M51.5894 276.854L54.2024 280.948L57.959 278.454L58.0206 290.479L46.6861 286.003L50.4428 283.381C50.0615 282.807 49.4868 281.909 48.7243 280.757L51.5894 276.854Z" fill="#0043FA"/>
<path d="M126.173 197.343L125.918 197.086L125.601 196.83L125.346 196.639L125.026 196.447L124.709 196.318L124.39 196.191L124.07 196.126L123.753 196.062L123.434 196H123.055L122.733 196.062H122.352L121.97 196.191L121.589 196.256L121.205 196.386L120.824 196.512L120.378 196.701L119.997 196.895L119.613 197.086L119.167 197.281L118.786 197.534L118.34 197.79L117.894 198.111L117.445 198.368L117.067 198.686L116.618 199.004L116.176 199.39L115.727 199.711L115.281 200.094L114.835 200.477L114.39 200.859L113.944 201.245C109.167 205.596 106.237 210.072 109.038 213.141C111.586 215.892 116.428 213.527 121.205 209.18C125.918 204.827 128.915 200.35 126.173 197.343Z" fill="#0043FA"/>
<path d="M118.466 251.075L118.528 251.013H118.592V250.948H118.657V250.886H118.721V250.821H118.786L118.85 250.759H118.912V250.692H118.976C121.46 248.453 122.859 245.063 122.859 241.352C122.859 234.189 117.129 228.369 109.932 228.369C102.865 228.369 97.067 234.189 97.067 241.352C97.067 242.312 97.2576 243.85 97.2576 243.85C96.7473 242.763 94.5801 237.835 94.1344 236.94C96.0464 229.968 102.416 224.849 109.932 224.849C116.49 224.849 122.097 228.622 124.771 234.124C123.754 227.597 120.504 221.713 118.211 219.539C115.472 216.915 110.827 216.084 110.827 216.084C113.882 216.532 117.894 214.679 122.416 210.518C126.683 206.556 128.915 203.098 129.038 200.221C128.786 204.315 128.915 206.556 130.059 209.943C131.651 214.423 135.856 222.738 134.39 232.142C133.56 237.323 129.804 244.998 123.563 251.266C122.223 252.674 121.712 254.786 121.586 255.873C121.586 255.873 112.352 255.873 110.249 256.064C110.249 256.064 108.02 255.873 108.085 254.465C108.085 253.122 109.36 252.803 110.378 252.803C111.525 252.803 116.047 252.865 118.466 251.075Z" fill="#0043FA"/>
<path d="M57.9584 253.764L56.4921 252.933L55.0287 252.035L53.5653 251.075L52.1606 250.053L50.6973 248.966L49.2339 247.811L47.8321 246.598L46.4303 245.319L45.0315 243.976L43.6268 242.504L42.2279 241.034L40.8907 239.435L39.5534 237.706L38.2161 235.98L36.8789 234.124L36.2396 233.167L35.5387 232.142L34.3275 230.095C36.2396 230.926 38.5974 230.351 38.5974 230.351C38.788 230.543 39.0431 231.055 39.1722 231.244C45.6679 240.778 52.7999 246.854 60.061 250.756L57.9584 253.764Z" fill="#0043FA"/>
<path d="M67.6379 254.21L68.7201 254.596L69.8697 254.979L70.9518 255.297L72.0984 255.621L73.1835 255.939L74.2656 256.257L75.4093 256.513L76.4944 256.769L77.5765 257.026L78.6586 257.217L79.7408 257.409L80.8229 257.6L82.9871 257.983L85.0898 258.307C88.7204 258.881 92.2893 259.07 95.6647 258.943C95.6647 259.52 95.6647 260.224 95.9199 260.799C95.9199 260.799 95.3451 261.567 95.3451 262.528C91.8436 262.592 88.213 262.463 84.518 261.824C78.4035 260.863 71.9723 259.65 65.4737 257.217L67.6379 254.21Z" fill="#0043FA"/>
<path d="M109.677 257.089H109.806H109.932H110.058H110.187H110.378L110.569 257.027H110.698H110.888H111.079H111.269H111.525H111.712H111.97H112.161H112.607L113.117 257.089H113.563L114.073 257.154H114.516L115.026 257.218H115.22H115.475L115.665 257.28H115.918L116.108 257.345H116.302C118.531 257.663 121.079 258.176 121.396 259.392C121.651 260.606 120.824 261.887 119.674 263.678C118.976 264.764 117.319 264.19 116.363 263.804C115.407 263.421 110.12 260.606 109.234 259.648C108.401 258.753 108.085 257.407 109.677 257.089Z" fill="#0043FA"/>
<path d="M104.327 260.669L104.389 260.608V260.543H104.456L104.583 260.481H104.644L104.709 260.416L104.77 260.354H104.838L104.964 260.287H105.028L105.154 260.225H105.219L105.345 260.16H105.474H105.539L105.665 260.095H105.791H105.855L105.981 260.03H106.11H106.237H106.363H106.492H106.621H106.747H106.873L107.002 260.095H107.131L107.257 260.16H107.383L107.512 260.225H107.641C109.105 260.799 114.325 263.933 114.709 265.341C115.026 266.813 114.325 267.579 113.562 267.9C112.671 268.218 111.715 268.539 110.952 268.601C109.676 268.666 108.404 267.9 107.767 267.067C107.066 266.239 104.644 263.294 104.327 262.59C103.946 262.015 103.753 260.99 104.327 260.669Z" fill="#0043FA"/>
<path d="M103.625 263.869L103.687 263.934L103.816 264.06L103.88 264.128L103.945 264.255L104.071 264.381L104.197 264.511L104.262 264.64L104.391 264.767L104.52 264.894L104.646 265.085L104.772 265.215L104.901 265.341L105.153 265.66L105.408 265.981L105.663 266.302L105.728 266.428L105.854 266.558L105.983 266.684L106.112 266.814L106.174 266.941L106.3 267.067L106.364 267.197L106.493 267.327L106.555 267.388L106.619 267.515L106.684 267.58L106.745 267.645V267.709L106.81 267.771C107.001 268.157 106.619 268.858 105.983 268.731C105.279 268.667 101.716 268.284 99.6779 266.876C97.5752 265.468 96.235 262.782 97.6397 261.76C99.0415 260.738 101.27 261.247 103.625 263.869Z" fill="#0043FA"/>
<path d="M102.48 256.002H102.541H102.668L102.735 255.94H102.864H102.926L103.052 255.872H103.178L103.307 255.81H103.436H103.562L103.753 255.745H103.882L104.072 255.683H104.198H104.327H104.518L104.644 255.619H104.838H104.964H105.154H105.28H105.41H105.539L105.665 255.683H105.791L105.92 255.745H106.049L106.11 255.81H106.175H106.236V255.872H106.301L106.363 255.94L106.43 256.002L106.492 256.063C107.193 257.218 106.685 258.37 104.583 259.392C102.48 260.417 98.4681 261.247 97.7026 260.16C96.9372 259.071 98.0194 257.218 102.48 256.002Z" fill="#0043FA"/>
</svg>
