<svg width="207" height="294" viewBox="0 0 207 294" fill="none" xmlns="http://www.w3.org/2000/svg">
<path d="M68.1519 114.183L68.3425 114.057L68.4686 113.992L68.6622 113.865L68.8528 113.8L69.0434 113.671L69.3015 113.609L69.4892 113.479L69.6798 113.353L69.8734 113.288L70.1256 113.158L70.3162 113.096L70.5713 112.967L70.8265 112.84L71.0816 112.775L71.3367 112.649L71.5919 112.584C62.1636 109.768 49.2983 105.162 29.8728 103.883C15.6702 102.926 5.47947 103.757 0.130417 105.162C0.130417 105.162 13.1218 114.313 27.8991 117.573C42.6736 120.772 54.7118 118.725 63.5038 118.79C64.0756 117.894 64.712 116.999 65.7325 115.974C55.4802 116.039 38.4066 113.414 32.2306 111.367C32.2306 111.367 47.134 108.169 68.1519 114.183Z" fill="#0043FA"/>
<path d="M68.0889 103.118V103.18V103.245L68.1505 103.31V103.437L68.2179 103.563L68.2795 103.758V103.949L68.4056 104.14L68.4701 104.397L68.5317 104.588L68.6608 104.909L68.7898 105.162L68.9159 105.419L69.1065 105.74L69.2356 106.061L69.4262 106.379L69.6168 106.7L69.8719 107.018L70.1241 107.404L70.3822 107.722L70.6344 108.043L70.957 108.426L71.2737 108.747L71.6549 109.13L72.0391 109.451L72.4204 109.769L72.7987 110.09L73.3089 110.473L73.7576 110.729L74.265 111.05L74.7752 111.368L75.35 111.625C62.1621 105.869 36.2439 102.541 22.229 96.6564C3.44283 88.8513 -3.8147e-05 79.0021 -3.8147e-05 79.0021C16.3081 78.5545 29.5546 82.5837 39.6809 85.7175C51.5901 89.3638 69.6813 96.1439 76.0509 99.0215C73.6315 99.0863 71.0186 99.7284 68.8543 101.263C59.9979 97.8728 55.86 96.4002 47.8335 94.0969C41.4639 92.3062 36.8157 91.9881 32.8655 91.6022C32.8655 91.6022 38.4081 95.3133 47.5813 98.2557C56.7515 101.198 60.6988 101.711 68.0889 103.118Z" fill="#0043FA"/>
<path d="M67.0691 88.6609V88.7257L67.1306 88.8523L67.1981 88.979L67.2597 89.0438L67.3858 89.1704L67.4503 89.3L67.5119 89.4267L67.5793 89.5563L67.7084 89.6829L67.77 89.8125L67.9606 90.1335L68.1512 90.4516L68.4063 90.7079L68.5969 91.026L68.7905 91.2822L68.8521 91.4766L68.9782 91.6033L69.0427 91.7299L69.1717 91.8595L69.2333 91.9862L69.3623 92.1157L69.4269 92.2424L69.4884 92.369L69.553 92.4338L69.6146 92.5634L69.7436 92.6253L69.811 92.7549C48.9808 89.2352 26.0509 73.4365 18.9833 63.5844C11.8483 53.8001 13.8835 39.1501 13.8835 39.1501C20.7634 40.555 35.6668 53.479 39.5555 57.3786C43.3766 61.2193 55.0953 72.6678 63.1834 79.065L65.6673 86.3576C58.7903 80.7939 50.5732 74.5881 45.4793 70.6856C41.4646 67.6784 35.6668 63.5196 29.743 61.4756C29.743 61.4756 35.1595 68.5119 39.4909 71.9668C44.5233 75.996 49.6817 79.4509 53.8871 81.7512C57.5821 83.7982 59.5528 85.0146 67.0691 88.6609Z" fill="#0043FA"/>
<path d="M72.1011 63.8395V64.1605V64.5434V64.9293V65.2474V65.6303V66.0161V66.4638V66.8467L72.2888 69.2147C67.2623 62.7527 61.2095 54.9476 55.4792 47.7198C51.4645 42.7952 48.1536 39.8528 44.4585 37.42C47.5817 46.5681 53.183 53.8608 57.1332 57.4423C61.0804 61.0886 66.8137 67.2296 72.4178 71.0055L72.9281 72.7962C73.4384 74.5222 74.0777 76.2511 74.9692 77.9122C76.3065 80.2184 78.025 82.4539 79.9986 84.6953C78.4062 83.8618 76.5616 82.9664 74.6495 82.1977L72.9281 81.4319C57.5819 73.3087 42.2942 56.2906 36.1769 44.5211C29.8747 32.6869 32.4818 18.997 34.1416 11.6425C41.1476 17.5921 51.2123 29.2968 55.5437 35.6292C60.9543 43.4343 67.8342 54.5647 72.1011 63.5862V63.8395Z" fill="#0043FA"/>
<path d="M94.0096 71.2599L94.6489 72.6029L95.3498 73.8842L96.0478 75.2272L96.8806 76.6321L97.3235 77.2742L97.7663 77.9752L98.2765 78.6821L98.7868 79.3831L99.2971 80.087L99.8689 80.7909L100.508 81.4949L101.148 82.1988L101.781 82.9675L102.482 83.6715L103.183 84.4372L103.948 85.206L104.775 85.9718L105.602 86.7405L106.497 87.5092L107.45 88.3398L108.406 89.1085L109.423 89.9391L110.444 90.7697L111.526 91.668L112.673 92.4986L113.884 93.394L115.157 94.2245L116.432 95.1229C119.614 97.2965 123.119 101.838 120.444 108.171C117.769 114.568 112.802 123.522 115.793 127.041C118.787 130.558 129.424 132.349 138.084 128.897C138.084 128.897 139.934 134.399 143.057 137.915C143.057 137.915 141.526 140.923 136.559 139.388C136.559 139.388 138.406 143.93 135.858 148.79C135.858 148.79 130.06 147.768 127.576 142.392C127.576 142.392 125.283 146.616 120.635 148.086C120.635 148.086 116.749 146.103 117.643 138.428C117.643 138.428 114.84 145.273 106.112 146.424C106.112 146.424 101.148 140.092 107.64 131.583C107.64 131.583 102.992 135.742 94.5199 133.757C94.5199 133.757 93.1856 129.406 100.825 123.395C100.825 123.395 92.165 123.009 88.8512 115.719C88.8512 115.719 92.5463 111.178 101.526 112.2C101.526 112.2 93.1856 110.347 91.3351 100.366C91.3351 100.366 97.3235 96.5278 106.813 102.669C106.813 102.669 105.156 99.4702 101.148 96.2715C97.1944 93.2025 92.3556 84.3106 94.0096 71.2599Z" fill="#0043FA"/>
<path d="M128.789 172.011L128.531 171.693L128.343 171.372L128.149 171.051L127.894 170.73L127.707 170.412L127.51 170.094L127.322 169.837L127.135 169.516L126.938 169.198L126.812 168.877L126.624 168.556L126.495 168.238L126.302 167.982L126.176 167.661L126.047 167.34L125.918 167.022C127.384 179.177 127.894 187.365 134.457 195.232C134.457 195.232 138.405 189.989 135.856 177.195C134.713 176.871 133.566 176.361 132.355 175.528C132.355 175.528 133.818 180.712 132.927 185.954C132.927 185.954 130.569 184.228 128.789 172.011Z" fill="#0043FA"/>
<path d="M117.513 170.731L117.384 170.67L117.323 170.54L117.258 170.413L117.196 170.349L117.07 170.219L117.003 170.092L116.874 169.963L116.812 169.836L116.686 169.709L116.622 169.518L116.367 169.262L116.176 168.941L115.985 168.62L115.73 168.302L115.54 167.98L115.349 167.662L115.155 167.341L114.968 167.088L114.774 166.764L114.645 166.576L114.584 166.446L114.519 166.319L114.457 166.19C113.886 173.226 112.035 191.779 118.214 197.599C118.214 197.599 122.481 194.465 123.947 167.406C123.056 168.941 121.463 170.54 120.763 171.435C120.763 171.435 121.78 180.006 118.724 186.085C118.724 186.085 115.604 183.717 117.513 170.731Z" fill="#0043FA"/>
<path d="M102.739 184.931L103.249 184.357L103.692 183.653L104.138 182.887L104.519 182.054L104.968 181.22L105.284 180.328L105.666 179.368L105.985 178.408L106.305 177.383L106.622 176.361L106.877 175.336L107.196 174.249L107.642 172.137L107.897 171.118L108.088 170.093L108.278 169.068L108.408 168.111L108.598 167.151L108.724 166.19L108.85 165.295L108.979 164.464L109.108 163.696L109.17 162.992L109.235 162.288L109.296 161.713L109.361 161.454V161.201L109.422 160.942V160.753V160.562L109.49 160.432V160.241V160.179V160.049V159.985V159.923C110.255 159.472 110.953 158.898 111.654 158.323C111.971 158.067 112.293 157.873 112.545 157.555C112.545 158.256 112.545 158.963 112.674 159.666C111.845 170.923 110.953 182.566 107.449 188.389C104.012 194.08 97.7035 197.022 97.7035 197.022C91.7826 186.404 98.9147 172.205 104.968 162.288C105.73 162.032 106.434 161.713 107.196 161.328C105.094 168.938 101.146 177.96 102.739 184.931Z" fill="#0043FA"/>
<path d="M88.0238 152.371V152.501V152.631V152.819V153.075V153.27L88.0854 153.458V153.653V153.717V153.844L88.1499 153.906V154.036V154.1V154.162L88.2115 154.23V154.357V154.418V154.483L88.2789 154.545V154.613V154.675V154.74L88.3405 154.804V154.869V154.931V154.996V155.058L88.408 155.125C88.4696 155.252 88.5341 155.57 88.6602 155.891C83.6924 160.689 80.0002 165.422 72.6746 175.657C65.349 185.954 53.6274 186.34 53.6274 186.34C54.7741 178.022 57.0703 171.437 63.3108 164.4C69.4898 157.299 77.5134 150.837 83.3111 146.552C84.839 147.255 86.8156 147.703 89.2995 147.385C89.5517 147.385 89.6778 147.32 89.8713 147.32C89.1059 148.342 88.5957 149.364 88.3405 150.327C83.9446 152.884 71.0177 159.473 65.7947 170.026C65.7947 170.026 73.9474 167.469 88.0238 152.371Z" fill="#0043FA"/>
<path d="M78.7885 142.074L79.2988 141.114C79.4278 140.858 79.6155 140.602 79.809 140.346C75.0318 142.201 57.9583 148.66 52.4216 151.541C46.8789 154.418 38.917 160.942 34.5855 174.249C34.5855 174.249 46.1135 175.271 55.6063 167.339C65.0962 159.472 76.1785 148.407 80.9557 144.887C80.4454 144.504 80.0642 144.057 79.809 143.674C79.809 143.674 66.9408 155.125 53.3101 160.05C53.3101 160.05 56.2427 154.804 61.6534 150.902C68.152 146.233 73.0582 144.696 78.7885 142.074Z" fill="#0043FA"/>
<path d="M69.0424 134.205L69.104 134.078L69.1714 133.887L69.233 133.695L69.362 133.566L69.4265 133.374L69.4881 133.183L69.5526 133.053L69.6142 132.862C64.013 134.078 49.872 135.739 43.564 137.66C37.3264 139.58 25.9244 144.249 19.1707 157.17C19.1707 157.17 29.1093 160.242 47.8339 151.414C66.4969 142.587 72.3562 140.732 75.9222 139.772C73.0571 139.58 71.0189 138.62 69.9984 137.981C62.5467 141.306 52.6081 145.273 42.6754 145.53C42.6754 145.53 47.5817 142.075 52.7372 139.901C58.2798 137.533 64.3942 135.421 69.0424 134.205Z" fill="#0043FA"/>
<path d="M69.4894 124.865L69.809 125.057L70.1257 125.187L70.5099 125.313L70.8266 125.508L71.1434 125.569L71.4659 125.699L71.7827 125.826L72.1023 125.89L72.419 126.017L72.8003 126.082L73.1199 126.147L73.5012 126.209L73.8824 126.273L74.076 126.338H74.2666H74.5217L74.7123 126.4H74.9029L75.161 126.465C73.8824 127.298 72.6097 128.385 71.4659 129.793C64.9057 131.71 53.6915 133.757 35.1604 135.103C16.6264 136.508 6.7524 133.053 6.7524 133.053C13.1865 129.089 23.5034 125.057 30.4478 123.714C37.3892 122.371 55.6681 122.562 63.6916 121.411C63.8207 121.54 64.7122 122.309 66.3691 123.266C59.6183 123.908 45.2222 124.547 37.835 128.256C37.835 128.256 51.4657 130.111 69.4894 124.865Z" fill="#0043FA"/>
<path d="M125.856 147.255L126.047 146.998L126.176 146.937L126.302 146.807L126.428 146.68L126.495 146.615L126.624 146.486L126.686 146.424L126.812 146.294L126.877 146.168L127.006 146.103L127.067 145.976L127.196 145.912L127.261 145.785L127.384 145.72L127.449 145.593C128.469 146.872 131.654 150.901 133.246 154.93C134.39 158.323 135.73 162.991 136.305 165.613C137.003 168.364 138.853 173.866 139.997 175.786C139.997 175.786 134.965 176.49 131.205 172.01C127.51 167.725 126.176 163.377 125.668 158.897C125.22 155.381 125.346 150.518 125.856 147.255Z" fill="#0043FA"/>
<path d="M117.831 147.895L117.893 148.021L118.022 148.151L118.086 148.216L118.151 148.342L118.277 148.472L118.341 148.534L118.403 148.599L118.532 148.728L118.597 148.79L118.661 148.855L118.726 148.92L118.852 149.046L118.913 149.111L118.978 149.173H119.042L119.107 149.241L119.171 149.303L119.236 149.367L119.297 149.432H119.359L119.424 149.494H119.485L119.55 149.559L119.614 149.621H119.679V149.685H119.743H119.808V149.747L120.444 150.071L121.207 149.877C121.781 149.621 122.356 149.367 122.928 149.173C123.629 151.158 123.949 152.183 124.136 153.971C124.391 156.274 124.837 159.92 123.949 162.928C122.863 166.574 120.764 168.75 119.55 170.22C119.55 170.22 116.177 166.512 115.283 163.502C114.265 160.368 113.884 156.657 115.157 152.884C115.793 150.84 116.875 148.984 117.831 147.895Z" fill="#0043FA"/>
<path d="M106.367 148.215L106.684 148.15H107.007L107.32 148.086L107.643 148.024L108.215 147.894L108.787 147.767L109.362 147.576L109.869 147.446L110.379 147.255L110.889 147.064L111.4 146.807L111.845 146.616L112.294 146.36L112.737 146.168L113.118 145.912L113.564 145.656L113.948 145.399L114.265 145.143C114.711 146.295 115.412 147.959 114.901 150.197C114.394 152.501 112.802 155.125 110.505 156.916C107.133 159.667 102.543 162.223 97.5139 161.393C97.5139 161.393 96.3027 157.617 106.367 148.215Z" fill="#0043FA"/>
<path d="M102.544 141.882L102.609 142.2L102.673 142.521L102.738 142.777V143.098L102.802 143.354L102.864 143.608L102.99 143.929L103.054 144.185L103.119 144.441L103.183 144.632L103.312 144.889L103.374 145.142L103.438 145.336L103.565 145.528L103.629 145.719L103.755 145.911L103.823 146.105L103.884 146.297L104.01 146.423L104.072 146.55L104.136 146.741L104.201 146.871L104.33 146.936L104.394 147.062L104.456 147.192L104.521 147.254V147.319L104.582 147.383L104.647 147.448V147.51H104.711V147.575C103.565 148.983 99.2331 156.337 90.3151 155.124C90.3151 155.124 87.9602 150.07 93.884 146.105C97.8958 143.354 99.805 142.842 102.544 141.882Z" fill="#0043FA"/>
<path d="M103.374 135.548L102.929 135.678L102.418 135.805L101.908 135.87L101.398 135.934L100.888 135.996L100.38 136.061H99.8054L99.2336 136.126H98.6617L98.0253 136.061H97.4506L96.8142 135.996L96.4945 135.934H96.1104L95.7936 135.87L95.4769 135.805L95.1573 135.74L94.776 135.678L94.4564 135.613L94.1397 135.487L93.1191 135.295L92.7379 134.27C88.2129 138.046 82.7377 138.682 80.8902 142.075C80.8902 142.075 83.1835 146.296 89.1073 145.53C95.0282 144.823 99.4887 142.075 102.673 138.046C102.803 137.469 103.055 136.382 103.374 135.548Z" fill="#0043FA"/>
<path d="M93.0559 130.305L93.1175 130.175L93.185 130.048L93.3726 129.792L93.4987 129.536L93.6278 129.215L93.8213 128.959L93.9474 128.64L94.1381 128.319L94.3316 128.001L94.4577 127.68L94.6483 127.297L94.7774 127.106L94.9035 126.976L94.965 126.785L95.0911 126.593L95.2202 126.402L95.3492 126.272L95.4753 126.081L95.6014 125.889L95.795 125.698L95.924 125.507L96.1117 125.315L96.2407 125.186C92.355 124.482 88.789 124.352 84.2024 125.315C78.7243 126.337 73.1202 127.615 70.3166 135.933C70.3166 135.933 73.8826 139.002 80.2522 137.659C85.6042 136.572 90.3814 134.204 93.0559 130.305Z" fill="#0043FA"/>
<path d="M90.7617 121.22L90.5095 120.963L90.2514 120.772L89.9992 120.516L89.7412 120.259L89.489 120.003L89.2338 119.685L89.0432 119.429L88.7881 119.173L88.5975 118.855L88.3423 118.533L88.1488 118.212L87.9611 117.894L87.7675 117.511L87.5769 117.19L87.3892 116.805L87.1957 116.422L86.7499 115.4C81.9727 113.479 77.0665 112.457 72.2277 114.248C67.386 116.104 66.1162 118.212 64.905 120.003C64.905 120.003 70.2541 124.545 76.3685 124.739C82.5475 124.866 88.2778 123.075 90.7617 121.22Z" fill="#0043FA"/>
<path d="M92.1653 111.434L92.482 111.307L92.6756 111.242H92.8017L92.9894 111.178L93.1184 111.116L93.312 111.051L93.4996 110.986H93.6932L93.8193 110.921L94.0099 110.86H94.2005L94.3941 110.795L94.5818 110.73H94.7783L94.9659 110.665C92.8017 108.81 90.8251 105.997 89.8046 101.711C87.5142 102.221 82.4203 102.221 80.127 101.39C77.8337 100.495 73.3762 100.43 69.8717 102.798C69.8717 102.798 71.0184 108.874 78.9804 110.986C86.3676 112.968 89.1711 112.459 92.1653 111.434Z" fill="#0043FA"/>
<path d="M89.362 99.4712L90.3825 98.7673C90.5116 98.7025 92.2916 97.6157 95.2888 97.4242C92.7374 95.442 86.6875 90.326 82.4205 87.958C77.7049 85.3337 69.9365 81.7522 65.9863 81.2397C65.9863 81.2397 69.6813 91.027 74.0128 94.9914C78.4703 99.0884 81.5935 100.623 89.362 99.4712Z" fill="#0043FA"/>
<path d="M97.3231 94.9292L96.9419 94.4815L96.6222 93.969L96.3026 93.4565L95.9859 92.947L95.6691 92.3697L95.3495 91.7954L95.0298 91.2181L94.7776 90.579L94.5196 89.9398L94.2028 89.3007L93.9477 88.6616L93.6955 87.9576L93.499 87.2537L93.2468 86.5498L93.0562 85.781L92.8011 85.0771C91.9741 81.7518 89.8714 73.6905 88.6602 71.5168C87.452 69.4051 83.0561 62.1124 74.5222 59.8092C74.5222 59.8092 72.2905 69.3403 76.5604 77.0187C80.317 83.5426 87.8978 90.4494 97.3231 94.9292Z" fill="#0043FA"/>
<path d="M144.711 139.58L144.964 139.771L145.154 139.963L145.348 140.154L145.535 140.284L145.732 140.475L145.92 140.602L146.113 140.796L146.304 140.923L146.556 141.052L146.814 141.244L146.876 141.306L147.002 141.371L147.128 141.435L147.257 141.562L147.45 141.627L147.577 141.689L147.706 141.753L147.829 141.883L148.022 141.945L148.148 142.01L148.339 142.139L148.533 142.201C148.533 142.201 151.207 147.447 147.958 153.717C144.647 160.05 141.84 166.512 140.506 170.093C140.506 170.093 138.723 169.837 136.749 159.923C135.409 153.27 133.691 151.541 131.972 149.302C133.946 150.259 135.474 150.519 135.603 150.519L136.875 150.84L137.512 149.558C138.723 147.32 139.04 145.143 139.04 143.353C139.04 142.714 138.978 142.139 138.914 141.627C141.969 141.753 143.691 140.154 144.266 139.388C144.327 139.259 144.327 139.259 144.453 139.197L144.711 139.58Z" fill="#0043FA"/>
<path d="M91.7817 157.106L91.1454 157.745L90.509 158.387L89.8052 159.091L89.1072 159.857L88.3418 160.623L87.6409 161.456L86.8169 162.352L86.0485 163.247L85.2245 164.207L84.4561 165.164L83.6321 166.189L82.7992 167.214L82.0397 168.301L81.2713 169.45L80.4473 170.604L79.7464 171.756L78.981 172.972L78.2801 174.186L77.5762 175.402L76.9399 176.681L76.368 177.959L75.7962 179.305L75.2859 180.583L74.8401 181.991L74.3915 183.331L74.0777 184.677L73.758 186.085L73.5029 187.49L73.3768 188.901L73.3093 190.37V191.775L73.3768 193.248C73.3768 193.248 85.7963 189.345 90.8902 180.2C95.9871 171.117 99.1074 165.294 101.272 163.247C99.9343 163.438 98.5355 163.438 97.1953 163.247L96.0487 163.056C92.8639 168.814 86.6878 178.28 81.0836 181.543C81.0836 181.543 79.6173 173.865 96.1132 158.387C96.3683 157.745 96.685 157.044 97.1953 156.275C95.6674 156.85 93.946 157.106 91.9724 157.044" fill="#0043FA"/>
<path d="M187.704 33.5209V33.3913L187.639 33.2646L187.575 33.1998L187.51 33.0732L187.384 33.0084L187.258 32.8788L187.129 32.817L186.936 32.6874L186.748 32.6226L186.554 32.4959L186.299 32.4311L186.047 32.3663L185.792 32.2397L185.472 32.1749L185.156 32.113L184.833 32.0482L184.519 31.9864L184.2 31.9216L183.818 31.8568L183.437 31.792L183.053 31.7301L182.607 31.6653L182.226 31.6005H181.777L181.334 31.5357L180.889 31.4739H180.44H179.933L179.484 31.4091H178.974H178.531H178.021C172.672 31.4091 168.337 32.3663 168.337 33.5209C168.337 34.6077 172.672 35.5649 178.021 35.5649C183.37 35.5649 187.704 34.6077 187.704 33.5209Z" fill="#0043FA"/>
<path d="M176.111 37.9978V38.1244V38.254V38.3188V38.4455L176.172 38.5073V38.6369L176.237 38.7017V38.8284L176.298 38.8932V38.958L176.363 39.0198L176.427 39.1494L176.492 39.2142L176.556 39.276L176.621 39.3408L176.683 39.4056L176.747 39.4704L176.809 39.5323L176.873 39.5971L176.938 39.6619L177.002 39.7237H177.067L177.193 39.7885L177.257 39.8533H177.319L177.448 39.9152H177.512H177.639L177.703 39.98H177.829H177.891H178.02C179.04 39.98 179.932 39.1494 179.932 37.9978C179.932 37.0376 179.04 36.1422 178.02 36.1422C176.938 36.1422 176.111 37.0376 176.111 37.9978Z" fill="#0043FA"/>
<path d="M182.48 29.8105L182.351 29.7457H182.225H182.034H181.908L181.586 29.681H181.269H180.952H180.633L179.993 29.6191C180.568 25.4603 181.97 18.6154 182.797 15.8645C183.627 13.1135 184.709 11.1961 186.492 10.6836C186.492 10.6836 185.093 14.4566 184.325 18.3591C183.562 22.2617 183.052 26.0994 182.48 29.8105Z" fill="#0043FA"/>
<path d="M190.759 61.6013H190.695H190.63H190.568H190.504H190.378H190.249L190.12 61.6632H189.994H189.806H189.61H189.422L189.231 61.728H189.038H188.85L188.595 61.7928H188.401L188.146 61.8576H187.956L187.703 61.9194L187.445 61.9842L187.258 62.049L187.002 62.1138H186.809L186.554 62.2405L186.363 62.3053L186.111 62.3701L185.917 62.4319L185.727 62.5615L185.536 62.6263L185.343 62.753L185.155 62.8178C182.862 64.3523 180.694 67.6157 179.867 71.5801C179.867 71.5801 183.75 70.9409 185.601 69.0235C187.51 67.168 189.806 64.2875 190.759 61.6013Z" fill="#0043FA"/>
<path d="M186.238 77.5302V77.5921L186.176 77.6569V77.7217L186.112 77.7835V77.8483L186.047 77.9131L185.982 77.975V78.1046L185.918 78.2312L185.792 78.4256L185.666 78.6819L185.537 79L185.343 79.321L185.217 79.6391L185.029 80.0249L184.833 80.343L184.645 80.7289L184.519 81.1736L184.326 81.5594L184.135 81.9423L183.88 82.39L183.499 83.2854L183.179 84.1189L182.991 84.5666L182.798 84.9495L182.607 85.3324L182.481 85.7801L182.352 86.1659L182.226 86.484L182.097 86.8699L181.971 87.1879L181.906 87.509L181.777 87.7652C181.141 90.6428 181.777 92.4984 183.053 94.2243C184.326 95.9532 186.493 97.8706 188.528 101.455C188.528 101.455 190.821 98.3831 191.141 96.7838C191.399 95.1226 190.95 91.2819 190.443 89.6826C189.933 88.0833 187.956 82.8377 186.238 77.5302Z" fill="#0043FA"/>
<path d="M184.9 134.141L184.771 134.398L184.645 134.716L184.454 135.037L184.325 135.358L184.135 135.676L183.944 135.997L183.689 136.315L183.498 136.636L183.053 137.275L182.607 137.914L182.097 138.557L181.651 139.196L181.205 139.835L180.95 140.091L180.759 140.409L180.566 140.73L180.378 141.051L180.188 141.307L179.994 141.626L179.868 141.882L179.742 142.2L179.613 142.456L179.484 142.712L179.422 142.969L179.358 143.225V143.481L179.296 143.673C179.422 150.196 182.287 154.164 182.927 156.337C182.927 156.337 188.085 152.182 188.977 147.448C189.484 145.016 188.977 137.723 184.9 134.141Z" fill="#0043FA"/>
<path d="M185.41 168.174V168.236H185.471V168.301L185.536 168.363L185.6 168.427L185.665 168.492L185.726 168.557L185.791 168.687L185.852 168.748L185.982 168.875L186.046 169.005L186.175 169.131L186.363 169.388L186.556 169.709L186.811 170.027L187.064 170.348L187.319 170.731L187.574 171.116L187.894 171.499L188.149 171.947L188.465 172.398L188.721 172.842L189.037 173.29L189.295 173.738L189.548 174.25L189.806 174.698L190.058 175.146L190.313 175.658L190.504 176.106L190.694 176.554L190.888 177.066L191.014 177.514L191.204 177.958L191.269 178.344L191.333 178.792L191.398 178.983V179.175V179.369V179.558C191.204 184.485 187.955 187.684 187.509 190.753C187.509 190.753 184.26 187.11 183.052 184.68C181.715 181.861 180.632 179.558 181.014 176.424C181.398 173.29 182.225 171.308 185.41 168.174Z" fill="#0043FA"/>
<path d="M135.41 44.7139V44.6521L135.471 44.5873V44.5225L135.539 44.4606L135.6 44.3958L135.668 44.3311H135.794L135.92 44.2663L136.049 44.2044L136.178 44.1396H136.304L136.492 44.0748L136.621 44.01L136.814 43.9482H137.002L137.26 43.8834H137.448L137.703 43.8186L137.896 43.7538H138.152L138.404 43.6919H138.656H138.914L139.234 43.6271H139.489H139.806L140.061 43.5623H140.377H140.697H141.017H141.336H141.653C145.093 43.5623 147.897 44.0748 147.897 44.7139C147.897 45.3531 145.093 45.8037 141.653 45.8037C138.213 45.8037 135.41 45.3531 135.41 44.7139Z" fill="#0043FA"/>
<path d="M177.955 25.46L177.894 25.2037L177.829 24.8827L177.767 24.5646L177.703 24.2435L177.577 23.9254L177.448 23.6044L177.319 23.2215L177.193 22.8357L177.067 22.4528L176.938 22.0699L176.621 21.3012L176.301 20.4706L175.984 19.6371L175.665 18.8713L175.345 18.0378L175.216 17.6549L175.028 17.272L174.899 16.8861L174.838 16.5032L174.709 16.1851L174.583 15.7993L174.518 15.4812L174.457 15.1602L174.392 14.8421L174.328 14.521V14.2648V14.0086C174.328 11.9616 175.984 10.3004 178.02 10.3004C180.058 10.3004 181.715 11.9616 181.715 14.0086C181.715 16.6299 178.465 22.6442 178.084 25.46H177.955Z" fill="#0043FA"/>
<path d="M167.639 31.4727L167.32 30.7039L167.003 30L166.745 29.3609L166.431 28.6569L166.173 28.0178L165.921 27.3139L165.663 26.6747L165.411 26.1004L165.153 25.4583L164.965 24.884L164.71 24.3067L164.519 23.7324L164.264 23.158L164.07 22.6455L163.883 22.133L163.689 21.6206L163.56 21.1081L163.373 20.6633L163.246 20.2156L163.117 19.765L162.988 19.3821L162.862 18.9992L162.736 18.6163L162.672 18.2305L162.543 17.9124L162.478 17.5914L162.416 17.2733V17.017L162.352 16.7608V16.5045V16.3131V16.1216C162.352 14.9671 163.754 14.1365 164.965 13.7536C166.364 13.3707 167.449 13.2411 168.337 13.8803C169.994 15.2233 171.522 25.5879 172.161 29.9381C170.505 30.2562 169.487 30.5125 167.639 31.4727Z" fill="#0043FA"/>
<path d="M173.499 29.8105L173.687 29.7457H173.816H174.009H174.135L174.455 29.681H174.772H175.091H175.408L175.728 29.6191H175.986C175.476 25.4603 174.071 18.6154 173.244 15.8645C172.352 13.1135 171.335 11.1961 169.549 10.6836C169.549 10.6836 170.886 14.4566 171.652 18.3591C172.417 22.2617 172.989 26.0994 173.499 29.8105Z" fill="#0043FA"/>
<path d="M170.503 38.9572H170.441V39.019H170.377V39.0838H170.315L170.251 39.2134L170.122 39.34L169.993 39.4048L169.867 39.5315L169.679 39.7259L169.55 39.8525L169.356 40.044L169.169 40.2384L168.911 40.365L168.723 40.5565L168.468 40.7479L168.213 40.9394L167.958 41.1956L167.702 41.387L167.386 41.5814L167.131 41.7729L166.808 41.9643L166.556 42.1558L166.236 42.3472L165.919 42.5387L165.6 42.7301L165.283 42.8597L164.963 43.0512L164.644 43.1807L164.262 43.3074L163.946 43.437L163.623 43.5607L163.309 43.6255C163.309 43.6255 164.773 39.7877 170.503 38.9572" fill="#0043FA"/>
<path d="M173.436 37.1647H173.245H173.052L172.799 37.1028H172.541H172.289H172.031L171.782 37.1647H171.459H171.143L170.823 37.2295H170.503L170.189 37.2943L169.867 37.3561H169.486L169.169 37.4209L168.785 37.4857L168.468 37.6124L168.087 37.6772L167.703 37.742L167.386 37.8686L167.005 37.9982L166.621 38.063L166.301 38.1896L165.92 38.3192L165.538 38.4459L165.216 38.6373L164.902 38.764L164.518 38.9554L164.201 39.1498L163.881 39.2765L163.623 39.5327L163.31 39.7242C160.186 41.8978 159.169 43.7534 158.087 45.7385C158.087 45.7385 163.691 46.1862 168.597 43.3057C170.949 41.8978 172.99 38.6992 173.436 37.1647Z" fill="#0043FA"/>
<path d="M150.107 51.0345C145.265 51.6736 139.435 51.3526 139.435 51.3526V51.6736H139.597V51.9946L139.758 52.3157V52.6338L139.913 52.7928V52.9519V53.1139L140.072 53.2729V53.432V53.5939H140.233V53.753L140.391 53.915V54.0711L140.553 54.2331L140.711 54.3921V54.5512H140.869L141.028 54.7132V54.8722H141.189L141.35 55.0313V55.1933H141.506L141.664 55.3523L141.825 55.5143C142.145 51.5469 150.107 51.5145 150.107 51.5145V51.0345ZM167.462 45.9184C167.462 45.9184 166.826 48.2511 163.958 49.5942C163.958 49.5942 165.521 49.6914 166.984 51.0345C166.984 51.0345 166.031 52.89 163.483 53.915C163.483 53.915 168.16 58.71 173.195 58.3919C173.195 58.3919 170.87 61.399 165.708 60.3093C160.55 59.1577 159.022 56.2801 158.069 55.1933C158.069 55.1933 158.705 57.9442 158.383 59.031C158.383 59.031 156.186 58.869 154.403 56.6306C154.403 56.6306 155.743 58.869 155.996 60.7894C155.996 60.7894 154.565 60.8218 152.013 59.3491C152.013 59.3491 152.588 60.7246 152.652 62.3887C152.652 62.3887 146.664 60.4359 143.737 57.7498V57.9118V58.0708V58.2299V58.3919V58.5509V58.71V58.869V59.031V59.1901V59.3491V59.5111V59.8292L143.896 59.9912V60.1502V60.3093V60.4683V60.6303C143.896 60.6303 134.723 59.7997 134.025 46.2365C134.025 46.2365 140.042 48.475 146.283 48.1539C152.397 47.8358 163.832 47.6444 167.462 45.9184Z" fill="#0043FA"/>
<path d="M132.483 47.1453L132.544 47.7196L132.609 48.2321L132.67 48.8064L132.735 49.3189L132.864 49.8962L132.926 50.4057L133.055 50.9182L133.181 51.4307L133.307 51.9432L133.436 52.4557L133.629 52.9004L133.756 53.3481L133.946 53.7987L134.075 54.2435L134.263 54.6293L134.456 55.0122C134.456 55.0122 130.826 52.3261 129.934 49.958C129.04 47.5929 128.852 46.0584 132.483 47.1453Z" fill="#0043FA"/>
<path d="M125.266 55.1921H125.104H124.946H124.788V55.3512H124.629H124.471V55.5132H124.309L124.148 55.6722V55.8313H123.99V55.9903H123.834V56.1523V56.3114V56.4704V56.6324L123.673 56.7915C123.673 57.625 124.436 58.3908 125.266 58.3908C126.093 58.3908 126.697 57.625 126.697 56.7915C126.697 55.9609 126.093 55.1921 125.266 55.1921ZM124.788 49.7551L125.104 49.9141H125.266H125.427L125.741 50.0732H125.902H126.06C127.4 54.1701 131.952 55.5132 134.184 56.4704C136.538 57.625 138.799 60.3111 138.799 60.3111C135.104 61.1417 133.389 62.0665 133.389 62.0665C126.312 57.1449 120.488 62.2285 120.488 62.2285C116.667 59.9901 115.872 54.7445 117.779 51.9935L118.101 51.6725L118.26 51.3544L118.418 51.1953L118.735 51.0334L118.896 50.8743L119.216 50.7153L119.371 50.5533L119.694 50.3942L120.01 50.2352L120.169 50.0732H120.488L120.805 49.9141H121.125L121.286 49.7551H121.603H121.919H122.242H122.556H122.878H123.195H123.353H123.673H123.99H124.148H124.471H124.788Z" fill="#0043FA"/>
<path d="M139.488 61.218H139.549V61.2828H139.614V61.3446L139.675 61.4094L139.743 61.539L139.872 61.6009L139.933 61.7305L140.059 61.9219L140.186 62.0486L140.25 62.1782L140.444 62.3696L140.57 62.5611L140.696 62.6906L140.889 62.8821L141.015 63.0735L141.206 63.3298L141.335 63.5212L141.716 63.9041L142.101 64.287L142.417 64.7376L142.608 64.9291L142.798 65.1205L142.989 65.312L143.183 65.5034L143.37 65.633L143.564 65.8245L143.755 65.9511L143.945 66.1426C143.945 66.1426 134.455 66.0159 132.036 74.3335C132.036 74.3335 128.789 69.2145 131.141 65.9511C133.69 62.4344 136.112 61.9219 139.488 61.218Z" fill="#0043FA"/>
<path d="M149.932 63.2012H149.997V63.263H150.061H150.123H150.187V63.3278H150.249H150.313H150.442L150.507 63.3926L150.633 63.4574H150.824L150.953 63.5193L151.082 63.5841H151.269L151.395 63.6489L151.589 63.7137L151.906 63.7755L152.29 63.9051L152.607 63.9699L152.8 64.0318L152.926 64.0966L153.117 64.1614H153.246L153.434 64.2262L153.563 64.288H153.692L153.818 64.3528H153.944L154.008 64.4176C154.008 64.4176 154.07 62.6269 153.944 61.7933C154.9 61.9848 156.047 62.3058 157.067 62.4325C157.067 62.4325 160.061 69.2155 162.478 71.9665C162.478 71.9665 162.607 73.5658 161.27 75.8013C161.27 75.8013 159.551 71.8369 156.431 68.5116C154.709 66.7179 153.563 65.7607 149.932 63.2012Z" fill="#0043FA"/>
<path d="M141.842 61.7943H141.971L142.1 61.8562H142.226L142.417 61.921L142.61 61.9858L142.798 62.0476L142.991 62.1124L143.247 62.1772L143.499 62.3039L143.754 62.3687L144.009 62.4335L144.264 62.5601L144.584 62.6249L144.836 62.7516L145.156 62.8812L145.472 63.0078L146.112 63.2641L146.748 63.5203L147.323 63.7765L147.959 64.0328L148.276 64.2242L148.531 64.3509L148.851 64.4805L149.106 64.6719L149.358 64.8015L149.613 64.9282L149.868 65.1196L150.062 65.2463C153.053 67.4229 155.091 69.8527 154.839 74.1382C154.839 74.1382 152.414 70.7481 149.739 69.2136C147.64 68.062 143.818 64.7367 141.842 61.7943Z" fill="#0043FA"/>
<path d="M141.908 30.7047H141.969H142.098L142.163 30.7665H142.289H142.351H142.48L142.609 30.8313H142.735H142.799L142.928 30.8961H143.057L143.119 30.9609H143.245L143.371 31.0228L143.5 31.0876L143.562 31.1524L143.691 31.2172L143.755 31.279L143.881 31.3438L143.943 31.4086L144.072 31.4734L144.14 31.5353L144.201 31.6001L144.266 31.7297L144.327 31.7915L144.392 31.9211L144.453 31.9859V32.0478V32.1126L144.521 32.1774V32.2392V32.304V32.3659L144.582 32.4306V32.4954V32.5602V32.6221C144.582 34.0948 142.289 37.6144 141.653 39.1489C141.016 37.6144 138.788 34.0948 138.788 32.6221C138.788 31.1524 140.506 30.7047 141.465 30.7047H141.908Z" fill="#0043FA"/>
<path d="M139.935 42.1554L139.873 41.8991V41.7077L139.806 41.4514L139.744 41.1952V40.939L139.677 40.6827L139.615 40.3646L139.55 40.1084L139.489 39.7873L139.424 39.4692L139.295 38.8301L139.166 38.188L139.04 37.487L138.852 36.845L138.785 36.5269L138.656 36.2058L138.594 35.9525L138.53 35.6315L138.407 35.3753L138.342 35.119L138.213 34.8628L138.084 34.6065L138.023 34.3532L137.896 34.1588L137.77 33.9674L137.703 33.7759L137.574 33.6463L137.448 33.5197C136.24 32.4329 134.456 32.3033 133.565 32.3681C132.671 32.4329 131.782 33.3283 132.099 34.5447C132.483 35.7581 136.43 41.7077 136.94 42.4116C137.832 42.282 137.703 42.282 139.935 42.1554Z" fill="#0043FA"/>
<path d="M143.434 42.1554V41.8991L143.499 41.7077L143.563 41.4514L143.628 41.1952V40.939L143.692 40.6827L143.754 40.3646L143.818 40.1084L143.88 39.7873L143.944 39.4692L144.074 38.8301L144.203 38.188L144.39 37.487L144.519 36.845L144.645 36.5269L144.713 36.2058L144.774 35.9525L144.9 35.6315L144.962 35.3753L145.091 35.119L145.156 34.8628L145.285 34.6065L145.411 34.3532L145.472 34.1588L145.601 33.9674L145.73 33.7759L145.795 33.6463L145.921 33.5197C147.129 32.4329 148.851 32.3033 149.804 32.3681C150.634 32.4329 151.59 33.3283 151.206 34.5447C150.886 35.7581 146.939 41.7077 146.367 42.4116C145.472 42.282 145.666 42.282 143.434 42.1554Z" fill="#0043FA"/>
<path d="M145.92 23.5402H142.926V20.1501H140.377V23.5402H137.322V25.7168H140.377V29.6812H142.926V25.7168H145.92V23.5402Z" fill="#0043FA"/>
<path d="M182.798 3.39026H179.678V0.000192642H177.255V3.39026H174.135V5.56685H177.255V9.53125H179.678V5.56685H182.798V3.39026Z" fill="#0043FA"/>
<path d="M108.787 45.4813V45.2898V45.0336L108.849 44.7773V44.5211V44.2648V44.1382V44.0086L108.913 43.9467V43.8172V43.6905V43.5609C109.171 41.8998 109.233 40.4271 109.042 39.2755C106.813 40.1061 105.286 40.6833 102.291 45.6079C102.291 45.6079 107.133 42.6037 108.787 45.4813Z" fill="#0043FA"/>
<path d="M112.991 53.3496L113.053 53.223V53.0315V52.9019V52.7753L113.117 52.5809V52.3894L113.182 52.198V51.9417L113.246 51.7503V51.4941L113.308 51.3026L113.375 51.0464L113.437 50.7901L113.501 50.5339L113.563 50.2158L113.627 49.9595L113.756 49.4471L113.886 48.8698L114.012 48.2954L114.199 47.7211L114.328 47.1468L114.519 46.5695L114.71 45.9922L114.774 45.7389L114.9 45.4827C116.111 42.1544 115.41 37.2947 113.947 34.4141C112.481 31.5366 111.654 28.8504 111.971 25.9081C111.971 25.9081 109.041 26.8682 107.448 27.8903C107.193 31.3451 109.17 34.7352 110.061 36.6555C111.211 38.9558 111.015 41.8982 110.701 43.7538C110.317 46.8905 110.953 50.2158 112.991 53.3496Z" fill="#0043FA"/>
<path d="M113.309 27.1868V27.125V27.0602V26.9954V26.9306V26.8687V26.8039V26.7392V26.6744V26.6125V26.5477V26.4829V26.4181V26.2915V26.1619V26.0352V25.9704V25.9056L113.374 25.8438V25.779V25.7142V25.6523V25.5875V25.5257L113.438 25.4609V25.3961V25.3313C113.438 25.3313 118.022 20.9192 121.782 20.1505C124.137 19.638 125.667 20.7278 126.304 21.3021C126.304 21.3021 125.031 21.1725 122.993 22.8366C120.952 24.4359 118.468 26.4829 116.559 26.9954C114.647 27.4431 114.265 27.3135 113.309 27.1868Z" fill="#0043FA"/>
<path d="M126.749 21.6847L127.066 22.0057L127.386 22.3267L127.641 22.6448L127.957 22.9659L128.215 23.284L128.468 23.605L128.597 23.7317L128.726 23.9261L128.852 24.0527L128.913 24.2441L129.04 24.4356L129.169 24.5652L129.233 24.7566L129.298 24.8833L129.424 25.0129L129.488 25.2043L129.55 25.331L129.614 25.5254L129.679 25.652V25.8435L129.743 25.9701L129.808 26.1645V26.2911V26.4178V26.6122V26.7388C129.808 28.3381 127.896 32.4321 126.937 33.9666C125.984 35.5012 124.456 37.5511 124.646 39.981C124.773 41.2593 125.603 42.5405 126.623 43.5625C126.623 43.5625 121.078 42.2194 120.444 38.8294C119.808 35.7574 121.142 33.5838 122.036 31.8578C122.863 30.2585 125.412 26.5474 126.048 25.0129C126.623 23.605 126.937 22.4534 126.749 21.6847Z" fill="#0043FA"/>
<path d="M159.042 60.3219L159.294 61.0258L159.552 61.7945L159.74 62.4955L160.063 63.2024L160.315 63.9034L160.57 64.6073L160.887 65.3112L161.206 65.9504L161.526 66.5924L161.843 67.2934L162.159 67.9355L162.541 68.5099L162.863 69.149L163.18 69.7263L163.561 70.3006L163.881 70.8131C165.599 73.4344 166.681 77.7847 166.432 79.2573C166.432 79.2573 168.978 73.6907 167.702 69.7911C166.681 66.7191 164.007 62.2393 159.042 60.3219Z" fill="#0043FA"/>
<path d="M165.282 61.6013H165.344H165.411H165.473H165.538H165.599H165.725L165.854 61.6632H166.048H166.174H166.365H166.558L166.746 61.728H166.936H167.192L167.385 61.7928H167.64L167.828 61.8576H168.086L168.277 61.9194L168.529 61.9842L168.784 62.049L168.977 62.1138H169.233L169.488 62.2405L169.678 62.3053L169.866 62.3701L170.121 62.4319L170.315 62.5615L170.502 62.6263L170.699 62.753L170.887 62.8178C173.115 64.3523 175.347 67.6157 176.11 71.5801C176.11 71.5801 172.291 70.9409 170.376 69.0235C168.529 67.168 166.174 64.2875 165.282 61.6013Z" fill="#0043FA"/>
<path d="M145.602 68.5107H145.538H145.411H145.347H145.285H145.156L145.092 68.5725H144.963H144.901L144.775 68.6373H144.646H144.52L144.391 68.7021H144.265L144.139 68.7669L143.881 68.8288H143.628L143.37 68.8936L143.118 68.9584L142.86 69.0232L142.734 69.085H142.608L142.482 69.1498H142.353L142.288 69.2146H142.162H142.101L141.972 69.2794C141.972 69.2794 145.221 70.2366 146.878 71.5179C148.212 72.6695 149.423 74.4602 149.934 77.4026C150.761 81.5614 153.183 86.0383 153.945 87.3813L154.2 87.3166C153.755 84.439 155.538 78.5542 155.983 77.7207C155.983 77.7207 153.435 76.0595 152.227 74.3954C151.397 73.179 149.869 71.135 145.602 68.5107Z" fill="#0043FA"/>
<path d="M162.416 77.4011L162.542 77.5925L162.606 77.784L162.735 78.0402L162.861 78.2964L162.988 78.4879L163.117 78.7441L163.246 79.0652L163.372 79.3214L163.498 79.5747L163.624 79.8958L163.882 80.473L164.134 81.0474L164.263 81.3684L164.392 81.6865L164.518 82.0723L164.58 82.3904L164.709 82.7115L164.774 83.0296L164.838 83.4154L164.903 83.7335L164.964 84.1193L165.029 84.5022V84.8233V85.2062V85.5891V85.9719V86.293L164.964 86.6759L164.838 87.0617L164.774 87.4446C163.562 91.4738 160.949 93.2027 159.295 96.5928C159.295 96.5928 158.023 90.4518 158.339 85.7187C158.595 80.9207 160.313 79.13 162.416 77.4011Z" fill="#0043FA"/>
<path d="M177.955 88.5957V88.4691V88.4043L177.893 88.148L177.767 87.8918L177.703 87.5707L177.512 87.3174L177.383 86.9964L177.193 86.6783L177.002 86.3573L176.808 85.9714L176.621 85.6533L176.363 85.2704L176.11 84.8846L175.855 84.5017L175.665 84.1188L175.154 83.3501L174.644 82.5814L174.392 82.1985L174.134 81.7508L173.946 81.3679L173.688 80.985L173.498 80.5992L173.307 80.2163L173.116 79.8304L172.99 79.5123L172.864 79.1294L172.735 78.8084L172.671 78.4255L172.606 78.1045V77.7864V77.5301C172.926 74.4582 176.937 72.2845 177.955 71.8368H178.02C179.04 72.2845 183.116 74.4582 183.372 77.5301C183.627 80.5992 178.213 86.2925 178.084 88.5957H177.955Z" fill="#0043FA"/>
<path d="M169.741 77.5302L169.803 77.5921V77.6569V77.7217L169.868 77.7835L169.929 77.8483V77.9131L169.994 77.975L170.058 78.1046L170.123 78.2312L170.187 78.4256L170.313 78.6819L170.504 79L170.633 79.321L170.824 79.6391L170.95 80.0249L171.143 80.343L171.334 80.7289L171.522 81.1736L171.715 81.5594L171.906 81.9423L172.096 82.39L172.48 83.2854L172.862 84.1189L173.052 84.5666L173.178 84.9495L173.372 85.3324L173.498 85.7801L173.689 86.1659L173.818 86.484L173.947 86.8699L174.008 87.1879L174.134 87.509L174.199 87.7652C174.835 90.6428 174.264 92.4984 172.988 94.2243C171.651 95.9532 169.486 97.8706 167.513 101.455C167.513 101.455 165.155 98.3831 164.903 96.7838C164.645 95.1226 165.029 91.2819 165.601 89.6826C166.046 88.0833 168.023 82.8377 169.741 77.5302Z" fill="#0043FA"/>
<path d="M177.955 105.996L177.641 105.675L177.319 105.357L177.002 105.036L176.747 104.718L176.427 104.397L176.175 104.076L175.855 103.758L175.6 103.372L175.41 103.054L175.155 102.733L175.09 102.541L174.964 102.415L174.838 102.22L174.77 102.094L174.709 101.902L174.583 101.773L174.518 101.646L174.457 101.454L174.392 101.328L174.328 101.198L174.263 101.072L174.199 100.942C173.753 99.5989 173.624 97.6785 174.77 96.2088C176.111 94.4799 177.829 92.4977 177.955 90.9013H178.084C178.149 92.4977 179.867 94.4799 181.269 96.2088C182.416 97.6785 182.29 99.5989 181.779 100.942C181.269 102.22 179.741 104.462 178.02 105.996H177.955Z" fill="#0043FA"/>
<path d="M171.652 101.007L171.587 101.069L171.523 101.133L171.461 101.198L171.396 101.263L171.335 101.39L171.209 101.519L171.08 101.711L170.886 101.902L170.699 102.158L170.502 102.35L170.314 102.606L170.059 102.862L169.869 103.18L169.616 103.437L169.358 103.758L169.168 104.014L168.657 104.653L168.212 105.227L167.957 105.548L167.701 105.867L167.514 106.188L167.317 106.444L167.068 106.762L166.874 107.018L166.684 107.274L166.558 107.531L166.364 107.787L166.235 108.043L166.109 108.235L165.983 108.426L165.921 108.556V108.618L165.854 108.682V108.747C165.218 110.346 164.261 113.224 165.602 115.271C166.939 117.318 170.124 120.581 172.863 121.989C172.863 121.989 169.869 117.318 170.188 113.48C170.376 110.986 172.223 108.809 172.605 107.339C172.989 105.867 172.734 103.31 171.652 101.007Z" fill="#0043FA"/>
<path d="M163.051 98.0644L163.116 98.1263L163.181 98.2559L163.245 98.3207L163.31 98.4473L163.371 98.5739L163.497 98.7035L163.562 98.8302L163.623 98.9598L163.691 99.1512L163.752 99.2779L163.881 99.4723L163.946 99.5989L164.008 99.7904L164.072 99.92L164.263 100.303L164.392 100.686L164.518 101.072L164.644 101.454L164.773 101.837L164.902 102.22L164.964 102.476V102.668L165.028 102.862V103.054L165.09 103.31V103.501C165.216 105.675 164.837 107.466 163.623 110.729C162.16 114.758 159.867 119.3 158.72 121.347C158.72 121.347 156.682 118.343 155.535 115.719C155.535 115.719 158.785 111.242 160.186 108.108C161.779 104.397 162.415 100.942 163.051 98.0644Z" fill="#0043FA"/>
<path d="M161.525 96.2724V96.3343V96.3991L161.46 96.5905V96.7849L161.396 97.0412L161.334 97.2974L161.27 97.6803L161.208 98.0632L161.144 98.5109L161.015 98.9586L160.886 99.4711L160.76 100.045L160.633 100.623L160.44 101.197L160.249 101.839L160.062 102.54L159.868 103.182L159.616 103.883L159.358 104.652L159.106 105.356L158.783 106.125L158.469 106.89L158.15 107.659L157.765 108.425L157.384 109.194L157.003 109.959L156.557 110.728L156.108 111.559L155.598 112.327L155.091 113.031L154.581 113.8L154.009 114.566C149.868 119.811 146.492 121.667 144.264 121.667C140.888 121.667 137.513 118.789 136.366 115.591C135.284 112.392 135.601 107.338 137.768 105.612C137.768 105.612 139.806 111.88 144.138 112.136C148.979 112.392 155.284 106.89 161.525 96.2724Z" fill="#0043FA"/>
<path d="M156.494 91.9239L156.555 92.1154L156.62 92.3068V92.4983L156.681 92.6897L156.749 92.8812V93.0756L156.81 93.5232L156.878 93.968L156.939 94.4186V94.8663V95.3759V95.8235V96.336V96.8485L156.878 97.361L156.81 97.8735L156.749 98.383L156.62 98.8955L156.494 99.408C155.983 101.455 154.775 104.141 152.353 105.676C150.315 106.957 145.411 107.275 143.564 102.607C143.564 102.607 152.479 103.311 156.494 91.9239Z" fill="#0043FA"/>
<path d="M178.021 123.011L177.766 122.884L177.578 122.754L177.32 122.693L177.13 122.563L176.871 122.436L176.684 122.31L176.558 122.245L176.429 122.115L176.3 122.054L176.238 121.989L176.112 121.859L175.986 121.797L175.857 121.668L175.728 121.603L175.602 121.476L175.476 121.35L175.408 121.22L175.279 121.093L175.153 120.964L175.027 120.772L174.901 120.646L174.772 120.454L174.646 120.325L174.52 120.133L174.393 119.942L174.197 119.685C173.115 117.957 172.033 114.758 172.605 112.458C173.373 109.642 174.965 108.49 175.857 106.7C176.558 107.403 177.001 107.916 177.957 108.49H178.021C178.913 107.916 179.423 107.403 180.185 106.7C181.138 108.49 182.605 109.642 183.37 112.458C183.945 114.758 182.927 117.957 181.778 119.685C180.379 121.989 179.297 122.372 178.021 123.011Z" fill="#0043FA"/>
<path d="M178.021 140.602L177.957 140.346L177.83 140.093L177.704 139.771L177.578 139.45L177.382 139.132L177.194 138.811L177 138.493L176.745 138.172L176.493 137.789L176.238 137.403L175.986 137.085L175.728 136.702L175.217 135.934L174.646 135.165L174.135 134.399L173.883 134.013L173.625 133.63L173.373 133.248L173.179 132.927L172.989 132.544L172.801 132.158L172.605 131.84L172.478 131.457L172.352 131.136L172.223 130.815L172.162 130.497V130.176V130.049V129.919V129.793V129.663C172.989 125.251 175.789 126.146 177.957 124.353H178.021C180.185 126.146 183.053 125.251 183.819 129.663C184.391 132.479 178.66 137.851 178.021 140.602Z" fill="#0043FA"/>
<path d="M171.142 134.141L171.207 134.398L171.397 134.716L171.523 135.037L171.714 135.358L171.907 135.676L172.095 135.997L172.292 136.315L172.479 136.636L172.925 137.275L173.435 137.914L173.884 138.557L174.391 139.196L174.837 139.835L175.028 140.091L175.28 140.409L175.476 140.73L175.664 141.051L175.855 141.307L175.984 141.626L176.174 141.882L176.301 142.2L176.43 142.456L176.491 142.712L176.559 142.969L176.62 143.225L176.685 143.481V143.673C176.559 150.196 173.755 154.164 173.116 156.337C173.116 156.337 167.896 152.182 167.004 147.448C166.494 145.016 167.066 137.723 171.142 134.141Z" fill="#0043FA"/>
<path d="M165.282 138.747L165.344 138.555L165.411 138.364L165.473 138.172L165.599 137.981L165.664 137.725L165.793 137.533L165.854 137.277L165.983 137.021L166.109 136.764L166.235 136.446L166.364 136.19L166.493 135.934L166.746 135.357L167.065 134.782L167.385 134.143L167.702 133.566L167.895 133.31L168.086 133.053L168.277 132.797L168.467 132.544L168.658 132.287L168.848 132.031L169.039 131.775L169.233 131.584L169.42 131.392L169.617 131.198L169.804 131.006L170.06 130.815C170.06 130.815 172.863 122.5 163.819 117.381C163.819 117.381 160.062 122.309 159.042 127.042C158.021 131.71 162.989 134.526 165.282 138.747Z" fill="#0043FA"/>
<path d="M153.945 117.638L153.692 118.021L153.373 118.342L153.053 118.725L152.736 119.11L152.417 119.428L152.1 119.811L151.78 120.197L151.461 120.518L151.079 120.836L150.76 121.219L150.634 121.349L150.443 121.475L150.249 121.667L150.123 121.797L149.933 121.923L149.804 122.053L149.613 122.179L149.487 122.244L149.296 122.371L149.167 122.5L148.98 122.562L148.851 122.627C148.851 122.627 148.276 126.338 148.595 128.833C149.041 132.479 151.461 136.252 152.417 139.068C152.417 139.068 156.431 133.822 156.813 130.75C157.32 127.681 157.255 125.187 157.384 123.714C157.384 123.714 155.156 120.132 153.945 117.638Z" fill="#0043FA"/>
<path d="M143.5 135.548L143.371 135.357L143.245 135.165L143.119 134.909L142.928 134.718L142.799 134.397L142.608 134.14L142.418 133.822L142.289 133.504L142.098 133.118L141.908 132.797L141.717 132.415L141.465 131.967L141.268 131.584L141.081 131.136L140.887 130.75L140.696 130.306L140.315 129.407L139.934 128.45L139.614 127.49L139.424 127.042L139.295 126.595L139.166 126.082L139.039 125.634L138.916 125.187L138.852 124.674L138.787 124.227L138.723 123.779V123.331V122.883C138.723 122.883 143.183 125.313 146.875 123.523C146.875 123.523 147.386 129.537 146.685 131.519C146.113 133.183 145.283 134.14 143.5 135.548Z" fill="#0043FA"/>
<path d="M144.519 136.829L144.581 136.767L144.646 136.702L144.775 136.573L144.836 136.511L144.962 136.446L145.027 136.381L145.156 136.254L145.22 136.19L145.346 136.06L145.473 135.998L145.537 135.869L145.666 135.742L145.921 135.548L146.173 135.294L146.367 135.103L146.619 134.847L146.813 134.655L146.939 134.526L147.065 134.461L147.129 134.334L147.258 134.204L147.388 134.143L147.449 134.013L147.514 133.948L147.637 133.822L147.704 133.76L147.766 133.63C147.766 133.63 150.695 139.132 151.206 140.731C151.206 140.731 149.739 141.052 148.147 139.901C146.493 138.746 146.112 138.428 144.519 136.829Z" fill="#0043FA"/>
<path d="M158.275 133.566L158.213 133.628V133.693L158.149 133.823V133.884L158.087 134.014L158.023 134.079V134.205L157.961 134.335L157.832 134.591L157.638 134.848L157.512 135.166L157.322 135.422L157.128 135.74L156.876 136.126L156.682 136.447L156.43 136.827L156.172 137.148L155.984 137.534L155.474 138.235L154.964 139.003L154.709 139.324L154.454 139.707L154.198 140.025L154.008 140.346L153.756 140.667L153.565 140.989L153.31 141.242L153.116 141.498L152.926 141.754L152.8 141.946L152.735 142.011L152.606 142.137L152.544 142.202L152.477 142.267L152.415 142.332V142.393L152.351 142.458L152.289 142.523C152.289 142.523 152.674 144.953 154.392 148.408C156.24 151.924 158.659 154.357 159.996 155.571C159.996 155.571 162.926 150.39 163.82 148.152C164.838 145.53 164.773 142.906 164.263 141.946C163.31 139.707 159.867 136.447 158.275 133.566Z" fill="#0043FA"/>
<path d="M177.955 173.291L177.893 173.1L177.829 172.908L177.767 172.717L177.703 172.522L177.577 172.396L177.512 172.204L177.383 172.01L177.257 171.818L177.131 171.627L177.002 171.435L176.808 171.179L176.682 170.988L176.363 170.605L176.049 170.157L175.726 169.71L175.345 169.262L175.028 168.749L174.709 168.237L174.518 167.981L174.392 167.724L174.198 167.468L174.072 167.215L173.946 166.959L173.817 166.638L173.688 166.381L173.562 166.063C172.926 164.208 172.926 161.966 173.688 160.432C174.518 158.706 177.641 154.356 178.02 153.139C178.401 154.356 181.46 158.706 182.351 160.432C183.116 161.966 183.116 164.208 182.416 166.063C181.269 169.262 178.53 171.435 178.084 173.291H177.955Z" fill="#0043FA"/>
<path d="M165.538 151.095L165.599 151.348L165.725 151.539L165.854 151.796L165.983 151.99L166.109 152.246L166.303 152.502L166.432 152.694L166.62 152.947L166.81 153.206L167.004 153.524L167.318 154.037L167.702 154.611L168.086 155.124L168.467 155.698L168.784 156.275L169.107 156.85L169.294 157.171L169.42 157.427L169.549 157.745L169.743 158.004L169.805 158.258L169.931 158.579L170.06 158.835L170.121 159.153L170.189 159.409L170.25 159.665C170.631 161.839 170.25 163.63 169.743 165.164C169.107 166.637 167.192 169.579 165.922 171.818C165.922 171.818 161.526 167.662 160.57 164.72C159.866 162.478 160.062 159.344 161.145 157.297C162.227 155.318 164.517 153.206 165.538 151.095Z" fill="#0043FA"/>
<path d="M153.054 150.52L153.183 150.773L153.309 151.032L153.435 151.221L153.564 151.477L153.693 151.733L153.819 151.927L154.136 152.372L154.456 152.885L154.837 153.332L155.157 153.78L155.538 154.231L155.857 154.675L156.171 155.123L156.494 155.571L156.62 155.762L156.749 156.018L156.878 156.213L157.004 156.469L157.13 156.658L157.256 156.849L157.321 157.105L157.385 157.3L157.514 157.491L157.576 157.744C158.274 160.242 158.47 161.903 157.256 164.913C156.171 167.532 154.837 169.069 154.391 170.668C154.391 170.668 150.822 166.062 150.25 164.142C149.614 162.159 149.423 159.026 150.186 157.043C150.887 154.996 152.162 152.372 153.054 150.52Z" fill="#0043FA"/>
<path d="M178.021 208.793L177.957 208.537L177.892 208.281L177.831 208.025L177.705 207.707L177.578 207.386L177.449 207.067L177.32 206.682L177.13 206.234L176.939 205.851L176.746 205.403L176.558 204.956L176.364 204.443L176.112 203.934L175.919 203.421L175.663 202.909L175.476 202.334L175.218 201.822L174.966 201.245L174.772 200.605L174.581 200.028L174.326 199.392L174.136 198.75L173.945 198.111L173.754 197.472L173.561 196.83L173.438 196.193L173.309 195.486L173.18 194.85L173.053 194.143L172.989 193.44L172.927 192.8V192.096C172.734 188.388 176.112 182.504 177.957 180.327H178.083C179.93 182.504 183.18 188.388 183.115 192.096C182.86 199.454 178.212 206.49 178.021 208.793Z" fill="#0043FA"/>
<path d="M170.569 168.174V168.236H170.505V168.301L170.44 168.363L170.378 168.427L170.314 168.492L170.252 168.557L170.188 168.687L170.123 168.748L169.994 168.875L169.93 169.005L169.868 169.131L169.616 169.388L169.42 169.709L169.167 170.027L168.912 170.348L168.66 170.731L168.402 171.116L168.085 171.499L167.827 171.947L167.575 172.398L167.255 172.842L167.003 173.29L166.683 173.738L166.431 174.25L166.173 174.698L165.921 175.146L165.727 175.658L165.475 176.106L165.282 176.554L165.091 177.066L164.965 177.514L164.839 177.958L164.71 178.344L164.642 178.792V178.983V179.175V179.369V179.558C164.771 184.485 168.024 187.684 168.531 190.753C168.531 190.753 171.716 187.11 172.927 184.68C174.326 181.861 175.408 179.558 174.965 176.424C174.645 173.29 173.815 171.308 170.569 168.174Z" fill="#0043FA"/>
<path d="M159.294 167.406L159.423 167.533L159.485 167.724L159.614 167.919L159.74 168.11L159.866 168.302L159.995 168.558L160.124 168.814L160.315 169.068L160.441 169.324L160.57 169.58L160.699 169.901L160.887 170.157L161.016 170.475L161.145 170.796L161.458 171.436L161.587 171.818L161.717 172.137L161.843 172.461L161.907 172.779L162.033 173.162L162.098 173.483L162.227 173.804L162.288 174.122L162.353 174.508V174.826L162.414 175.147V175.465V175.721L162.353 176.042V176.36L162.227 176.616C161.526 179.494 158.47 183.526 157.45 185.317C157.45 185.317 155.027 180.328 154.455 178.021C153.945 175.721 154.391 172.01 159.294 167.406Z" fill="#0043FA"/>
<path d="M173.817 220.689L173.755 220.18L173.688 219.667L173.626 219.155L173.562 218.645L173.436 218.133L173.374 217.682L173.245 217.237L173.116 216.79L172.925 216.339L172.799 215.891L172.67 215.508L172.48 215.064L172.289 214.678L172.163 214.292L171.782 213.526L171.459 212.822L171.078 212.118L170.761 211.479L170.441 210.84L170.315 210.519L170.189 210.198L170.06 209.88L169.931 209.562L169.805 209.306L169.741 208.985L169.679 208.728L169.614 208.475C168.978 205.147 169.169 202.01 171.782 198.172C173.817 205.276 176.11 210.454 177.829 214.039C177.893 214.165 177.955 214.23 178.022 214.36C178.022 214.23 178.084 214.165 178.151 214.039C179.931 210.454 182.225 205.276 184.263 198.172C186.811 202.01 187.066 205.147 186.427 208.475C185.852 211.417 182.606 214.934 182.225 220.689C181.843 226.512 188.339 228.686 188.339 228.686C186.11 229.457 183.626 229.837 179.676 226.064C178.975 225.361 178.4 224.66 178.022 223.823C177.576 224.66 177.002 225.361 176.362 226.064C172.353 229.837 169.867 229.457 167.702 228.686C167.702 228.686 174.134 226.512 173.817 220.689Z" fill="#0043FA"/>
<path d="M195.599 280.758L186.174 294L179.042 281.27L181.587 276.661C183.438 280.054 185.473 283.638 186.555 285.682C187.382 284.404 189.74 281.076 192.86 276.661L195.599 280.758Z" fill="#0043FA"/>
<path d="M161.78 182.245L161.842 182.436L161.968 182.693L162.033 182.887L162.097 183.143L162.226 183.399L162.291 183.656L162.417 183.909L162.543 184.165L162.736 184.678L162.989 185.19L163.182 185.764L163.434 186.277L163.689 186.851L163.818 187.108L163.883 187.364L164.009 187.555L164.135 187.811L164.2 188.068L164.329 188.259L164.393 188.515L164.455 188.707L164.519 188.901L164.581 189.028L164.645 189.216L164.71 189.346L164.775 189.54V189.602C165.217 191.905 164.581 194.718 160.44 197.661C160.44 197.661 157.701 195.743 156.683 193.249C155.663 190.945 156.302 189.284 157.255 188.13C158.34 186.851 160.76 184.103 161.78 182.245Z" fill="#0043FA"/>
<path d="M170.569 190.816L170.505 190.946V191.138V191.264V191.52V191.715L170.44 191.971V192.289L170.379 192.545L170.314 192.863V193.187L170.253 193.57L170.188 193.95L170.124 194.336L170.059 194.719L169.93 195.102L169.868 195.488L169.678 196.318L169.487 197.149L169.294 198.047L169.168 198.43L169.041 198.813L168.912 199.261L168.786 199.647L168.596 200.029L168.467 200.412L168.338 200.798L168.15 201.116L167.956 201.434L167.827 201.758C165.217 206.297 161.461 209.755 158.024 209.755C154.965 209.755 154.264 207.896 152.798 207.131C152.798 207.131 153.563 203.163 157.068 202.141C161.335 200.798 167.895 195.679 170.569 190.816Z" fill="#0043FA"/>
<path d="M159.423 199.135L159.232 199.005L159.106 198.943L158.848 198.749L158.722 198.622L158.596 198.56L158.47 198.431L158.341 198.366L158.212 198.236L158.086 198.11L158.021 198.048L157.96 197.983L157.895 197.918L157.766 197.853L157.702 197.791L157.64 197.724L157.576 197.662L157.514 197.6L157.449 197.473L157.32 197.406L157.256 197.344L157.191 197.214C157.191 197.214 153.88 198.431 151.144 200.286C148.47 202.142 145.795 205.276 144.329 206.875C144.329 206.875 148.405 207.897 151.015 206.745C151.015 206.745 151.971 202.846 154.839 201.117C155.473 200.734 157.514 200.092 159.423 199.135Z" fill="#0043FA"/>
<path d="M155.983 195.807L155.922 195.745L155.857 195.615L155.793 195.55L155.728 195.424L155.664 195.294L155.599 195.168L155.538 195.038L155.412 194.911L155.347 194.785L155.286 194.655L155.218 194.464L155.156 194.337L155.027 194.207L154.963 194.016L154.901 193.824L154.837 193.695L154.775 193.503L154.708 193.312L154.646 193.121L154.579 192.926L154.517 192.738L154.456 192.546V192.29L154.391 192.096V191.907L154.329 191.651V191.395V191.203L154.265 190.947V190.691L154.329 190.434V190.178C154.329 190.178 148.593 193.824 146.878 195.168C145.221 196.575 141.59 200.287 140.825 201.5C140.825 201.5 145.156 200.54 148.467 199.453C152.101 198.237 154.646 196.575 155.983 195.807Z" fill="#0043FA"/>
<path d="M146.304 202.011L145.984 202.14L145.665 202.202L145.348 202.332L144.964 202.458L144.583 202.523L144.201 202.653L143.817 202.714L143.371 202.844L142.99 202.971L142.547 203.036L141.653 203.227L140.697 203.483L139.805 203.675L138.852 203.869L137.958 204.058L137.066 204.252L136.621 204.314L136.178 204.443L135.794 204.508L135.409 204.635L135.028 204.697L134.647 204.764L134.327 204.891L134.011 204.956L133.691 205.018L133.374 205.144C130.506 206.043 128.403 207.451 125.603 210.52C125.603 210.52 129.87 211.671 132.099 212.44C132.099 212.44 135.732 209.942 139.744 208.473C142.351 207.451 143.562 204.697 146.304 202.011Z" fill="#0043FA"/>
<path d="M139.872 222.547L139.998 222.418L140.124 222.288L140.25 222.1L140.379 221.973L140.443 221.905L140.508 221.779L140.57 221.714L140.634 221.649V221.522L140.696 221.461L140.76 221.331L140.825 221.266V221.137L140.889 221.075V220.948V220.818L140.954 220.757V220.627V220.5V220.374V220.244V220.115V219.988L140.889 219.861V219.732L140.825 219.54L140.76 219.414V219.219C140.25 218.003 137.769 216.595 136.241 215.891C133.693 214.677 126.813 212.822 124.584 212.118C124.584 212.118 123.502 213.464 122.863 214.872C122.672 215.446 122.992 215.959 123.948 216.085C125.857 216.471 130.508 215.576 131.59 216.342C132.798 217.107 132.417 218.194 132.417 219.219C132.417 219.219 134.52 217.941 135.857 218.262C137.704 218.645 138.786 219.54 139.872 222.547Z" fill="#0043FA"/>
<path d="M133.691 212.952H133.753H133.817L133.879 213.014H134.008L134.076 213.079H134.202L134.328 213.141L134.457 213.206H134.586L134.773 213.27L134.9 213.335L135.096 213.397L135.219 213.465L135.41 213.527L135.6 213.592L135.794 213.718L136.049 213.783L136.24 213.848L136.43 213.977L136.686 214.039L136.876 214.166L137.131 214.293L137.322 214.36L137.574 214.487L137.832 214.614L138.084 214.74L138.278 214.87L138.53 214.996L138.785 215.126L139.04 215.317L139.296 215.447L139.551 215.577C139.551 215.577 140.697 215.126 141.269 214.039C141.841 213.014 144.202 209.495 146.304 209.05C146.304 209.05 144.518 208.92 143.433 208.537C143.433 208.537 141.208 209.112 139.615 209.819C138.023 210.393 136.049 211.418 133.691 212.952Z" fill="#0043FA"/>
<path d="M151.462 208.537H151.397L151.333 208.599H151.271L151.207 208.667H151.145L151.081 208.729H151.016H150.952L150.887 208.794H150.823H150.761L150.696 208.855H150.57H150.509L150.441 208.92H150.312H150.251L150.125 208.985H150.06H149.934H149.869L149.74 209.05H149.614H149.488H149.359L149.23 209.112H149.104H148.916H148.787C148.787 209.112 142.673 213.335 141.972 217.491C141.397 221.137 143.245 222.866 144.201 223.314C145.092 223.824 149.298 225.488 152.101 219.862C152.101 219.862 147.45 221.394 146.113 219.155C144.837 216.852 146.878 213.527 148.213 212.631C149.869 211.353 152.925 210.455 154.708 210.841C154.708 210.841 153.245 209.433 151.462 208.537Z" fill="#0043FA"/>
<path d="M111.783 256.833L112.097 255.681L112.355 254.533L112.674 253.316L112.865 252.739L113.056 252.165L113.185 251.587L113.375 250.948L113.563 250.374L113.818 249.797L114.012 249.222L114.267 248.648L114.522 248.068L114.777 247.493C117.451 241.673 124.199 226.128 138.214 223.442C139.551 223.124 136.751 219.86 135.472 220.052C134.202 220.181 131.716 221.843 130.569 222.547V218.644C130.507 218.07 129.997 217.813 129.487 217.813C128.915 217.875 125.54 217.813 124.454 219.092C121.27 222.8 115.859 232.782 112.865 240.204C109.745 247.623 107.642 249.923 104.457 248.775C101.272 247.623 99.3603 243.912 93.6945 245.064C91.718 245.449 89.5537 246.789 87.8968 248.71C88.3425 249.605 88.9173 250.757 91.5919 250.757C94.2019 250.757 99.2342 251.847 102.038 253.764C104.841 255.746 107.768 256.45 111.783 256.833Z" fill="#0043FA"/>
<path d="M167.702 208.73L167.829 209.177L167.893 209.625L168.022 210.073L168.148 210.518L168.274 210.968L168.4 211.416L168.597 211.799L168.785 212.247L168.911 212.694L169.169 213.142L169.356 213.59L169.55 213.975L169.805 214.423L169.993 214.871L170.503 215.766C170.503 215.766 166.236 235.532 150.761 237.005C150.761 237.005 151.08 232.908 155.664 229.839C160.251 226.705 167.066 221.842 166.556 214.485C166.556 214.485 165.412 214.741 163.18 217.492C161.016 220.243 156.171 228.24 148.72 228.304C148.72 228.304 149.802 224.529 153.116 222.417C156.43 220.243 160.567 217.492 162.479 214.167C164.392 210.903 166.43 209.369 167.702 208.73Z" fill="#0043FA"/>
<path d="M177.955 227.92L177.893 228.176L177.767 228.494L177.641 228.815L177.448 229.133L177.257 229.519L177.002 229.902L176.808 230.35L176.492 230.798L176.236 231.245L175.984 231.693L175.665 232.144L175.345 232.653L175.028 233.166L174.644 233.675L173.946 234.635L173.245 235.66L172.541 236.618L172.16 237.13L171.782 237.578L171.459 238.028L171.078 238.473L170.761 238.921L170.439 239.304L170.122 239.689L169.805 240.072L169.486 240.39L169.169 240.65L168.911 240.971L168.659 241.162C166.172 243.527 159.931 249.798 156.556 252.932C156.556 252.932 166.046 250.564 171.398 245.701C171.398 245.701 175.154 247.875 177.893 247.875H178.084C180.826 247.875 184.644 245.701 184.644 245.701C189.932 250.564 199.422 252.932 199.422 252.932C196.108 249.798 189.87 243.527 187.319 241.162C184.77 238.859 178.911 230.544 178.019 227.92H177.955Z" fill="#0043FA"/>
<path d="M177.955 249.861H177.767H177.577L177.383 249.799H177.192H177.002H176.808L176.427 249.734L176.049 249.67L175.726 249.543L175.345 249.475L175.028 249.349L174.644 249.287L174.327 249.16L174.072 249.031L173.752 248.966L173.623 248.901L173.497 248.836L173.371 248.774L173.245 248.71L173.116 248.648H172.99L172.864 248.58L172.735 248.518C173.882 250.821 175.984 254.594 177.955 256.064H178.019C180.058 254.594 182.16 250.821 183.307 248.518C182.16 249.031 180.187 249.861 178.084 249.861H177.955Z" fill="#0043FA"/>
<path d="M169.868 294L132.797 241.8L129.04 244.551L128.788 232.331L139.996 236.619L136.492 239.179C138.281 241.8 165.985 280.758 169.486 285.682L186.237 255.107L188.34 258.241L203.243 280.946L207 278.455V290.48L195.666 286.003L199.487 283.382C197.384 280.31 189.358 268.028 186.621 263.934L169.868 294Z" fill="#0043FA"/>
<path d="M163.052 273.463L164.008 272.056L164.518 271.355L164.964 270.651L165.412 270.011L165.855 269.308L166.301 268.665L166.682 268.026L167.131 267.387L167.512 266.813L167.703 266.557L167.893 266.239L168.022 265.979L168.213 265.726L168.401 265.467L168.53 265.214L168.723 264.957L168.849 264.766L168.978 264.51L169.169 264.318L169.295 264.127L169.421 263.935C170.316 265.661 172.225 269.113 174.327 272.889L177.002 268.156L169.741 255.108L167.703 258.242L160.251 269.499L163.052 273.463Z" fill="#0043FA"/>
<path d="M155.411 276.854L152.798 280.948L149.041 278.454L148.979 290.479L160.314 286.003L156.557 283.381C156.938 282.807 157.513 281.909 158.276 280.757L155.411 276.854Z" fill="#0043FA"/>
<path d="M80.8272 197.343L81.0823 197.086L81.3991 196.83L81.6542 196.639L81.9738 196.447L82.2906 196.318L82.6102 196.191L82.9299 196.126L83.2466 196.062L83.5662 196H83.9445L84.2671 196.062H84.6484L85.0296 196.191L85.4108 196.256L85.795 196.386L86.1762 196.512L86.622 196.701L87.0032 196.895L87.3874 197.086L87.8332 197.281L88.2144 197.534L88.6602 197.79L89.1059 198.111L89.5546 198.368L89.9329 198.686L90.3816 199.004L90.8244 199.39L91.2731 199.711L91.7188 200.094L92.1646 200.477L92.6104 200.859L93.0561 201.245C97.8333 205.596 100.763 210.072 97.9623 213.141C95.4139 215.892 90.5722 213.527 85.795 209.18C81.0823 204.827 78.0852 200.35 80.8272 197.343Z" fill="#0043FA"/>
<path d="M88.5339 251.075L88.4723 251.013H88.4078V250.948H88.3433V250.886H88.2787V250.821H88.2142L88.1497 250.759H88.0881V250.692H88.0236C85.5397 248.453 84.1409 245.063 84.1409 241.352C84.1409 234.189 89.8711 228.369 97.0677 228.369C104.135 228.369 109.933 234.189 109.933 241.352C109.933 242.312 109.742 243.85 109.742 243.85C110.253 242.763 112.42 237.835 112.866 236.94C110.954 229.968 104.584 224.849 97.0677 224.849C90.5104 224.849 84.9033 228.622 82.2288 234.124C83.2464 227.597 86.4957 221.713 88.789 219.539C91.5281 216.915 96.1733 216.084 96.1733 216.084C93.1175 216.532 89.1057 214.679 84.5837 210.518C80.3167 206.556 78.085 203.098 77.9619 200.221C78.2141 204.315 78.085 206.556 76.9413 209.943C75.3489 214.423 71.1436 222.738 72.6099 232.142C73.4398 237.323 77.1965 244.998 83.437 251.266C84.7772 252.674 85.2875 254.786 85.4136 255.873C85.4136 255.873 94.6483 255.873 96.751 256.064C96.751 256.064 98.9798 255.873 98.9153 254.465C98.9153 253.122 97.6396 252.803 96.622 252.803C95.4753 252.803 90.9533 252.865 88.5339 251.075Z" fill="#0043FA"/>
<path d="M149.042 253.764L150.508 252.933L151.971 252.035L153.435 251.075L154.839 250.053L156.303 248.966L157.766 247.811L159.168 246.598L160.57 245.319L161.969 243.976L163.373 242.504L164.772 241.034L166.109 239.435L167.447 237.706L168.784 235.98L170.121 234.124L170.76 233.167L171.461 232.142L172.672 230.095C170.76 230.926 168.403 230.351 168.403 230.351C168.212 230.543 167.957 231.055 167.828 231.244C161.332 240.778 154.2 246.854 146.939 250.756L149.042 253.764Z" fill="#0043FA"/>
<path d="M139.362 254.21L138.28 254.596L137.13 254.979L136.048 255.297L134.902 255.621L133.817 255.939L132.734 256.257L131.591 256.513L130.506 256.769L129.423 257.026L128.341 257.217L127.259 257.409L126.177 257.6L124.013 257.983L121.91 258.307C118.28 258.881 114.711 259.07 111.335 258.943C111.335 259.52 111.335 260.224 111.08 260.799C111.08 260.799 111.655 261.567 111.655 262.528C115.156 262.592 118.787 262.463 122.482 261.824C128.597 260.863 135.028 259.65 141.526 257.217L139.362 254.21Z" fill="#0043FA"/>
<path d="M97.323 257.089H97.1939H97.0678H96.9417H96.8127H96.6221L96.4315 257.027H96.3024H96.1118H95.9212H95.7306H95.4754H95.2877H95.0297H94.8391H94.3933L93.883 257.089H93.4373L92.927 257.154H92.4842L91.9739 257.218H91.7804H91.5252L91.3346 257.28H91.0824L90.8918 257.345H90.6982C88.4695 257.663 85.921 258.176 85.6043 259.392C85.3492 260.606 86.1762 261.887 87.3258 263.678C88.0237 264.764 89.6806 264.19 90.6367 263.804C91.5927 263.421 96.8801 260.606 97.7658 259.648C98.5986 258.753 98.9154 257.407 97.323 257.089Z" fill="#0043FA"/>
<path d="M102.673 260.669L102.611 260.608V260.543H102.544L102.417 260.481H102.356L102.291 260.416L102.23 260.354H102.162L102.036 260.287H101.972L101.846 260.225H101.781L101.655 260.16H101.526H101.461L101.335 260.095H101.209H101.145L101.019 260.03H100.89H100.763H100.637H100.508H100.379H100.253H100.127L99.998 260.095H99.869L99.7429 260.16H99.6168L99.4878 260.225H99.3587C97.8954 260.799 92.6753 263.933 92.2912 265.341C91.9745 266.813 92.6753 267.579 93.4378 267.9C94.3293 268.218 95.2854 268.539 96.0478 268.601C97.3235 268.666 98.5963 267.9 99.2326 267.067C99.9335 266.239 102.356 263.294 102.673 262.59C103.054 262.015 103.247 260.99 102.673 260.669Z" fill="#0043FA"/>
<path d="M103.375 263.869L103.313 263.934L103.184 264.06L103.12 264.128L103.055 264.255L102.929 264.381L102.803 264.511L102.738 264.64L102.609 264.767L102.48 264.894L102.354 265.085L102.228 265.215L102.099 265.341L101.847 265.66L101.592 265.981L101.337 266.302L101.272 266.428L101.146 266.558L101.017 266.684L100.888 266.814L100.826 266.941L100.7 267.067L100.636 267.197L100.507 267.327L100.445 267.388L100.381 267.515L100.316 267.58L100.255 267.645V267.709L100.19 267.771C99.9994 268.157 100.381 268.858 101.017 268.731C101.721 268.667 105.284 268.284 107.322 266.876C109.425 265.468 110.765 262.782 109.36 261.76C107.958 260.738 105.73 261.247 103.375 263.869Z" fill="#0043FA"/>
<path d="M104.52 256.002H104.459H104.332L104.265 255.94H104.136H104.074L103.948 255.872H103.822L103.693 255.81H103.564H103.438L103.247 255.745H103.118L102.928 255.683H102.802H102.673H102.482L102.356 255.619H102.162H102.036H101.846H101.72H101.59H101.461L101.335 255.683H101.209L101.08 255.745H100.951L100.89 255.81H100.825H100.764V255.872H100.699L100.637 255.94L100.57 256.002L100.508 256.063C99.8075 257.218 100.315 258.37 102.417 259.392C104.52 260.417 108.532 261.247 109.297 260.16C110.063 259.071 108.981 257.218 104.52 256.002Z" fill="#0043FA"/>
</svg>
