<svg width="50" height="50" viewBox="0 0 50 50" fill="none" xmlns="http://www.w3.org/2000/svg">
<g clip-path="url(#clip0_4_152)">
<path d="M50 25C50 38.807 38.807 50 25 50C11.194 50 0 38.807 0 25C0 11.194 11.194 0 25.001 0C38.807 0 50 11.194 50 25Z" fill="#4C76A1"/>
<path d="M24.057 35.9649H26.02C26.02 35.9649 26.612 35.8999 26.913 35.5729C27.192 35.2729 27.183 34.7109 27.183 34.7109C27.183 34.7109 27.144 32.0779 28.368 31.6909C29.573 31.3069 31.119 34.2349 32.759 35.3599C33.998 36.2119 34.942 36.0249 34.942 36.0249L39.326 35.9639C39.326 35.9639 41.619 35.8219 40.532 34.0189C40.442 33.8719 39.897 32.6849 37.27 30.2479C34.521 27.6969 34.891 28.1079 38.202 23.6949C40.221 21.0079 41.025 19.3679 40.775 18.6649C40.534 17.9949 39.051 18.1729 39.051 18.1729L34.113 18.2039C34.113 18.2039 33.748 18.1549 33.475 18.3149C33.209 18.4739 33.04 18.8459 33.04 18.8459C33.04 18.8459 32.259 20.9269 31.217 22.6929C29.02 26.4269 28.141 26.6239 27.781 26.3929C26.945 25.8519 27.154 24.2219 27.154 23.0629C27.154 19.4459 27.701 17.9379 26.087 17.5489C25.551 17.4189 25.155 17.3329 23.783 17.3199C22.021 17.3009 20.529 17.3249 19.685 17.7379C19.123 18.0109 18.691 18.6249 18.954 18.6599C19.28 18.7029 20.02 18.8609 20.412 19.3939C20.916 20.0809 20.898 21.6259 20.898 21.6259C20.898 21.6259 21.19 25.8849 20.221 26.4129C19.554 26.7769 18.643 26.0339 16.683 22.6479C15.679 20.9139 14.923 18.9969 14.923 18.9969C14.923 18.9969 14.777 18.6409 14.515 18.4479C14.198 18.2149 13.756 18.1419 13.756 18.1419L9.067 18.1719C9.067 18.1719 8.361 18.1919 8.103 18.4979C7.874 18.7689 8.084 19.3339 8.084 19.3339C8.084 19.3339 11.755 27.9249 15.914 32.2529C19.727 36.2269 24.057 35.9649 24.057 35.9649Z" fill="white"/>
</g>
<defs>
<clipPath id="clip0_4_152">
<rect width="50" height="50" fill="white"/>
</clipPath>
</defs>
</svg>
