<svg width="50" height="50" viewBox="0 0 50 50" fill="none" xmlns="http://www.w3.org/2000/svg">
<g clip-path="url(#clip0_4_155)">
<path d="M25 50C38.8071 50 50 38.8071 50 25C50 11.1929 38.8071 0 25 0C11.1929 0 0 11.1929 0 25C0 38.8071 11.1929 50 25 50Z" fill="url(#paint0_linear_4_155)"/>
<path d="M20.417 36.458C19.606 36.458 19.744 36.152 19.465 35.381L17.083 27.543L35.417 16.667" fill="#C8DAEA"/>
<path d="M20.417 36.458C21.042 36.458 21.317 36.173 21.667 35.833L25 32.592L20.842 30.085" fill="#A9C9DD"/>
<path d="M20.841 30.086L30.916 37.529C32.065 38.163 32.895 37.835 33.182 36.462L37.283 17.136C37.703 15.453 36.641 14.689 35.542 15.189L11.461 24.475C9.817 25.134 9.827 26.052 11.161 26.46L17.341 28.389L31.648 19.363C32.324 18.953 32.944 19.174 32.435 19.625" fill="url(#paint1_linear_4_155)"/>
</g>
<defs>
<linearGradient id="paint0_linear_4_155" x1="32.3145" y1="7.7916" x2="19.8145" y2="36.9516" gradientUnits="userSpaceOnUse">
<stop stop-color="#37AEE2"/>
<stop offset="1" stop-color="#1E96C8"/>
</linearGradient>
<linearGradient id="paint1_linear_4_155" x1="26.774" y1="25.5903" x2="30.6841" y2="34.4903" gradientUnits="userSpaceOnUse">
<stop stop-color="#EFF7FC"/>
<stop offset="1" stop-color="white"/>
</linearGradient>
<clipPath id="clip0_4_155">
<rect width="50" height="50" fill="white"/>
</clipPath>
</defs>
</svg>
