<svg width="60" height="60" viewBox="0 0 60 60" fill="none" xmlns="http://www.w3.org/2000/svg">
<g clip-path="url(#clip0_4_172)">
<path d="M29.999 0C13.458 0 0 13.458 0 30C0 46.542 13.458 60 29.999 60C46.542 60 60 46.542 60 30C60 13.458 46.542 0 29.999 0ZM46.97 31.367C46.97 34.245 46.708 37.168 46.708 37.168C46.708 37.168 46.403 39.609 45.398 40.699C44.089 42.138 42.65 42.138 41.996 42.226C37.199 42.574 30.003 42.619 30.003 42.619C30.003 42.619 21.062 42.488 18.315 42.226C17.573 42.095 15.828 42.138 14.52 40.699C13.474 39.609 13.212 37.168 13.212 37.168C13.212 37.168 12.95 34.245 12.95 31.367V28.663C12.95 25.784 13.212 22.862 13.212 22.862C13.212 22.862 13.517 20.42 14.52 19.329C15.829 17.89 17.269 17.847 17.922 17.759C22.764 17.41 29.961 17.367 29.961 17.367C29.961 17.367 37.157 17.41 41.954 17.759C42.608 17.847 44.091 17.89 45.399 19.286C46.447 20.376 46.709 22.862 46.709 22.862C46.709 22.862 46.971 25.784 46.971 28.663V31.367H46.97ZM26.427 35.009L35.674 30.038L26.427 24.979V35.009Z" fill="#FF0000"/>
</g>
<defs>
<clipPath id="clip0_4_172">
<rect width="60" height="60" fill="white"/>
</clipPath>
</defs>
</svg>
