<svg width="50" height="50" viewBox="0 0 50 50" fill="none" xmlns="http://www.w3.org/2000/svg">
<g clip-path="url(#clip0_4_160)">
<path d="M24.999 0C38.807 0 50 11.194 50 25C50 38.809 38.807 50 24.999 50C11.192 50 0 38.809 0 25C0 11.194 11.193 0 24.999 0Z" fill="#3C5A98"/>
<path d="M28.044 17.2109H31.265V12.4509H27.478V12.4679C22.888 12.6309 21.949 15.2099 21.865 17.9199H21.855V20.2959H18.73V24.9579H21.855V37.4509H26.564V24.9579H30.423L31.168 20.2969H26.565V18.8619C26.567 17.9449 27.175 17.2109 28.044 17.2109Z" fill="white"/>
</g>
<defs>
<clipPath id="clip0_4_160">
<rect width="50" height="50" fill="white"/>
</clipPath>
</defs>
</svg>
