<svg width="55" height="55" viewBox="0 0 55 55" fill="none" xmlns="http://www.w3.org/2000/svg">
<path d="M9.326 44.3408H6.168C3.688 44.3408 1.677 42.3298 1.677 39.8508V6.16776C1.677 3.68776 3.688 1.67676 6.168 1.67676H48.833C51.312 1.67676 53.323 3.68776 53.323 6.16776V39.8508C53.323 42.3298 51.312 44.3408 48.833 44.3408H45.438" stroke="#9C9C9C" stroke-width="1.3" stroke-miterlimit="10" stroke-linejoin="round"/>
<path d="M1.677 12.9043H53.323" stroke="#9C9C9C" stroke-width="1.3" stroke-miterlimit="10" stroke-linejoin="round"/>
<path d="M9.53498 6.72852C9.84598 6.72852 10.098 6.98152 10.098 7.28952C10.098 7.59952 9.84598 7.85152 9.53498 7.85152C9.22398 7.85152 8.97498 7.59952 8.97498 7.28952C8.97498 6.98152 9.22498 6.72852 9.53498 6.72852Z" stroke="#9C9C9C" stroke-width="1.3" stroke-miterlimit="10" stroke-linejoin="round"/>
<path d="M16.272 6.72852C16.582 6.72852 16.834 6.98152 16.834 7.28952C16.834 7.59952 16.582 7.85152 16.272 7.85152C15.961 7.85152 15.71 7.59952 15.71 7.28952C15.711 6.98152 15.962 6.72852 16.272 6.72852Z" stroke="#9C9C9C" stroke-width="1.3" stroke-miterlimit="10" stroke-linejoin="round"/>
<path d="M23.01 6.72852C23.319 6.72852 23.571 6.98152 23.571 7.28952C23.571 7.59952 23.319 7.85152 23.01 7.85152C22.697 7.85152 22.447 7.59952 22.447 7.28952C22.447 6.98152 22.697 6.72852 23.01 6.72852Z" stroke="#9C9C9C" stroke-width="1.3" stroke-miterlimit="10" stroke-linejoin="round"/>
<path d="M27.5 53.323C34.94 53.323 40.973 47.291 40.973 39.85C40.973 32.409 34.941 26.376 27.5 26.376C20.059 26.376 14.027 32.408 14.027 39.85C14.027 47.291 20.06 53.323 27.5 53.323Z" stroke="#9C9C9C" stroke-width="1.3" stroke-miterlimit="10" stroke-linejoin="round"/>
<path d="M27.5 26.3766V19.6416" stroke="#9C9C9C" stroke-width="1.3" stroke-miterlimit="10" stroke-linejoin="round"/>
<path d="M24.133 19.6416H30.868" stroke="#9C9C9C" stroke-width="1.3" stroke-miterlimit="10" stroke-linejoin="round"/>
<path d="M16.272 26.377L19.163 29.268" stroke="#9C9C9C" stroke-width="1.3" stroke-miterlimit="10" stroke-linejoin="round"/>
<path d="M38.729 26.377L35.837 29.268" stroke="#9C9C9C" stroke-width="1.3" stroke-miterlimit="10" stroke-linejoin="round"/>
<path d="M28.69 38.6589L32.262 35.0869" stroke="#9C9C9C" stroke-width="1.3" stroke-miterlimit="10" stroke-linejoin="round"/>
<path d="M27.102 39.4523C27.321 39.2333 27.675 39.2333 27.895 39.4523C28.116 39.6713 28.116 40.0273 27.895 40.2473C27.675 40.4663 27.321 40.4663 27.102 40.2473C26.884 40.0273 26.884 39.6713 27.102 39.4523Z" stroke="#9C9C9C" stroke-width="1.3" stroke-miterlimit="10" stroke-linejoin="round"/>
</svg>
