<svg width="55" height="55" viewBox="0 0 55 55" fill="none" xmlns="http://www.w3.org/2000/svg">
<path d="M26.777 40.4461L21.234 37.9671C20.898 37.8171 20.512 37.8351 20.195 38.0171L17.742 39.4301C17.394 39.6281 17.178 39.9961 17.166 40.3941C17.157 40.7901 17.354 41.1661 17.69 41.3841L26.055 46.7841C26.368 46.9851 26.753 47.0231 27.098 46.8881L36.946 43.0041L33.625 51.6271C33.456 52.0701 33.576 52.5741 33.933 52.8921C34.287 53.2061 34.799 53.2741 35.221 53.0531L37.434 51.9041C37.635 51.7991 37.8 51.6361 37.911 51.4371L44.081 40.1611L51.992 36.6771C53.493 36.0131 54.141 34.2641 53.479 32.7991C52.835 31.3711 51.181 30.7031 49.727 31.2851L26.777 40.4461Z" stroke="#9B9B9B" stroke-width="1.3" stroke-miterlimit="10"/>
<path d="M41.308 34.6464L32.551 29.1614C32.207 28.9474 31.777 28.9294 31.418 29.1144L29.068 30.3284C28.708 30.5144 28.475 30.8754 28.452 31.2804C28.429 31.6834 28.625 32.0714 28.963 32.2974L35.801 36.8474" stroke="#9B9B9B" stroke-width="1.3" stroke-miterlimit="10"/>
<path d="M15.008 35.8034C7.168 34.2184 1.263 27.2874 1.263 18.9804C1.263 9.50038 8.948 1.81738 18.425 1.81738C27.904 1.81738 35.588 9.50038 35.588 18.9804" stroke="#9B9B9B" stroke-width="1.3" stroke-miterlimit="10"/>
<path d="M7.73401 32.3928L9.27201 24.7008H10.918C11.621 24.7008 12.288 24.3778 12.721 23.8218C13.155 23.2658 13.31 22.5438 13.136 21.8588L11.993 17.2838C11.737 16.2628 10.823 15.5488 9.77301 15.5488H1.60901" stroke="#9B9B9B" stroke-width="1.3" stroke-miterlimit="10"/>
<path d="M32.133 8.68164H25.934C24.884 8.68164 23.968 9.39764 23.711 10.4166L22.568 14.9926C22.399 15.6776 22.551 16.4006 22.986 16.9546C23.42 17.5116 24.084 17.8346 24.789 17.8346H27.198L28.405 25.0766" stroke="#9B9B9B" stroke-width="1.3" stroke-miterlimit="10"/>
</svg>
