<svg width="50" height="50" viewBox="0 0 50 50" fill="none" xmlns="http://www.w3.org/2000/svg">
<g clip-path="url(#clip0_4_168)">
<path d="M49.999 25C49.999 11.193 38.807 0 25 0C11.192 0 0 11.193 0 25C0 38.611 10.879 49.674 24.416 49.985C24.596 49.985 24.774 49.985 24.953 49.985C25.163 49.985 25.372 49.985 25.582 49.985C39.119 49.675 49.999 38.611 49.999 25Z" fill="url(#paint0_radial_4_168)"/>
<path d="M49.999 25C49.999 11.193 38.807 0 25 0C11.192 0 0 11.193 0 25C0 38.611 10.879 49.674 24.416 49.985C24.596 49.985 24.774 49.985 24.953 49.985C25.163 49.985 25.372 49.985 25.582 49.985C39.119 49.675 49.999 38.611 49.999 25Z" fill="url(#paint1_radial_4_168)"/>
<path d="M24.994 10.3149C21.007 10.3149 20.507 10.3329 18.941 10.4029C17.378 10.4749 16.311 10.7219 15.378 11.0849C14.412 11.4599 13.593 11.9609 12.777 12.7779C11.961 13.5939 11.459 14.4129 11.082 15.3789C10.719 16.3129 10.471 17.3789 10.4 18.9419C10.33 20.5089 10.311 21.0089 10.311 24.9959C10.311 28.9829 10.329 29.4809 10.401 31.0479C10.472 32.6099 10.72 33.6769 11.083 34.6109C11.458 35.5759 11.96 36.3949 12.776 37.2119C13.591 38.0279 14.41 38.5309 15.376 38.9059C16.31 39.2689 17.378 39.5159 18.939 39.5879C20.505 39.6589 21.005 39.6769 24.992 39.6769C28.98 39.6769 29.478 39.6589 31.045 39.5879C32.608 39.5169 33.677 39.2699 34.61 38.9059C35.576 38.5309 36.392 38.0279 37.209 37.2119C38.026 36.3959 38.527 35.5759 38.903 34.6109C39.264 33.6769 39.512 32.6099 39.585 31.0479C39.656 29.4819 39.675 28.9829 39.675 24.9959C39.675 21.0089 39.656 20.5089 39.585 18.9429C39.513 17.3799 39.265 16.3129 38.903 15.3799C38.527 14.4139 38.025 13.5959 37.209 12.7789C36.393 11.9619 35.576 11.4609 34.609 11.0859C33.673 10.7229 32.605 10.4759 31.043 10.4039C29.478 10.3329 28.979 10.3159 24.99 10.3159H24.994V10.3149ZM23.677 12.9609C24.068 12.9599 24.504 12.9609 24.993 12.9609C28.914 12.9609 29.378 12.9749 30.926 13.0449C32.358 13.1099 33.135 13.3489 33.653 13.5499C34.339 13.8159 34.826 14.1339 35.34 14.6479C35.854 15.1619 36.172 15.6509 36.439 16.3359C36.64 16.8529 36.879 17.6299 36.944 19.0619C37.015 20.6089 37.031 21.0739 37.031 24.9919C37.031 28.9099 37.015 29.3749 36.944 30.9219C36.88 32.3529 36.64 33.1309 36.439 33.6479C36.173 34.3329 35.854 34.8209 35.34 35.3339C34.826 35.8489 34.339 36.1659 33.653 36.4329C33.135 36.6349 32.358 36.8729 30.926 36.9389C29.378 37.0089 28.914 37.0249 24.993 37.0249C21.073 37.0249 20.608 37.0089 19.061 36.9389C17.629 36.8739 16.852 36.6329 16.334 36.4329C15.648 36.1659 15.159 35.8489 14.646 35.3339C14.132 34.8199 13.814 34.3319 13.547 33.6459C13.346 33.1289 13.107 32.3529 13.041 30.9219C12.971 29.3739 12.957 28.9089 12.957 24.9889C12.957 21.0689 12.971 20.6059 13.041 19.0579C13.106 17.6259 13.346 16.8499 13.547 16.3319C13.813 15.6469 14.132 15.1579 14.646 14.6439C15.16 14.1299 15.649 13.8119 16.334 13.5449C16.852 13.3429 17.629 13.1049 19.061 13.0389C20.415 12.9779 20.94 12.9589 23.676 12.9569V12.9609H23.677ZM32.831 15.3979C31.858 15.3979 31.069 16.1859 31.069 17.1589C31.069 18.1319 31.858 18.9209 32.831 18.9209C33.804 18.9209 34.594 18.1319 34.594 17.1589C34.594 16.1859 33.803 15.3979 32.831 15.3979ZM24.994 17.4569C20.831 17.4569 17.455 20.8319 17.455 24.9959C17.455 29.1599 20.831 32.5329 24.994 32.5329C29.158 32.5329 32.532 29.1599 32.532 24.9959C32.532 20.8319 29.158 17.4569 24.994 17.4569ZM24.994 20.1019C27.697 20.1019 29.888 22.2929 29.888 24.9959C29.888 27.6979 27.698 29.8899 24.994 29.8899C22.292 29.8899 20.1 27.6989 20.1 24.9959C20.1 22.2929 22.292 20.1019 24.994 20.1019Z" fill="white"/>
</g>
<defs>
<radialGradient id="paint0_radial_4_168" cx="0" cy="0" r="1" gradientUnits="userSpaceOnUse" gradientTransform="translate(-3.8529 36.7081) scale(49.3326 49.3326)">
<stop stop-color="#FFDD55"/>
<stop offset="0.1" stop-color="#FFDD55"/>
<stop offset="0.5" stop-color="#FF543E"/>
<stop offset="1" stop-color="#C837AB"/>
</radialGradient>
<radialGradient id="paint1_radial_4_168" cx="0" cy="0" r="1" gradientUnits="userSpaceOnUse" gradientTransform="translate(-0.161498 -1.0717) scale(28.0457 28.0457)">
<stop stop-color="#3771C8"/>
<stop offset="0.128" stop-color="#3771C8"/>
<stop offset="1" stop-color="#6600FF" stop-opacity="0"/>
</radialGradient>
<clipPath id="clip0_4_168">
<rect width="49.999" height="49.985" fill="white"/>
</clipPath>
</defs>
</svg>
