<svg width="50" height="50" viewBox="0 0 50 50" fill="none" xmlns="http://www.w3.org/2000/svg">
<g clip-path="url(#clip0_4_163)">
<path d="M25.002 0C11.192 0 0 11.195 0 25.001C0 38.808 11.192 50.001 25.002 50.001C38.808 50.001 50 38.808 50 25.001C50 11.194 38.807 0 25.002 0Z" fill="#F16922"/>
<path d="M25.113 9.48098C29.497 9.49198 33.011 13.078 32.99 17.507C32.969 21.836 29.393 25.345 25.018 25.33C20.688 25.315 17.137 21.724 17.163 17.389C17.185 13.003 20.74 9.46998 25.113 9.48098Z" fill="white"/>
<path d="M33.991 28.441C33.022 29.438 31.853 30.156 30.558 30.661C29.335 31.134 27.994 31.374 26.665 31.534C26.864 31.751 26.958 31.86 27.085 31.985C28.89 33.798 30.697 35.599 32.495 37.418C33.106 38.037 33.234 38.806 32.896 39.524C32.528 40.31 31.703 40.83 30.894 40.774C30.381 40.739 29.98 40.484 29.626 40.127C28.268 38.759 26.88 37.412 25.545 36.018C25.158 35.611 24.972 35.692 24.63 36.041C23.262 37.449 21.871 38.839 20.472 40.217C19.842 40.837 19.096 40.95 18.367 40.594C17.595 40.219 17.099 39.431 17.138 38.636C17.163 38.098 17.43 37.686 17.798 37.318C19.583 35.537 21.361 33.751 23.141 31.965C23.26 31.845 23.37 31.719 23.54 31.536C21.113 31.285 18.924 30.686 17.049 29.221C16.819 29.039 16.579 28.861 16.368 28.659C15.546 27.87 15.463 26.969 16.111 26.038C16.668 25.243 17.598 25.032 18.568 25.487C18.756 25.575 18.932 25.688 19.106 25.803C22.596 28.204 27.395 28.269 30.9 25.911C31.247 25.647 31.619 25.429 32.048 25.319C32.887 25.103 33.665 25.411 34.112 26.145C34.628 26.979 34.622 27.795 33.991 28.441Z" fill="white"/>
<path d="M25.103 21.286C27.252 21.277 28.962 19.553 28.955 17.4C28.947 15.243 27.23 13.531 25.084 13.53C22.917 13.527 21.187 15.274 21.201 17.447C21.217 19.591 22.946 21.292 25.103 21.286Z" fill="#F16922"/>
</g>
<defs>
<clipPath id="clip0_4_163">
<rect width="50" height="50" fill="white"/>
</clipPath>
</defs>
</svg>
