<svg width="225" height="29" viewBox="0 0 225 29" fill="none" xmlns="http://www.w3.org/2000/svg">
<path d="M127.965 5.8959H128.38C129.449 5.8959 130.278 6.51449 130.868 7.69561C131.457 8.87672 131.743 10.7036 131.743 13.2324C131.743 14.5979 131.577 15.6771 131.19 16.4155C130.822 17.1539 130.343 17.5227 129.808 17.5227C129.292 17.5227 128.868 17.1726 128.519 16.5072C128.168 15.8623 127.965 14.9301 127.965 13.6938V5.8959ZM123.958 2.25143V27.9963H128.195V20.5213C129.025 21.2419 129.937 21.6744 130.913 21.6744C132.314 21.6744 133.465 20.9368 134.368 19.4609C135.382 17.8175 135.888 15.3915 135.888 12.2161C135.888 10.0026 135.483 8.00916 134.691 6.31141L134.553 6.0344L134.415 5.80412L134.322 5.573L134.184 5.38861L134.045 5.15834L133.861 4.92721L133.723 4.74282L133.586 4.55843L133.401 4.37319L133.262 4.1888L133.078 4.00441L132.894 3.86591L132.71 3.68152L132.525 3.54301L132.341 3.40451L132.157 3.266L131.927 3.17423L131.743 3.03573L131.558 2.94311L131.328 2.85134L131.098 2.75872L130.868 2.6661L130.637 2.57433L130.407 2.52759L130.176 2.48171L129.946 2.43582L129.67 2.3432H129.44L129.163 2.29732H128.933L128.656 2.25143H128.38H123.958Z" fill="#0043FA"/>
<path d="M223.659 1.00001L223.309 1.3501C223.309 1.3501 214.447 10.6146 213.783 11.3165V2.23636H209.638V28.0356H213.783V17.443C213.894 17.3138 219.219 11.6666 219.827 11.0208C219.863 11.9614 220.434 28.0356 220.434 28.0356H224.673L223.659 1.00001Z" fill="#0043FA"/>
<path d="M203.447 1.35022L203.429 1.38761L203.392 1.40545L203.356 1.46153L203.3 1.51676L203.226 1.58984L203.152 1.66376L203.06 1.75639L202.969 1.849L202.858 1.95947L202.747 2.08863L202.618 2.21778L202.489 2.34694L202.36 2.49479L202.213 2.64265L202.047 2.80834L201.715 3.15928L201.365 3.52806L200.996 3.91553L200.61 4.3217L200.205 4.74656L199.781 5.17057L199.357 5.61413L198.933 6.07553L198.067 6.97878L197.644 7.42234L197.22 7.8472L196.814 8.27121L196.427 8.69607L196.04 9.08355L195.69 9.45148L195.358 9.80241L195.193 9.96896L195.045 10.1355L194.898 10.2825L194.77 10.4304L194.641 10.5595L194.53 10.6878L194.419 10.7991L194.309 10.9105L194.216 11.0022L194.143 11.0761L194.069 11.1492L194.014 11.224L193.959 11.2605L193.921 11.3166V2.23648H189.758V28.0358H193.921V17.4423C194.032 17.314 199.357 11.6667 199.965 11.0209C200.001 11.9616 200.573 28.0358 200.573 28.0358H204.792L203.779 1.00013L203.447 1.35022Z" fill="#0043FA"/>
<path d="M179.348 21.6325L179.09 21.3189L178.869 21.0054L178.648 20.6544L178.464 20.3043L178.28 19.9347L178.113 19.5651L177.948 19.1776L177.819 18.7901L177.708 18.3653L177.597 17.96L177.505 17.5172L177.432 17.0745L177.376 16.6131L177.34 16.1517L177.321 15.6716L177.302 15.1916C177.302 12.4792 177.966 10.3201 179.256 8.73196C180.674 6.99768 182.738 6.13096 185.428 6.13096H185.63V1.62743H185.428C181.227 1.62743 178.003 2.91986 175.81 5.52171C173.82 7.86525 172.807 11.1316 172.807 15.2289C172.807 19.1776 173.912 22.4448 176.068 24.8996C178.353 27.4828 181.504 28.8109 185.483 28.8109H185.685V24.2904H185.483C182.866 24.2904 180.803 23.4041 179.348 21.6325Z" fill="#0043FA"/>
<path d="M146.022 5.75726C147.201 5.75726 148.067 6.59679 148.602 8.29453C149.117 9.82658 149.338 12.0605 149.338 14.9394C149.338 17.7256 149.08 20.042 148.509 21.8136L148.417 21.998L148.371 22.1357L148.325 22.2742L148.279 22.4135L148.233 22.552L148.141 22.6905L148.094 22.8282L148.002 22.9208L147.956 23.0585L147.864 23.1519L147.819 23.2896L147.772 23.3822L147.68 23.4748L147.588 23.5666L147.542 23.6584L147.45 23.7051L147.404 23.7969L147.311 23.8895L147.22 23.9362L147.127 24.028L147.035 24.0747L146.943 24.1198L146.897 24.1665L146.805 24.2124H146.712L146.621 24.2583L146.528 24.305H146.437L146.344 24.3509H146.252H146.16H146.022C145.009 24.3509 144.244 23.4833 143.673 21.7677C143.083 19.9765 142.797 17.6797 142.797 14.9844C142.797 12.2355 143.083 9.96509 143.673 8.2495C144.207 6.60698 144.99 5.75726 146.022 5.75726ZM146.022 1.60467C143.792 1.60467 142.014 2.8699 140.725 5.3426C139.472 7.77875 138.836 11.017 138.836 14.9844C138.836 19.0826 139.435 22.3948 140.632 24.8123C141.849 27.2858 143.664 28.5494 146.022 28.5494C148.435 28.5494 150.342 27.2111 151.687 24.6279C152.94 22.2104 153.576 18.9441 153.576 14.9394C153.576 10.9899 152.932 7.76006 151.641 5.3426L151.503 5.11147L151.365 4.8812L151.273 4.65007L151.089 4.46568L150.996 4.28129L150.812 4.0969L150.674 3.91166L150.536 3.72727L150.398 3.54373L150.213 3.35849L150.075 3.21999L149.891 3.08233L149.753 2.94298L149.569 2.80447L149.43 2.66597L149.246 2.52746L149.061 2.43569L148.877 2.34307L148.693 2.2513L148.509 2.15953L148.325 2.06606L148.141 1.97429L147.956 1.92841L147.726 1.83579L147.542 1.7899L147.311 1.74317L147.127 1.69814H146.943L146.712 1.6514L146.483 1.60467H146.252H146.022Z" fill="#0043FA"/>
<path d="M163.373 21.6325L163.263 21.4846L163.134 21.3189L162.895 21.0054L162.692 20.6544L162.489 20.3043L162.304 19.9347L162.139 19.5651L161.991 19.1776L161.844 18.7901L161.734 18.3653L161.623 17.96L161.549 17.5172L161.476 17.0745L161.421 16.6131L161.383 16.1517L161.347 15.6716V15.1916C161.347 12.4792 161.991 10.3201 163.3 8.73196C164.7 6.99768 166.764 6.13096 169.453 6.13096H169.675V1.62743H169.453C165.271 1.62743 162.029 2.91986 159.854 5.52171C157.846 7.86525 156.851 11.1316 156.851 15.2289C156.851 19.1776 157.938 22.4448 160.112 24.8996C162.378 27.4828 165.548 28.8109 169.527 28.8109H169.73V24.2904H169.527C166.892 24.2904 164.829 23.4041 163.373 21.6325Z" fill="#0043FA"/>
<path d="M0 0.67697V26.6063H4.77187V4.97742H10.6678V26.6063H15.4219V0.67697H0Z" fill="#0043FA"/>
<path d="M30.0828 4.38285C31.3722 4.38285 32.2842 5.21303 32.8925 6.87424C33.4447 8.3876 33.7221 10.5926 33.7221 13.4715C33.7221 16.222 33.3989 18.5197 32.7542 20.254C32.1281 21.9517 31.262 22.7454 30.0828 22.7454H29.9445H29.8529H29.7604H29.6679L29.5763 22.6995L29.4839 22.6527H29.3922L29.2998 22.6069L29.2073 22.561L29.1157 22.5142L29.0232 22.4684L28.9316 22.4225L28.8391 22.3299L28.7466 22.284L28.655 22.1913L28.5626 22.1455L28.5168 22.0528L28.4243 21.9611L28.3327 21.8684L28.286 21.7767L28.1944 21.6841L28.1019 21.5456L28.0561 21.4538L27.9636 21.3612L27.9178 21.2227L27.8254 21.0842L27.7795 20.9924L27.7337 20.808L27.6413 20.6695L27.5955 20.531L27.5497 20.3925L27.4572 20.254C26.8124 18.4636 26.4901 16.194 26.4901 13.5174C26.4901 10.7685 26.8124 8.52525 27.4572 6.82751C28.0654 5.18499 28.9223 4.38285 30.0828 4.38285ZM30.037 -1.71661e-05C27.5123 -1.71661e-05 25.4857 1.27287 24.0486 3.78295C22.6302 6.2378 21.9294 9.48544 21.9294 13.4715C21.9294 17.5875 22.5928 20.955 23.9561 23.3912C25.338 25.8825 27.3834 27.1282 30.037 27.1282C32.7448 27.1282 34.8826 25.8273 36.3927 23.2068C37.8119 20.7706 38.5585 17.4762 38.5585 13.4715C38.5585 9.48544 37.7839 6.2191 36.3469 3.78295L36.2094 3.55182L36.0712 3.32155L35.9329 3.09042L35.7488 2.90603L35.6105 2.67576L35.4256 2.49052L35.2873 2.30698L35.1032 2.12174L34.9191 1.93735L34.7808 1.79884L34.5968 1.61445L34.4127 1.47595L34.2286 1.33745L34.0436 1.19894L33.8137 1.06044L33.6297 0.967815L33.4447 0.83016L33.2615 0.737541L33.0307 0.645769L32.8466 0.55315L32.6159 0.46138L32.386 0.368761L32.2019 0.322876L31.9712 0.230257L31.7413 0.184372L31.5105 0.137636L31.2806 0.0917511L31.0499 0.045866H30.7733H30.5434L30.3127 -1.71661e-05H30.037Z" fill="#0043FA"/>
<path d="M64.5048 0.67697V4.97742H68.4657V26.6063H73.2376V4.97742H77.2544V0.67697H64.5048Z" fill="#0043FA"/>
<path d="M54.0581 9.70109H51.4597C50.3916 9.70109 49.5806 9.46146 49.0835 8.98137C48.7153 8.64913 48.549 8.18773 48.549 7.59717V0.677031H43.7772V8.07727C43.7772 9.77501 44.4592 11.2331 45.7852 12.3769C47.0933 13.5036 48.7153 14.0746 50.5757 14.0746H54.0581V26.6063H58.83V0.677031H54.0581V9.70109Z" fill="#0043FA"/>
<path d="M88.0287 4.98241H89.733C90.9673 4.98241 91.7961 5.37923 92.3119 6.13549C92.7361 6.76343 93.0219 7.96239 93.1874 9.64229H87.8904V9.59641V9.54967V9.50379V9.4579V9.41117V9.36528V9.3194V9.18089V9.04239V8.90388L87.9362 8.76623V8.58099V8.44248V8.25809V8.07371V7.88846V7.70493V7.28941V6.92063L87.9828 6.73539V6.551V6.36661V6.18222V5.99783V5.85933V5.67409V5.53643V5.39793L88.0287 5.30531V5.25942V5.21269V5.1668V5.12092V5.07503V5.0283V4.98241ZM83.4689 0.692162L82.5934 26.6206H87.3381C87.3381 26.6206 87.7801 14.5053 87.7988 13.9334H93.7405C93.7956 14.4687 95.1224 26.6206 95.1224 26.6206H99.913L97.7014 7.65819V7.42707V7.19679V6.96567L97.6555 6.73539V6.50512L97.6097 6.32073V6.0896L97.5631 5.90521L97.5173 5.67409L97.4715 5.4897L97.4256 5.30531L97.379 5.12092L97.3332 4.93653L97.2407 4.75214L97.1949 4.5669L97.1491 4.38251L97.0566 4.19812L96.965 4.05961L96.8725 3.87523L96.8267 3.73672L96.7343 3.55233L96.6418 3.41382L96.5044 3.27532L96.4119 3.09093L96.3194 2.99916L96.1811 2.81392L96.0895 2.7213L95.9512 2.5828L95.813 2.44514L95.6747 2.35252L95.5831 2.21402L95.399 2.07636C94.2011 1.13487 92.5791 0.692162 90.516 0.692162H83.4689Z" fill="#0043FA"/>
</svg>
